<?xml version="1.0" encoding="UTF-8" standalone="no"?>
<!DOCTYPE svg PUBLIC "-//W3C//DTD SVG 1.1//EN"
 "http://www.w3.org/Graphics/SVG/1.1/DTD/svg11.dtd">
<!-- Generated by graphviz version 2.40.1 (20161225.0304)
 -->
<!-- Title: opentracing&#45;c/common.h Pages: 1 -->
<svg width="263pt" height="377pt"
 viewBox="0.00 0.00 262.57 377.00" xmlns="http://www.w3.org/2000/svg" xmlns:xlink="http://www.w3.org/1999/xlink">
<g id="graph0" class="graph" transform="scale(1 1) rotate(0) translate(4 373)">
<title>opentracing&#45;c/common.h</title>
<polygon fill="#ffffff" stroke="transparent" points="-4,4 -4,-373 258.5684,-373 258.5684,4 -4,4"/>
<!-- Node4 -->
<g id="node1" class="node">
<title>Node4</title>
<polygon fill="#bfbfbf" stroke="#000000" points="37.2759,-350.5 37.2759,-368.5 163.3296,-368.5 163.3296,-350.5 37.2759,-350.5"/>
<text text-anchor="middle" x="100.3027" y="-356.5" font-family="Helvetica,sans-Serif" font-size="10.00" fill="#000000">opentracing&#45;c/common.h</text>
</g>
<!-- Node5 -->
<g id="node2" class="node">
<title>Node5</title>
<g id="a_node2"><a xlink:href="propagation_8h.html" target="_top" xlink:title="opentracing&#45;c/propagation.h">
<polygon fill="#ffffff" stroke="#000000" points="114.0371,-185.5 114.0371,-203.5 254.5684,-203.5 254.5684,-185.5 114.0371,-185.5"/>
<text text-anchor="middle" x="184.3027" y="-191.5" font-family="Helvetica,sans-Serif" font-size="10.00" fill="#000000">opentracing&#45;c/propagation.h</text>
</a>
</g>
</g>
<!-- Node4&#45;&gt;Node5 -->
<g id="edge1" class="edge">
<title>Node4&#45;&gt;Node5</title>
<path fill="none" stroke="#191970" d="M130.0692,-345.533C142.9164,-337.9896 156.8982,-327.439 165.3027,-314 187.6914,-278.2 186.6358,-224.949 185.1488,-203.7201"/>
<polygon fill="#191970" stroke="#191970" points="128.1014,-342.6201 121.011,-350.4927 131.4632,-348.76 128.1014,-342.6201"/>
</g>
<!-- Node7 -->
<g id="node4" class="node">
<title>Node7</title>
<g id="a_node4"><a xlink:href="tracer__factory_8h.html" target="_top" xlink:title="opentracing&#45;c/tracer\l_factory.h">
<polygon fill="#ffffff" stroke="#000000" points="5.8374,-65.5 5.8374,-93.5 110.7681,-93.5 110.7681,-65.5 5.8374,-65.5"/>
<text text-anchor="start" x="13.8374" y="-81.5" font-family="Helvetica,sans-Serif" font-size="10.00" fill="#000000">opentracing&#45;c/tracer</text>
<text text-anchor="middle" x="58.3027" y="-71.5" font-family="Helvetica,sans-Serif" font-size="10.00" fill="#000000">_factory.h</text>
</a>
</g>
</g>
<!-- Node4&#45;&gt;Node7 -->
<g id="edge5" class="edge">
<title>Node4&#45;&gt;Node7</title>
<path fill="none" stroke="#191970" d="M71.8381,-345.3354C59.0166,-337.6565 44.6841,-327.0503 35.3027,-314 17.8593,-289.7345 16.3027,-279.3846 16.3027,-249.5 16.3027,-249.5 16.3027,-249.5 16.3027,-194.5 16.3027,-156.2408 37.0669,-114.9293 49.3956,-93.7726"/>
<polygon fill="#191970" stroke="#191970" points="70.3858,-348.5347 80.8147,-350.4026 73.8269,-342.4389 70.3858,-348.5347"/>
</g>
<!-- Node9 -->
<g id="node6" class="node">
<title>Node9</title>
<g id="a_node6"><a xlink:href="value_8h.html" target="_top" xlink:title="opentracing&#45;c/value.h">
<polygon fill="#ffffff" stroke="#000000" points="44.4951,-295.5 44.4951,-313.5 156.1104,-313.5 156.1104,-295.5 44.4951,-295.5"/>
<text text-anchor="middle" x="100.3027" y="-301.5" font-family="Helvetica,sans-Serif" font-size="10.00" fill="#000000">opentracing&#45;c/value.h</text>
</a>
</g>
</g>
<!-- Node4&#45;&gt;Node9 -->
<g id="edge6" class="edge">
<title>Node4&#45;&gt;Node9</title>
<path fill="none" stroke="#191970" d="M100.3027,-340.383C100.3027,-331.3738 100.3027,-321.0373 100.3027,-313.7795"/>
<polygon fill="#191970" stroke="#191970" points="96.8028,-340.4178 100.3027,-350.4179 103.8028,-340.4179 96.8028,-340.4178"/>
</g>
<!-- Node6 -->
<g id="node3" class="node">
<title>Node6</title>
<g id="a_node3"><a xlink:href="tracer_8h.html" target="_top" xlink:title="opentracing&#45;c/tracer.h">
<polygon fill="#ffffff" stroke="#000000" points="43.9409,-130.5 43.9409,-148.5 156.6646,-148.5 156.6646,-130.5 43.9409,-130.5"/>
<text text-anchor="middle" x="100.3027" y="-136.5" font-family="Helvetica,sans-Serif" font-size="10.00" fill="#000000">opentracing&#45;c/tracer.h</text>
</a>
</g>
</g>
<!-- Node5&#45;&gt;Node6 -->
<g id="edge2" class="edge">
<title>Node5&#45;&gt;Node6</title>
<path fill="none" stroke="#191970" d="M161.6583,-179.6733C146.5209,-169.7619 127.09,-157.0393 114.1942,-148.5956"/>
<polygon fill="#191970" stroke="#191970" points="160.1484,-182.8681 170.4318,-185.4179 163.9829,-177.0118 160.1484,-182.8681"/>
</g>
<!-- Node6&#45;&gt;Node7 -->
<g id="edge3" class="edge">
<title>Node6&#45;&gt;Node7</title>
<path fill="none" stroke="#191970" d="M88.1784,-122.1795C81.8906,-113.1969 74.3018,-102.3558 68.3461,-93.8477"/>
<polygon fill="#191970" stroke="#191970" points="85.3219,-124.2021 93.9238,-130.3873 91.0565,-120.1878 85.3219,-124.2021"/>
</g>
<!-- Node8 -->
<g id="node5" class="node">
<title>Node8</title>
<g id="a_node5"><a xlink:href="dynamic__load_8h.html" target="_top" xlink:title="opentracing&#45;c/dynamic\l_load.h">
<polygon fill="#ffffff" stroke="#000000" points="0,-.5 0,-28.5 116.6055,-28.5 116.6055,-.5 0,-.5"/>
<text text-anchor="start" x="8" y="-16.5" font-family="Helvetica,sans-Serif" font-size="10.00" fill="#000000">opentracing&#45;c/dynamic</text>
<text text-anchor="middle" x="58.3027" y="-6.5" font-family="Helvetica,sans-Serif" font-size="10.00" fill="#000000">_load.h</text>
</a>
</g>
</g>
<!-- Node7&#45;&gt;Node8 -->
<g id="edge4" class="edge">
<title>Node7&#45;&gt;Node8</title>
<path fill="none" stroke="#191970" d="M58.3027,-55.1081C58.3027,-46.1539 58.3027,-36.3227 58.3027,-28.5765"/>
<polygon fill="#191970" stroke="#191970" points="54.8028,-55.3959 58.3027,-65.396 61.8028,-55.396 54.8028,-55.3959"/>
</g>
<!-- Node10 -->
<g id="node7" class="node">
<title>Node10</title>
<g id="a_node7"><a xlink:href="span_8h.html" target="_top" xlink:title="opentracing&#45;c/span.h">
<polygon fill="#ffffff" stroke="#000000" points="45.606,-240.5 45.606,-258.5 154.9995,-258.5 154.9995,-240.5 45.606,-240.5"/>
<text text-anchor="middle" x="100.3027" y="-246.5" font-family="Helvetica,sans-Serif" font-size="10.00" fill="#000000">opentracing&#45;c/span.h</text>
</a>
</g>
</g>
<!-- Node9&#45;&gt;Node10 -->
<g id="edge7" class="edge">
<title>Node9&#45;&gt;Node10</title>
<path fill="none" stroke="#191970" d="M100.3027,-285.383C100.3027,-276.3738 100.3027,-266.0373 100.3027,-258.7795"/>
<polygon fill="#191970" stroke="#191970" points="96.8028,-285.4178 100.3027,-295.4179 103.8028,-285.4179 96.8028,-285.4178"/>
</g>
<!-- Node10&#45;&gt;Node5 -->
<g id="edge8" class="edge">
<title>Node10&#45;&gt;Node5</title>
<path fill="none" stroke="#191970" d="M122.9472,-234.6733C138.0846,-224.7619 157.5155,-212.0393 170.4112,-203.5956"/>
<polygon fill="#191970" stroke="#191970" points="120.6226,-232.0118 114.1736,-240.4179 124.4571,-237.8681 120.6226,-232.0118"/>
</g>
<!-- Node10&#45;&gt;Node6 -->
<g id="edge9" class="edge">
<title>Node10&#45;&gt;Node6</title>
<path fill="none" stroke="#191970" d="M100.3027,-230.1899C100.3027,-206.2569 100.3027,-166.4552 100.3027,-148.6261"/>
<polygon fill="#191970" stroke="#191970" points="96.8028,-230.4982 100.3027,-240.4982 103.8028,-230.4983 96.8028,-230.4982"/>
</g>
</g>
</svg>
