<?xml version="1.0" encoding="UTF-8" standalone="no"?>
<!DOCTYPE svg PUBLIC "-//W3C//DTD SVG 1.1//EN"
 "http://www.w3.org/Graphics/SVG/1.1/DTD/svg11.dtd">
<!-- Generated by graphviz version 2.40.1 (20161225.0304)
 -->
<!-- Title: opentracing&#45;c/common.h Pages: 1 -->
<svg width="187pt" height="137pt"
 viewBox="0.00 0.00 187.33 137.00" xmlns="http://www.w3.org/2000/svg" xmlns:xlink="http://www.w3.org/1999/xlink">
<g id="graph0" class="graph" transform="scale(1 1) rotate(0) translate(4 133)">
<title>opentracing&#45;c/common.h</title>
<polygon fill="#ffffff" stroke="transparent" points="-4,4 -4,-133 183.3257,-133 183.3257,4 -4,4"/>
<!-- Node0 -->
<g id="node1" class="node">
<title>Node0</title>
<polygon fill="#bfbfbf" stroke="#000000" points="45.6831,-110.5 45.6831,-128.5 171.7368,-128.5 171.7368,-110.5 45.6831,-110.5"/>
<text text-anchor="middle" x="108.71" y="-116.5" font-family="Helvetica,sans-Serif" font-size="10.00" fill="#000000">opentracing&#45;c/common.h</text>
</g>
<!-- Node1 -->
<g id="node2" class="node">
<title>Node1</title>
<g id="a_node2"><a xlink:href="config_8h.html" target="_top" xlink:title="opentracing&#45;c/config.h">
<polygon fill="#ffffff" stroke="#000000" points="3.5132,-55.5 3.5132,-73.5 117.9067,-73.5 117.9067,-55.5 3.5132,-55.5"/>
<text text-anchor="middle" x="60.71" y="-61.5" font-family="Helvetica,sans-Serif" font-size="10.00" fill="#000000">opentracing&#45;c/config.h</text>
</a>
</g>
</g>
<!-- Node0&#45;&gt;Node1 -->
<g id="edge1" class="edge">
<title>Node0&#45;&gt;Node1</title>
<path fill="none" stroke="#191970" d="M100.7837,-110.4179C93.9463,-102.5833 83.8874,-91.0575 75.5583,-81.5137"/>
<polygon fill="#191970" stroke="#191970" points="78.0208,-79.0123 68.8084,-73.7795 72.7468,-83.6151 78.0208,-79.0123"/>
</g>
<!-- Node3 -->
<g id="node4" class="node">
<title>Node3</title>
<polygon fill="#ffffff" stroke="#bfbfbf" points="136.0942,-55.5 136.0942,-73.5 179.3257,-73.5 179.3257,-55.5 136.0942,-55.5"/>
<text text-anchor="middle" x="157.71" y="-61.5" font-family="Helvetica,sans-Serif" font-size="10.00" fill="#000000">time.h</text>
</g>
<!-- Node0&#45;&gt;Node3 -->
<g id="edge3" class="edge">
<title>Node0&#45;&gt;Node3</title>
<path fill="none" stroke="#191970" d="M116.8013,-110.4179C123.7812,-102.5833 134.0496,-91.0575 142.5523,-81.5137"/>
<polygon fill="#191970" stroke="#191970" points="145.404,-83.5743 149.4428,-73.7795 140.1774,-78.9178 145.404,-83.5743"/>
</g>
<!-- Node2 -->
<g id="node3" class="node">
<title>Node2</title>
<g id="a_node3"><a xlink:href="visibility_8h_source.html" target="_top" xlink:title="opentracing&#45;c/visibility.h">
<polygon fill="#ffffff" stroke="#000000" points="0,-.5 0,-18.5 121.4199,-18.5 121.4199,-.5 0,-.5"/>
<text text-anchor="middle" x="60.71" y="-6.5" font-family="Helvetica,sans-Serif" font-size="10.00" fill="#000000">opentracing&#45;c/visibility.h</text>
</a>
</g>
</g>
<!-- Node1&#45;&gt;Node2 -->
<g id="edge2" class="edge">
<title>Node1&#45;&gt;Node2</title>
<path fill="none" stroke="#191970" d="M60.71,-55.4179C60.71,-48.2164 60.71,-37.8962 60.71,-28.8632"/>
<polygon fill="#191970" stroke="#191970" points="64.2101,-28.7794 60.71,-18.7795 57.2101,-28.7795 64.2101,-28.7794"/>
</g>
</g>
</svg>
