<?xml version="1.0" encoding="UTF-8" standalone="no"?>
<!DOCTYPE svg PUBLIC "-//W3C//DTD SVG 1.1//EN"
 "http://www.w3.org/Graphics/SVG/1.1/DTD/svg11.dtd">
<!-- Generated by graphviz version 2.40.1 (20161225.0304)
 -->
<!-- Title: opentracing&#45;c/config.h Pages: 1 -->
<svg width="538pt" height="432pt"
 viewBox="0.00 0.00 537.79 432.00" xmlns="http://www.w3.org/2000/svg" xmlns:xlink="http://www.w3.org/1999/xlink">
<g id="graph0" class="graph" transform="scale(1 1) rotate(0) translate(4 428)">
<title>opentracing&#45;c/config.h</title>
<polygon fill="#ffffff" stroke="transparent" points="-4,4 -4,-428 533.7881,-428 533.7881,4 -4,4"/>
<!-- Node2 -->
<g id="node1" class="node">
<title>Node2</title>
<polygon fill="#bfbfbf" stroke="#000000" points="212.8032,-405.5 212.8032,-423.5 327.1968,-423.5 327.1968,-405.5 212.8032,-405.5"/>
<text text-anchor="middle" x="270" y="-411.5" font-family="Helvetica,sans-Serif" font-size="10.00" fill="#000000">opentracing&#45;c/config.h</text>
</g>
<!-- Node3 -->
<g id="node2" class="node">
<title>Node3</title>
<g id="a_node2"><a xlink:href="common_8h.html" target="_top" xlink:title="opentracing&#45;c/common.h">
<polygon fill="#ffffff" stroke="#000000" points="374.9731,-350.5 374.9731,-368.5 501.0269,-368.5 501.0269,-350.5 374.9731,-350.5"/>
<text text-anchor="middle" x="438" y="-356.5" font-family="Helvetica,sans-Serif" font-size="10.00" fill="#000000">opentracing&#45;c/common.h</text>
</a>
</g>
</g>
<!-- Node2&#45;&gt;Node3 -->
<g id="edge1" class="edge">
<title>Node2&#45;&gt;Node3</title>
<path fill="none" stroke="#191970" d="M307.4017,-402.2554C338.6246,-392.0336 382.4126,-377.6983 410.4962,-368.5042"/>
<polygon fill="#191970" stroke="#191970" points="306.1565,-398.9802 297.7418,-405.4179 308.3344,-405.6328 306.1565,-398.9802"/>
</g>
<!-- Node4 -->
<g id="node3" class="node">
<title>Node4</title>
<g id="a_node3"><a xlink:href="propagation_8h.html" target="_top" xlink:title="opentracing&#45;c/propagation.h">
<polygon fill="#ffffff" stroke="#000000" points="307.7344,-185.5 307.7344,-203.5 448.2656,-203.5 448.2656,-185.5 307.7344,-185.5"/>
<text text-anchor="middle" x="378" y="-191.5" font-family="Helvetica,sans-Serif" font-size="10.00" fill="#000000">opentracing&#45;c/propagation.h</text>
</a>
</g>
</g>
<!-- Node2&#45;&gt;Node4 -->
<g id="edge14" class="edge">
<title>Node2&#45;&gt;Node4</title>
<path fill="none" stroke="#191970" d="M295.7126,-400.171C322.7256,-383.4752 363.6505,-353.1126 381,-314 397.8298,-276.059 386.532,-224.4638 380.7839,-203.7064"/>
<polygon fill="#191970" stroke="#191970" points="293.5873,-397.3637 286.7994,-405.4985 297.1787,-403.3723 293.5873,-397.3637"/>
</g>
<!-- Node5 -->
<g id="node4" class="node">
<title>Node5</title>
<g id="a_node4"><a xlink:href="tracer_8h.html" target="_top" xlink:title="opentracing&#45;c/tracer.h">
<polygon fill="#ffffff" stroke="#000000" points="272.6382,-130.5 272.6382,-148.5 385.3618,-148.5 385.3618,-130.5 272.6382,-130.5"/>
<text text-anchor="middle" x="329" y="-136.5" font-family="Helvetica,sans-Serif" font-size="10.00" fill="#000000">opentracing&#45;c/tracer.h</text>
</a>
</g>
</g>
<!-- Node2&#45;&gt;Node5 -->
<g id="edge16" class="edge">
<title>Node2&#45;&gt;Node5</title>
<path fill="none" stroke="#191970" d="M224.2757,-402.7481C156.6827,-384.014 38,-345.3093 38,-304.5 38,-304.5 38,-304.5 38,-249.5 38,-199.4059 190.7921,-164.1527 274.9471,-148.535"/>
<polygon fill="#191970" stroke="#191970" points="223.6897,-406.2161 234.2584,-405.4729 225.533,-399.4631 223.6897,-406.2161"/>
</g>
<!-- Node6 -->
<g id="node5" class="node">
<title>Node6</title>
<g id="a_node5"><a xlink:href="tracer__factory_8h.html" target="_top" xlink:title="opentracing&#45;c/tracer\l_factory.h">
<polygon fill="#ffffff" stroke="#000000" points="349.5347,-65.5 349.5347,-93.5 454.4653,-93.5 454.4653,-65.5 349.5347,-65.5"/>
<text text-anchor="start" x="357.5347" y="-81.5" font-family="Helvetica,sans-Serif" font-size="10.00" fill="#000000">opentracing&#45;c/tracer</text>
<text text-anchor="middle" x="402" y="-71.5" font-family="Helvetica,sans-Serif" font-size="10.00" fill="#000000">_factory.h</text>
</a>
</g>
</g>
<!-- Node2&#45;&gt;Node6 -->
<g id="edge17" class="edge">
<title>Node2&#45;&gt;Node6</title>
<path fill="none" stroke="#191970" d="M337.4396,-409.5097C399.3555,-403.5785 485.135,-391.5151 510,-369 532.1524,-348.9411 529,-334.3846 529,-304.5 529,-304.5 529,-304.5 529,-194.5 529,-144.8262 474.9548,-111.0226 437.3766,-93.5224"/>
<polygon fill="#191970" stroke="#191970" points="336.9708,-406.0381 327.3355,-410.4441 337.6154,-413.0083 336.9708,-406.0381"/>
</g>
<!-- Node7 -->
<g id="node6" class="node">
<title>Node7</title>
<g id="a_node6"><a xlink:href="dynamic__load_8h.html" target="_top" xlink:title="opentracing&#45;c/dynamic\l_load.h">
<polygon fill="#ffffff" stroke="#000000" points="81.6973,-.5 81.6973,-28.5 198.3027,-28.5 198.3027,-.5 81.6973,-.5"/>
<text text-anchor="start" x="89.6973" y="-16.5" font-family="Helvetica,sans-Serif" font-size="10.00" fill="#000000">opentracing&#45;c/dynamic</text>
<text text-anchor="middle" x="140" y="-6.5" font-family="Helvetica,sans-Serif" font-size="10.00" fill="#000000">_load.h</text>
</a>
</g>
</g>
<!-- Node2&#45;&gt;Node7 -->
<g id="edge13" class="edge">
<title>Node2&#45;&gt;Node7</title>
<path fill="none" stroke="#191970" d="M202.6549,-406.0527C164.8765,-399.4817 117.7073,-388.1427 79,-369 38.3698,-348.9063 0,-349.8273 0,-304.5 0,-304.5 0,-304.5 0,-139.5 0,-84.1074 61.7371,-47.1607 103.2166,-28.5884"/>
<polygon fill="#191970" stroke="#191970" points="202.1054,-409.5093 212.545,-407.7023 203.257,-402.6047 202.1054,-409.5093"/>
</g>
<!-- Node8 -->
<g id="node7" class="node">
<title>Node8</title>
<g id="a_node7"><a xlink:href="value_8h.html" target="_top" xlink:title="opentracing&#45;c/value.h">
<polygon fill="#ffffff" stroke="#000000" points="260.1924,-295.5 260.1924,-313.5 371.8076,-313.5 371.8076,-295.5 260.1924,-295.5"/>
<text text-anchor="middle" x="316" y="-301.5" font-family="Helvetica,sans-Serif" font-size="10.00" fill="#000000">opentracing&#45;c/value.h</text>
</a>
</g>
</g>
<!-- Node2&#45;&gt;Node8 -->
<g id="edge18" class="edge">
<title>Node2&#45;&gt;Node8</title>
<path fill="none" stroke="#191970" d="M277.6695,-396.16C287.6278,-372.3464 304.6262,-331.6983 312.1836,-313.6261"/>
<polygon fill="#191970" stroke="#191970" points="274.3935,-394.9221 273.7644,-405.4982 280.8515,-397.6228 274.3935,-394.9221"/>
</g>
<!-- Node9 -->
<g id="node8" class="node">
<title>Node9</title>
<g id="a_node8"><a xlink:href="span_8h.html" target="_top" xlink:title="opentracing&#45;c/span.h">
<polygon fill="#ffffff" stroke="#000000" points="225.3032,-240.5 225.3032,-258.5 334.6968,-258.5 334.6968,-240.5 225.3032,-240.5"/>
<text text-anchor="middle" x="280" y="-246.5" font-family="Helvetica,sans-Serif" font-size="10.00" fill="#000000">opentracing&#45;c/span.h</text>
</a>
</g>
</g>
<!-- Node2&#45;&gt;Node9 -->
<g id="edge15" class="edge">
<title>Node2&#45;&gt;Node9</title>
<path fill="none" stroke="#191970" d="M262.028,-395.7857C253.0195,-371.9868 240.852,-329.8027 251,-295 255.0382,-281.151 264.7124,-267.4986 271.7804,-258.818"/>
<polygon fill="#191970" stroke="#191970" points="258.8853,-397.3529 265.8532,-405.3341 265.3833,-394.7497 258.8853,-397.3529"/>
</g>
<!-- Node10 -->
<g id="node9" class="node">
<title>Node10</title>
<g id="a_node9"><a xlink:href="destructible_8h.html" target="_top" xlink:title="opentracing&#45;c/destructible.h">
<polygon fill="#ffffff" stroke="#000000" points="65.5767,-295.5 65.5767,-313.5 204.4233,-313.5 204.4233,-295.5 65.5767,-295.5"/>
<text text-anchor="middle" x="135" y="-301.5" font-family="Helvetica,sans-Serif" font-size="10.00" fill="#000000">opentracing&#45;c/destructible.h</text>
</a>
</g>
</g>
<!-- Node2&#45;&gt;Node10 -->
<g id="edge11" class="edge">
<title>Node2&#45;&gt;Node10</title>
<path fill="none" stroke="#191970" d="M250.9262,-398.9584C222.3379,-375.6642 169.2749,-332.4277 146.2003,-313.6261"/>
<polygon fill="#191970" stroke="#191970" points="248.9891,-401.8948 258.9524,-405.4982 253.4109,-396.4681 248.9891,-401.8948"/>
</g>
<!-- Node3&#45;&gt;Node4 -->
<g id="edge2" class="edge">
<title>Node3&#45;&gt;Node4</title>
<path fill="none" stroke="#191970" d="M436.9077,-340.2908C434.9154,-315.9425 429.3559,-273.1517 414,-240 407.4802,-225.9245 395.777,-212.3182 387.486,-203.7102"/>
<polygon fill="#191970" stroke="#191970" points="433.4227,-340.6278 437.6107,-350.3597 440.4057,-340.1402 433.4227,-340.6278"/>
</g>
<!-- Node3&#45;&gt;Node6 -->
<g id="edge6" class="edge">
<title>Node3&#45;&gt;Node6</title>
<path fill="none" stroke="#191970" d="M448.3155,-341.6037C459.5685,-320.3582 476,-283.5124 476,-249.5 476,-249.5 476,-249.5 476,-194.5 476,-152.4774 440.6248,-113.5893 418.7917,-93.5898"/>
<polygon fill="#191970" stroke="#191970" points="445.2016,-340.0025 443.4445,-350.4507 451.3336,-343.3787 445.2016,-340.0025"/>
</g>
<!-- Node3&#45;&gt;Node8 -->
<g id="edge7" class="edge">
<title>Node3&#45;&gt;Node8</title>
<path fill="none" stroke="#191970" d="M408.4813,-346.1924C386.0805,-336.0937 355.8772,-322.4774 336.1757,-313.5956"/>
<polygon fill="#191970" stroke="#191970" points="407.2993,-349.4987 417.8542,-350.4179 410.1762,-343.1172 407.2993,-349.4987"/>
</g>
<!-- Node4&#45;&gt;Node5 -->
<g id="edge3" class="edge">
<title>Node4&#45;&gt;Node5</title>
<path fill="none" stroke="#191970" d="M363.0553,-177.7253C354.5825,-168.215 344.3017,-156.6754 337.2672,-148.7795"/>
<polygon fill="#191970" stroke="#191970" points="360.6432,-180.2795 369.9086,-185.4179 365.8699,-175.623 360.6432,-180.2795"/>
</g>
<!-- Node5&#45;&gt;Node6 -->
<g id="edge4" class="edge">
<title>Node5&#45;&gt;Node6</title>
<path fill="none" stroke="#191970" d="M348.1102,-123.7929C359.487,-114.4422 373.8051,-102.6739 384.8228,-93.6183"/>
<polygon fill="#191970" stroke="#191970" points="345.5902,-121.3337 340.0871,-130.3873 350.0349,-126.7415 345.5902,-121.3337"/>
</g>
<!-- Node6&#45;&gt;Node7 -->
<g id="edge5" class="edge">
<title>Node6&#45;&gt;Node7</title>
<path fill="none" stroke="#191970" d="M339.4254,-63.9758C296.0453,-53.2135 238.7478,-38.9985 196.7039,-28.5678"/>
<polygon fill="#191970" stroke="#191970" points="338.747,-67.4135 349.2956,-66.4245 340.4326,-60.6195 338.747,-67.4135"/>
</g>
<!-- Node8&#45;&gt;Node9 -->
<g id="edge8" class="edge">
<title>Node8&#45;&gt;Node9</title>
<path fill="none" stroke="#191970" d="M304.4508,-286.8553C298.3397,-277.519 291.0855,-266.4361 286.0738,-258.7795"/>
<polygon fill="#191970" stroke="#191970" points="301.6502,-288.9677 310.0553,-295.4179 307.5072,-285.134 301.6502,-288.9677"/>
</g>
<!-- Node9&#45;&gt;Node4 -->
<g id="edge9" class="edge">
<title>Node9&#45;&gt;Node4</title>
<path fill="none" stroke="#191970" d="M304.9314,-235.5079C322.7896,-225.4854 346.3224,-212.2783 361.7933,-203.5956"/>
<polygon fill="#191970" stroke="#191970" points="303.1902,-232.4715 296.1827,-240.4179 306.6162,-238.5758 303.1902,-232.4715"/>
</g>
<!-- Node9&#45;&gt;Node5 -->
<g id="edge10" class="edge">
<title>Node9&#45;&gt;Node5</title>
<path fill="none" stroke="#191970" d="M283.9921,-230.6371C287.1478,-217.4841 292.1635,-199.7239 299,-185 305.2161,-171.6123 314.9964,-157.645 321.6889,-148.7758"/>
<polygon fill="#191970" stroke="#191970" points="280.5685,-229.9088 281.7796,-240.4342 287.3965,-231.4509 280.5685,-229.9088"/>
</g>
<!-- Node10&#45;&gt;Node9 -->
<g id="edge12" class="edge">
<title>Node10&#45;&gt;Node9</title>
<path fill="none" stroke="#191970" d="M168.3071,-291.8663C195.0916,-281.7066 232.08,-267.6765 256.0206,-258.5956"/>
<polygon fill="#191970" stroke="#191970" points="167.0525,-288.5988 158.9438,-295.4179 169.5351,-295.1438 167.0525,-288.5988"/>
</g>
</g>
</svg>
