<?xml version="1.0" encoding="UTF-8" standalone="no"?>
<!DOCTYPE svg PUBLIC "-//W3C//DTD SVG 1.1//EN"
 "http://www.w3.org/Graphics/SVG/1.1/DTD/svg11.dtd">
<!-- Generated by graphviz version 2.40.1 (20161225.0304)
 -->
<!-- Title: opentracing&#45;c/destructible.h Pages: 1 -->
<svg width="147pt" height="137pt"
 viewBox="0.00 0.00 146.85 137.00" xmlns="http://www.w3.org/2000/svg" xmlns:xlink="http://www.w3.org/1999/xlink">
<g id="graph0" class="graph" transform="scale(1 1) rotate(0) translate(4 133)">
<title>opentracing&#45;c/destructible.h</title>
<polygon fill="#ffffff" stroke="transparent" points="-4,4 -4,-133 142.8467,-133 142.8467,4 -4,4"/>
<!-- Node0 -->
<g id="node1" class="node">
<title>Node0</title>
<polygon fill="#bfbfbf" stroke="#000000" points="0,-110.5 0,-128.5 138.8467,-128.5 138.8467,-110.5 0,-110.5"/>
<text text-anchor="middle" x="69.4233" y="-116.5" font-family="Helvetica,sans-Serif" font-size="10.00" fill="#000000">opentracing&#45;c/destructible.h</text>
</g>
<!-- Node1 -->
<g id="node2" class="node">
<title>Node1</title>
<g id="a_node2"><a xlink:href="config_8h.html" target="_top" xlink:title="opentracing&#45;c/config.h">
<polygon fill="#ffffff" stroke="#000000" points="12.2266,-55.5 12.2266,-73.5 126.6201,-73.5 126.6201,-55.5 12.2266,-55.5"/>
<text text-anchor="middle" x="69.4233" y="-61.5" font-family="Helvetica,sans-Serif" font-size="10.00" fill="#000000">opentracing&#45;c/config.h</text>
</a>
</g>
</g>
<!-- Node0&#45;&gt;Node1 -->
<g id="edge1" class="edge">
<title>Node0&#45;&gt;Node1</title>
<path fill="none" stroke="#191970" d="M69.4233,-110.4179C69.4233,-103.2164 69.4233,-92.8962 69.4233,-83.8632"/>
<polygon fill="#191970" stroke="#191970" points="72.9234,-83.7794 69.4233,-73.7795 65.9234,-83.7795 72.9234,-83.7794"/>
</g>
<!-- Node2 -->
<g id="node3" class="node">
<title>Node2</title>
<g id="a_node3"><a xlink:href="visibility_8h_source.html" target="_top" xlink:title="opentracing&#45;c/visibility.h">
<polygon fill="#ffffff" stroke="#000000" points="8.7134,-.5 8.7134,-18.5 130.1333,-18.5 130.1333,-.5 8.7134,-.5"/>
<text text-anchor="middle" x="69.4233" y="-6.5" font-family="Helvetica,sans-Serif" font-size="10.00" fill="#000000">opentracing&#45;c/visibility.h</text>
</a>
</g>
</g>
<!-- Node1&#45;&gt;Node2 -->
<g id="edge2" class="edge">
<title>Node1&#45;&gt;Node2</title>
<path fill="none" stroke="#191970" d="M69.4233,-55.4179C69.4233,-48.2164 69.4233,-37.8962 69.4233,-28.8632"/>
<polygon fill="#191970" stroke="#191970" points="72.9234,-28.7794 69.4233,-18.7795 65.9234,-28.7795 72.9234,-28.7794"/>
</g>
</g>
</svg>
