<?xml version="1.0" encoding="UTF-8" standalone="no"?>
<!DOCTYPE svg PUBLIC "-//W3C//DTD SVG 1.1//EN"
 "http://www.w3.org/Graphics/SVG/1.1/DTD/svg11.dtd">
<!-- Generated by graphviz version 2.40.1 (20161225.0304)
 -->
<!-- Title: opentracing&#45;c/dynamic_load.h Pages: 1 -->
<svg width="630pt" height="487pt"
 viewBox="0.00 0.00 630.00 487.00" xmlns="http://www.w3.org/2000/svg" xmlns:xlink="http://www.w3.org/1999/xlink">
<g id="graph0" class="graph" transform="scale(1 1) rotate(0) translate(4 483)">
<title>opentracing&#45;c/dynamic_load.h</title>
<polygon fill="#ffffff" stroke="transparent" points="-4,4 -4,-483 626,-483 626,4 -4,4"/>
<!-- Node0 -->
<g id="node1" class="node">
<title>Node0</title>
<polygon fill="#bfbfbf" stroke="#000000" points="428.6973,-450.5 428.6973,-478.5 545.3027,-478.5 545.3027,-450.5 428.6973,-450.5"/>
<text text-anchor="start" x="436.6973" y="-466.5" font-family="Helvetica,sans-Serif" font-size="10.00" fill="#000000">opentracing&#45;c/dynamic</text>
<text text-anchor="middle" x="487" y="-456.5" font-family="Helvetica,sans-Serif" font-size="10.00" fill="#000000">_load.h</text>
</g>
<!-- Node1 -->
<g id="node2" class="node">
<title>Node1</title>
<g id="a_node2"><a xlink:href="config_8h.html" target="_top" xlink:title="opentracing&#45;c/config.h">
<polygon fill="#ffffff" stroke="#000000" points="304.8032,-55.5 304.8032,-73.5 419.1968,-73.5 419.1968,-55.5 304.8032,-55.5"/>
<text text-anchor="middle" x="362" y="-61.5" font-family="Helvetica,sans-Serif" font-size="10.00" fill="#000000">opentracing&#45;c/config.h</text>
</a>
</g>
</g>
<!-- Node0&#45;&gt;Node1 -->
<g id="edge1" class="edge">
<title>Node0&#45;&gt;Node1</title>
<path fill="none" stroke="#191970" d="M521.7659,-450.3742C561.7654,-431.544 622,-394.1202 622,-339.5 622,-339.5 622,-339.5 622,-174.5 622,-134.7371 594.5952,-129.6025 560,-110 519.9702,-87.3181 469.3255,-75.9376 429.2772,-70.2305"/>
<polygon fill="#191970" stroke="#191970" points="429.7129,-66.7577 419.3366,-68.8983 428.7831,-73.6957 429.7129,-66.7577"/>
</g>
<!-- Node3 -->
<g id="node4" class="node">
<title>Node3</title>
<g id="a_node4"><a xlink:href="tracer__factory_8h.html" target="_top" xlink:title="opentracing&#45;c/tracer\l_factory.h">
<polygon fill="#ffffff" stroke="#000000" points="394.5347,-385.5 394.5347,-413.5 499.4653,-413.5 499.4653,-385.5 394.5347,-385.5"/>
<text text-anchor="start" x="402.5347" y="-401.5" font-family="Helvetica,sans-Serif" font-size="10.00" fill="#000000">opentracing&#45;c/tracer</text>
<text text-anchor="middle" x="447" y="-391.5" font-family="Helvetica,sans-Serif" font-size="10.00" fill="#000000">_factory.h</text>
</a>
</g>
</g>
<!-- Node0&#45;&gt;Node3 -->
<g id="edge3" class="edge">
<title>Node0&#45;&gt;Node3</title>
<path fill="none" stroke="#191970" d="M478.3206,-450.396C473.2362,-442.1338 466.6963,-431.5065 460.9088,-422.1017"/>
<polygon fill="#191970" stroke="#191970" points="463.8843,-420.2587 455.6625,-413.5765 457.9227,-423.9275 463.8843,-420.2587"/>
</g>
<!-- Node2 -->
<g id="node3" class="node">
<title>Node2</title>
<g id="a_node3"><a xlink:href="visibility_8h_source.html" target="_top" xlink:title="opentracing&#45;c/visibility.h">
<polygon fill="#ffffff" stroke="#000000" points="139.29,-.5 139.29,-18.5 260.71,-18.5 260.71,-.5 139.29,-.5"/>
<text text-anchor="middle" x="200" y="-6.5" font-family="Helvetica,sans-Serif" font-size="10.00" fill="#000000">opentracing&#45;c/visibility.h</text>
</a>
</g>
</g>
<!-- Node1&#45;&gt;Node2 -->
<g id="edge2" class="edge">
<title>Node1&#45;&gt;Node2</title>
<path fill="none" stroke="#191970" d="M335.249,-55.4179C308.2008,-46.2348 266.216,-31.9807 236.2023,-21.7909"/>
<polygon fill="#191970" stroke="#191970" points="237.1159,-18.4049 226.5215,-18.5042 234.8654,-25.0333 237.1159,-18.4049"/>
</g>
<!-- Node3&#45;&gt;Node1 -->
<g id="edge4" class="edge">
<title>Node3&#45;&gt;Node1</title>
<path fill="none" stroke="#191970" d="M487.3635,-385.3503C527.7751,-368.3005 584,-335.4279 584,-284.5 584,-284.5 584,-284.5 584,-174.5 584,-137.6774 562.8631,-130.0841 532,-110 501.3665,-90.0653 462.2417,-78.8258 429.2504,-72.5081"/>
<polygon fill="#191970" stroke="#191970" points="429.687,-69.0304 419.2248,-70.7012 428.4454,-75.9195 429.687,-69.0304"/>
</g>
<!-- Node4 -->
<g id="node5" class="node">
<title>Node4</title>
<g id="a_node5"><a xlink:href="common_8h.html" target="_top" xlink:title="opentracing&#45;c/common.h">
<polygon fill="#ffffff" stroke="#000000" points="65.9731,-110.5 65.9731,-128.5 192.0269,-128.5 192.0269,-110.5 65.9731,-110.5"/>
<text text-anchor="middle" x="129" y="-116.5" font-family="Helvetica,sans-Serif" font-size="10.00" fill="#000000">opentracing&#45;c/common.h</text>
</a>
</g>
</g>
<!-- Node3&#45;&gt;Node4 -->
<g id="edge5" class="edge">
<title>Node3&#45;&gt;Node4</title>
<path fill="none" stroke="#191970" d="M394.409,-397.034C276.2481,-390.0597 0,-365.1321 0,-284.5 0,-284.5 0,-284.5 0,-229.5 0,-180.389 54.8038,-148.5666 92.9698,-132.3597"/>
<polygon fill="#191970" stroke="#191970" points="94.3279,-135.5858 102.2711,-128.5747 91.6894,-129.1021 94.3279,-135.5858"/>
</g>
<!-- Node6 -->
<g id="node7" class="node">
<title>Node6</title>
<g id="a_node7"><a xlink:href="tracer_8h.html" target="_top" xlink:title="opentracing&#45;c/tracer.h">
<polygon fill="#ffffff" stroke="#000000" points="278.6382,-330.5 278.6382,-348.5 391.3618,-348.5 391.3618,-330.5 278.6382,-330.5"/>
<text text-anchor="middle" x="335" y="-336.5" font-family="Helvetica,sans-Serif" font-size="10.00" fill="#000000">opentracing&#45;c/tracer.h</text>
</a>
</g>
</g>
<!-- Node3&#45;&gt;Node6 -->
<g id="edge8" class="edge">
<title>Node3&#45;&gt;Node6</title>
<path fill="none" stroke="#191970" d="M420.741,-385.4327C402.8475,-375.8468 379.2469,-363.2037 361.3368,-353.609"/>
<polygon fill="#191970" stroke="#191970" points="362.5122,-350.2681 352.0446,-348.6311 359.2067,-356.4385 362.5122,-350.2681"/>
</g>
<!-- Node4&#45;&gt;Node1 -->
<g id="edge6" class="edge">
<title>Node4&#45;&gt;Node1</title>
<path fill="none" stroke="#191970" d="M167.2143,-110.4795C207.3388,-101.008 270.5229,-86.0933 313.9871,-75.8335"/>
<polygon fill="#191970" stroke="#191970" points="314.8364,-79.2293 323.7648,-73.5255 313.2282,-72.4165 314.8364,-79.2293"/>
</g>
<!-- Node5 -->
<g id="node6" class="node">
<title>Node5</title>
<polygon fill="#ffffff" stroke="#bfbfbf" points="107.3843,-55.5 107.3843,-73.5 150.6157,-73.5 150.6157,-55.5 107.3843,-55.5"/>
<text text-anchor="middle" x="129" y="-61.5" font-family="Helvetica,sans-Serif" font-size="10.00" fill="#000000">time.h</text>
</g>
<!-- Node4&#45;&gt;Node5 -->
<g id="edge7" class="edge">
<title>Node4&#45;&gt;Node5</title>
<path fill="none" stroke="#191970" d="M129,-110.4179C129,-103.2164 129,-92.8962 129,-83.8632"/>
<polygon fill="#191970" stroke="#191970" points="132.5001,-83.7794 129,-73.7795 125.5001,-83.7795 132.5001,-83.7794"/>
</g>
<!-- Node6&#45;&gt;Node1 -->
<g id="edge9" class="edge">
<title>Node6&#45;&gt;Node1</title>
<path fill="none" stroke="#191970" d="M391.5441,-334.2118C454.0449,-324.8915 546,-299.3157 546,-229.5 546,-229.5 546,-229.5 546,-174.5 546,-117.6832 480.5673,-89.5124 427.7412,-76.0273"/>
<polygon fill="#191970" stroke="#191970" points="428.248,-72.549 417.7054,-73.5993 426.6019,-79.3528 428.248,-72.549"/>
</g>
<!-- Node6&#45;&gt;Node2 -->
<g id="edge22" class="edge">
<title>Node6&#45;&gt;Node2</title>
<path fill="none" stroke="#191970" d="M278.4265,-334.1561C234.4564,-328.4206 172.7793,-316.8461 123,-294 79.8995,-274.2191 38,-276.923 38,-229.5 38,-229.5 38,-229.5 38,-119.5 38,-65.2274 101.0004,-35.8668 148.4256,-21.4535"/>
<polygon fill="#191970" stroke="#191970" points="149.6483,-24.7434 158.281,-18.6012 147.7021,-18.0193 149.6483,-24.7434"/>
</g>
<!-- Node7 -->
<g id="node8" class="node">
<title>Node7</title>
<g id="a_node8"><a xlink:href="propagation_8h.html" target="_top" xlink:title="opentracing&#45;c/propagation.h">
<polygon fill="#ffffff" stroke="#000000" points="131.7344,-275.5 131.7344,-293.5 272.2656,-293.5 272.2656,-275.5 131.7344,-275.5"/>
<text text-anchor="middle" x="202" y="-281.5" font-family="Helvetica,sans-Serif" font-size="10.00" fill="#000000">opentracing&#45;c/propagation.h</text>
</a>
</g>
</g>
<!-- Node6&#45;&gt;Node7 -->
<g id="edge10" class="edge">
<title>Node6&#45;&gt;Node7</title>
<path fill="none" stroke="#191970" d="M313.0378,-330.4179C291.2828,-321.4215 257.7586,-307.5581 233.236,-297.4172"/>
<polygon fill="#191970" stroke="#191970" points="234.5734,-294.1828 223.9949,-293.5956 231.8984,-300.6515 234.5734,-294.1828"/>
</g>
<!-- Node8 -->
<g id="node9" class="node">
<title>Node8</title>
<g id="a_node9"><a xlink:href="span_8h.html" target="_top" xlink:title="opentracing&#45;c/span.h">
<polygon fill="#ffffff" stroke="#000000" points="280.3032,-220.5 280.3032,-238.5 389.6968,-238.5 389.6968,-220.5 280.3032,-220.5"/>
<text text-anchor="middle" x="335" y="-226.5" font-family="Helvetica,sans-Serif" font-size="10.00" fill="#000000">opentracing&#45;c/span.h</text>
</a>
</g>
</g>
<!-- Node6&#45;&gt;Node8 -->
<g id="edge21" class="edge">
<title>Node6&#45;&gt;Node8</title>
<path fill="none" stroke="#191970" d="M335,-330.4982C335,-312.6913 335,-272.6225 335,-248.6515"/>
<polygon fill="#191970" stroke="#191970" points="338.5001,-248.6261 335,-238.6261 331.5001,-248.6262 338.5001,-248.6261"/>
</g>
<!-- Node7&#45;&gt;Node1 -->
<g id="edge11" class="edge">
<title>Node7&#45;&gt;Node1</title>
<path fill="none" stroke="#191970" d="M199.6355,-275.2596C194.8098,-254.4327 185.6746,-202.7045 203,-165 224.4943,-118.2228 279.8081,-90.9463 319.1399,-76.8915"/>
<polygon fill="#191970" stroke="#191970" points="320.4359,-80.1474 328.7649,-73.5993 318.1703,-73.5242 320.4359,-80.1474"/>
</g>
<!-- Node7&#45;&gt;Node4 -->
<g id="edge12" class="edge">
<title>Node7&#45;&gt;Node4</title>
<path fill="none" stroke="#191970" d="M194.3001,-275.239C187.2313,-266.3803 176.846,-252.42 170,-239 152.7911,-205.2661 140.1453,-162.6784 133.7354,-138.5241"/>
<polygon fill="#191970" stroke="#191970" points="137.0486,-137.355 131.1657,-128.5434 130.2696,-139.1003 137.0486,-137.355"/>
</g>
<!-- Node7&#45;&gt;Node8 -->
<g id="edge13" class="edge">
<title>Node7&#45;&gt;Node8</title>
<path fill="none" stroke="#191970" d="M223.9622,-275.4179C245.7172,-266.4215 279.2414,-252.5581 303.764,-242.4172"/>
<polygon fill="#191970" stroke="#191970" points="305.1016,-245.6515 313.0051,-238.5956 302.4266,-239.1828 305.1016,-245.6515"/>
</g>
<!-- Node8&#45;&gt;Node1 -->
<g id="edge14" class="edge">
<title>Node8&#45;&gt;Node1</title>
<path fill="none" stroke="#191970" d="M336.529,-220.1561C340.8172,-193.9504 353.0236,-119.3557 358.8415,-83.8021"/>
<polygon fill="#191970" stroke="#191970" points="362.3269,-84.1754 360.4878,-73.7414 355.4187,-83.0449 362.3269,-84.1754"/>
</g>
<!-- Node9 -->
<g id="node10" class="node">
<title>Node9</title>
<g id="a_node10"><a xlink:href="destructible_8h.html" target="_top" xlink:title="opentracing&#45;c/destructible.h">
<polygon fill="#ffffff" stroke="#000000" points="379.5767,-165.5 379.5767,-183.5 518.4233,-183.5 518.4233,-165.5 379.5767,-165.5"/>
<text text-anchor="middle" x="449" y="-171.5" font-family="Helvetica,sans-Serif" font-size="10.00" fill="#000000">opentracing&#45;c/destructible.h</text>
</a>
</g>
</g>
<!-- Node8&#45;&gt;Node9 -->
<g id="edge15" class="edge">
<title>Node8&#45;&gt;Node9</title>
<path fill="none" stroke="#191970" d="M353.8248,-220.4179C372.1418,-211.5807 400.1929,-198.0473 421.103,-187.9591"/>
<polygon fill="#191970" stroke="#191970" points="422.6615,-191.0933 430.1473,-183.5956 419.6198,-184.7887 422.6615,-191.0933"/>
</g>
<!-- Node10 -->
<g id="node11" class="node">
<title>Node10</title>
<g id="a_node11"><a xlink:href="value_8h.html" target="_top" xlink:title="opentracing&#45;c/value.h">
<polygon fill="#ffffff" stroke="#000000" points="212.1924,-165.5 212.1924,-183.5 323.8076,-183.5 323.8076,-165.5 212.1924,-165.5"/>
<text text-anchor="middle" x="268" y="-171.5" font-family="Helvetica,sans-Serif" font-size="10.00" fill="#000000">opentracing&#45;c/value.h</text>
</a>
</g>
</g>
<!-- Node8&#45;&gt;Node10 -->
<g id="edge17" class="edge">
<title>Node8&#45;&gt;Node10</title>
<path fill="none" stroke="#191970" d="M323.9363,-220.4179C314.0067,-212.2667 299.21,-200.1201 287.3288,-190.3669"/>
<polygon fill="#191970" stroke="#191970" points="289.2541,-187.4192 279.3041,-183.7795 284.8126,-192.8297 289.2541,-187.4192"/>
</g>
<!-- Node9&#45;&gt;Node1 -->
<g id="edge16" class="edge">
<title>Node9&#45;&gt;Node1</title>
<path fill="none" stroke="#191970" d="M441.8804,-165.4982C427.4144,-147.2079 394.3722,-105.4304 375.6317,-81.7354"/>
<polygon fill="#191970" stroke="#191970" points="378.1665,-79.2983 369.2179,-73.6261 372.6762,-83.6407 378.1665,-79.2983"/>
</g>
<!-- Node10&#45;&gt;Node1 -->
<g id="edge20" class="edge">
<title>Node10&#45;&gt;Node1</title>
<path fill="none" stroke="#191970" d="M266.8306,-165.2349C265.6383,-151.7993 265.3583,-126.693 277,-110 287.4851,-94.9654 304.5534,-84.4677 320.6542,-77.3764"/>
<polygon fill="#191970" stroke="#191970" points="322.0228,-80.5983 329.9652,-73.5863 319.3836,-74.1148 322.0228,-80.5983"/>
</g>
<!-- Node10&#45;&gt;Node4 -->
<g id="edge19" class="edge">
<title>Node10&#45;&gt;Node4</title>
<path fill="none" stroke="#191970" d="M245.047,-165.4179C222.21,-156.3817 186.9637,-142.4353 161.3055,-132.2828"/>
<polygon fill="#191970" stroke="#191970" points="162.5734,-129.0205 151.9871,-128.5956 159.9979,-135.5295 162.5734,-129.0205"/>
</g>
<!-- Node11 -->
<g id="node12" class="node">
<title>Node11</title>
<polygon fill="#ffffff" stroke="#bfbfbf" points="285.8794,-110.5 285.8794,-128.5 334.1206,-128.5 334.1206,-110.5 285.8794,-110.5"/>
<text text-anchor="middle" x="310" y="-116.5" font-family="Helvetica,sans-Serif" font-size="10.00" fill="#000000">stdint.h</text>
</g>
<!-- Node10&#45;&gt;Node11 -->
<g id="edge18" class="edge">
<title>Node10&#45;&gt;Node11</title>
<path fill="none" stroke="#191970" d="M274.9354,-165.4179C280.8578,-157.6624 289.5422,-146.29 296.7864,-136.8035"/>
<polygon fill="#191970" stroke="#191970" points="299.6264,-138.8514 302.9139,-128.7795 294.063,-134.6029 299.6264,-138.8514"/>
</g>
</g>
</svg>
