<?xml version="1.0" encoding="UTF-8" standalone="no"?>
<!DOCTYPE svg PUBLIC "-//W3C//DTD SVG 1.1//EN"
 "http://www.w3.org/Graphics/SVG/1.1/DTD/svg11.dtd">
<!-- Generated by graphviz version 2.40.1 (20161225.0304)
 -->
<!-- Title: Graphical Class Hierarchy Pages: 1 -->
<svg width="470pt" height="289pt"
 viewBox="0.00 0.00 470.47 289.00" xmlns="http://www.w3.org/2000/svg" xmlns:xlink="http://www.w3.org/1999/xlink">
<g id="graph0" class="graph" transform="scale(1 1) rotate(0) translate(4 285)">
<title>Graphical Class Hierarchy</title>
<polygon fill="#ffffff" stroke="transparent" points="-4,4 -4,-285 466.4707,-285 466.4707,4 -4,4"/>
<!-- Node0 -->
<g id="node1" class="node">
<title>Node0</title>
<g id="a_node1"><a xlink:href="structopentracing__destructible.html" target="_top" xlink:title="Destructible interface. ">
<polygon fill="#ffffff" stroke="#000000" points="0,-131.5 0,-149.5 124.96,-149.5 124.96,-131.5 0,-131.5"/>
<text text-anchor="middle" x="62.48" y="-137.5" font-family="Helvetica,sans-Serif" font-size="10.00" fill="#000000">opentracing_destructible</text>
</a>
</g>
</g>
<!-- Node1 -->
<g id="node2" class="node">
<title>Node1</title>
<g id="a_node2"><a xlink:href="structopentracing__custom__carrier__reader.html" target="_top" xlink:title="extract() carrier for a custom format. ">
<polygon fill="#ffffff" stroke="#000000" points="174.5879,-252.5 174.5879,-280.5 280.6416,-280.5 280.6416,-252.5 174.5879,-252.5"/>
<text text-anchor="start" x="182.5879" y="-268.5" font-family="Helvetica,sans-Serif" font-size="10.00" fill="#000000">opentracing_custom</text>
<text text-anchor="middle" x="227.6147" y="-258.5" font-family="Helvetica,sans-Serif" font-size="10.00" fill="#000000">_carrier_reader</text>
</a>
</g>
</g>
<!-- Node0&#45;&gt;Node1 -->
<g id="edge1" class="edge">
<title>Node0&#45;&gt;Node1</title>
<path fill="none" stroke="#191970" d="M74.8997,-157.93C91.9111,-180.6263 124.531,-220.1477 160.96,-243.5 166.216,-246.8693 172.0232,-249.8089 177.9534,-252.3564"/>
<polygon fill="#191970" stroke="#191970" points="77.5233,-155.589 68.7881,-149.5934 71.8778,-159.7277 77.5233,-155.589"/>
</g>
<!-- Node2 -->
<g id="node3" class="node">
<title>Node2</title>
<g id="a_node3"><a xlink:href="structopentracing__custom__carrier__writer.html" target="_top" xlink:title="inject() carrier for a custom format. ">
<polygon fill="#ffffff" stroke="#000000" points="174.5879,-205.5 174.5879,-233.5 280.6416,-233.5 280.6416,-205.5 174.5879,-205.5"/>
<text text-anchor="start" x="182.5879" y="-221.5" font-family="Helvetica,sans-Serif" font-size="10.00" fill="#000000">opentracing_custom</text>
<text text-anchor="middle" x="227.6147" y="-211.5" font-family="Helvetica,sans-Serif" font-size="10.00" fill="#000000">_carrier_writer</text>
</a>
</g>
</g>
<!-- Node0&#45;&gt;Node2 -->
<g id="edge2" class="edge">
<title>Node0&#45;&gt;Node2</title>
<path fill="none" stroke="#191970" d="M84.9049,-154.8411C104.4698,-166.9622 133.8856,-184.2578 160.96,-196.5 167.9872,-199.6775 175.5924,-202.684 183.0656,-205.4112"/>
<polygon fill="#191970" stroke="#191970" points="86.7316,-151.8553 76.3991,-149.5121 83.0151,-157.7873 86.7316,-151.8553"/>
</g>
<!-- Node3 -->
<g id="node4" class="node">
<title>Node3</title>
<g id="a_node4"><a xlink:href="structopentracing__span.html" target="_top" xlink:title="Span interface. ">
<polygon fill="#ffffff" stroke="#000000" points="179.8613,-168.5 179.8613,-186.5 275.3682,-186.5 275.3682,-168.5 179.8613,-168.5"/>
<text text-anchor="middle" x="227.6147" y="-174.5" font-family="Helvetica,sans-Serif" font-size="10.00" fill="#000000">opentracing_span</text>
</a>
</g>
</g>
<!-- Node0&#45;&gt;Node3 -->
<g id="edge3" class="edge">
<title>Node0&#45;&gt;Node3</title>
<path fill="none" stroke="#191970" d="M112.8282,-151.781C136.727,-157.1357 164.8971,-163.4475 187.3494,-168.4782"/>
<polygon fill="#191970" stroke="#191970" points="113.3998,-148.3224 102.8765,-149.5512 111.8693,-155.153 113.3998,-148.3224"/>
</g>
<!-- Node4 -->
<g id="node5" class="node">
<title>Node4</title>
<g id="a_node5"><a xlink:href="structopentracing__span__context.html" target="_top" xlink:title="Span context interface. ">
<polygon fill="#ffffff" stroke="#000000" points="160.96,-131.5 160.96,-149.5 294.2695,-149.5 294.2695,-131.5 160.96,-131.5"/>
<text text-anchor="middle" x="227.6147" y="-137.5" font-family="Helvetica,sans-Serif" font-size="10.00" fill="#000000">opentracing_span_context</text>
</a>
</g>
</g>
<!-- Node0&#45;&gt;Node4 -->
<g id="edge4" class="edge">
<title>Node0&#45;&gt;Node4</title>
<path fill="none" stroke="#191970" d="M135.5331,-140.5C143.9293,-140.5 152.4584,-140.5 160.767,-140.5"/>
<polygon fill="#191970" stroke="#191970" points="135.3815,-137.0001 125.3814,-140.5 135.3814,-144.0001 135.3815,-137.0001"/>
</g>
<!-- Node5 -->
<g id="node6" class="node">
<title>Node5</title>
<g id="a_node6"><a xlink:href="structopentracing__text__map__reader.html" target="_top" xlink:title="The extract() carrier for the opentracing_propagation_format_text_map with it, the caller can decode ...">
<polygon fill="#ffffff" stroke="#000000" points="170.1372,-84.5 170.1372,-112.5 285.0923,-112.5 285.0923,-84.5 170.1372,-84.5"/>
<text text-anchor="start" x="178.1372" y="-100.5" font-family="Helvetica,sans-Serif" font-size="10.00" fill="#000000">opentracing_text_map</text>
<text text-anchor="middle" x="227.6147" y="-90.5" font-family="Helvetica,sans-Serif" font-size="10.00" fill="#000000">_reader</text>
</a>
</g>
</g>
<!-- Node0&#45;&gt;Node5 -->
<g id="edge5" class="edge">
<title>Node0&#45;&gt;Node5</title>
<path fill="none" stroke="#191970" d="M107.6942,-129.0003C127.6937,-123.9137 151.3978,-117.8848 172.4291,-112.5358"/>
<polygon fill="#191970" stroke="#191970" points="106.7342,-125.633 97.9055,-131.4899 108.4597,-132.417 106.7342,-125.633"/>
</g>
<!-- Node7 -->
<g id="node8" class="node">
<title>Node7</title>
<g id="a_node8"><a xlink:href="structopentracing__text__map__writer.html" target="_top" xlink:title="The inject carrier for the opentracing_propagation_format_text_map. ">
<polygon fill="#ffffff" stroke="#000000" points="170.1372,-37.5 170.1372,-65.5 285.0923,-65.5 285.0923,-37.5 170.1372,-37.5"/>
<text text-anchor="start" x="178.1372" y="-53.5" font-family="Helvetica,sans-Serif" font-size="10.00" fill="#000000">opentracing_text_map</text>
<text text-anchor="middle" x="227.6147" y="-43.5" font-family="Helvetica,sans-Serif" font-size="10.00" fill="#000000">_writer</text>
</a>
</g>
</g>
<!-- Node0&#45;&gt;Node7 -->
<g id="edge7" class="edge">
<title>Node0&#45;&gt;Node7</title>
<path fill="none" stroke="#191970" d="M82.3859,-125.3096C101.6956,-111.0806 132.2125,-89.9045 160.96,-75.5 168.2174,-71.8635 176.1631,-68.5069 183.9597,-65.5275"/>
<polygon fill="#191970" stroke="#191970" points="80.2689,-122.5222 74.3492,-131.3091 84.4564,-128.1317 80.2689,-122.5222"/>
</g>
<!-- Node9 -->
<g id="node10" class="node">
<title>Node9</title>
<g id="a_node10"><a xlink:href="structopentracing__tracer.html" target="_top" xlink:title="Tracer interface. ">
<polygon fill="#ffffff" stroke="#000000" points="177.9229,-.5 177.9229,-18.5 277.3066,-18.5 277.3066,-.5 177.9229,-.5"/>
<text text-anchor="middle" x="227.6147" y="-6.5" font-family="Helvetica,sans-Serif" font-size="10.00" fill="#000000">opentracing_tracer</text>
</a>
</g>
</g>
<!-- Node0&#45;&gt;Node9 -->
<g id="edge9" class="edge">
<title>Node0&#45;&gt;Node9</title>
<path fill="none" stroke="#191970" d="M73.3965,-122.6382C89.4885,-97.8159 121.9286,-53.1677 160.96,-28.5 167.4699,-24.3857 174.8908,-21.1411 182.3603,-18.5884"/>
<polygon fill="#191970" stroke="#191970" points="70.2551,-121.0579 67.8752,-131.382 76.1738,-124.7953 70.2551,-121.0579"/>
</g>
<!-- Node6 -->
<g id="node7" class="node">
<title>Node6</title>
<g id="a_node7"><a xlink:href="structopentracing__http__headers__reader.html" target="_top" xlink:title="HTTP headers reader. ">
<polygon fill="#ffffff" stroke="#000000" points="330.2695,-84.5 330.2695,-112.5 462.4707,-112.5 462.4707,-84.5 330.2695,-84.5"/>
<text text-anchor="start" x="338.2695" y="-100.5" font-family="Helvetica,sans-Serif" font-size="10.00" fill="#000000">opentracing_http_headers</text>
<text text-anchor="middle" x="396.3701" y="-90.5" font-family="Helvetica,sans-Serif" font-size="10.00" fill="#000000">_reader</text>
</a>
</g>
</g>
<!-- Node5&#45;&gt;Node6 -->
<g id="edge6" class="edge">
<title>Node5&#45;&gt;Node6</title>
<path fill="none" stroke="#191970" d="M295.5231,-98.5C306.8978,-98.5 318.6879,-98.5 330.0227,-98.5"/>
<polygon fill="#191970" stroke="#191970" points="295.2188,-95.0001 285.2188,-98.5 295.2187,-102.0001 295.2188,-95.0001"/>
</g>
<!-- Node8 -->
<g id="node9" class="node">
<title>Node8</title>
<g id="a_node9"><a xlink:href="structopentracing__http__headers__writer.html" target="_top" xlink:title="HTTP headers writer. ">
<polygon fill="#ffffff" stroke="#000000" points="330.2695,-37.5 330.2695,-65.5 462.4707,-65.5 462.4707,-37.5 330.2695,-37.5"/>
<text text-anchor="start" x="338.2695" y="-53.5" font-family="Helvetica,sans-Serif" font-size="10.00" fill="#000000">opentracing_http_headers</text>
<text text-anchor="middle" x="396.3701" y="-43.5" font-family="Helvetica,sans-Serif" font-size="10.00" fill="#000000">_writer</text>
</a>
</g>
</g>
<!-- Node7&#45;&gt;Node8 -->
<g id="edge8" class="edge">
<title>Node7&#45;&gt;Node8</title>
<path fill="none" stroke="#191970" d="M295.5231,-51.5C306.8978,-51.5 318.6879,-51.5 330.0227,-51.5"/>
<polygon fill="#191970" stroke="#191970" points="295.2188,-48.0001 285.2188,-51.5 295.2187,-55.0001 295.2188,-48.0001"/>
</g>
</g>
</svg>
