<?xml version="1.0" encoding="UTF-8" standalone="no"?>
<!DOCTYPE svg PUBLIC "-//W3C//DTD SVG 1.1//EN"
 "http://www.w3.org/Graphics/SVG/1.1/DTD/svg11.dtd">
<!-- Generated by graphviz version 2.40.1 (20161225.0304)
 -->
<!-- Title: opentracing&#45;c/propagation.h Pages: 1 -->
<svg width="149pt" height="212pt"
 viewBox="0.00 0.00 148.53 212.00" xmlns="http://www.w3.org/2000/svg" xmlns:xlink="http://www.w3.org/1999/xlink">
<g id="graph0" class="graph" transform="scale(1 1) rotate(0) translate(4 208)">
<title>opentracing&#45;c/propagation.h</title>
<polygon fill="#ffffff" stroke="transparent" points="-4,4 -4,-208 144.5313,-208 144.5313,4 -4,4"/>
<!-- Node9 -->
<g id="node1" class="node">
<title>Node9</title>
<polygon fill="#bfbfbf" stroke="#000000" points="0,-185.5 0,-203.5 140.5313,-203.5 140.5313,-185.5 0,-185.5"/>
<text text-anchor="middle" x="70.2656" y="-191.5" font-family="Helvetica,sans-Serif" font-size="10.00" fill="#000000">opentracing&#45;c/propagation.h</text>
</g>
<!-- Node10 -->
<g id="node2" class="node">
<title>Node10</title>
<g id="a_node2"><a xlink:href="tracer_8h.html" target="_top" xlink:title="opentracing&#45;c/tracer.h">
<polygon fill="#ffffff" stroke="#000000" points="13.9038,-130.5 13.9038,-148.5 126.6274,-148.5 126.6274,-130.5 13.9038,-130.5"/>
<text text-anchor="middle" x="70.2656" y="-136.5" font-family="Helvetica,sans-Serif" font-size="10.00" fill="#000000">opentracing&#45;c/tracer.h</text>
</a>
</g>
</g>
<!-- Node9&#45;&gt;Node10 -->
<g id="edge1" class="edge">
<title>Node9&#45;&gt;Node10</title>
<path fill="none" stroke="#191970" d="M70.2656,-175.383C70.2656,-166.3738 70.2656,-156.0373 70.2656,-148.7795"/>
<polygon fill="#191970" stroke="#191970" points="66.7657,-175.4178 70.2656,-185.4179 73.7657,-175.4179 66.7657,-175.4178"/>
</g>
<!-- Node11 -->
<g id="node3" class="node">
<title>Node11</title>
<g id="a_node3"><a xlink:href="tracer__factory_8h.html" target="_top" xlink:title="opentracing&#45;c/tracer\l_factory.h">
<polygon fill="#ffffff" stroke="#000000" points="17.8003,-65.5 17.8003,-93.5 122.731,-93.5 122.731,-65.5 17.8003,-65.5"/>
<text text-anchor="start" x="25.8003" y="-81.5" font-family="Helvetica,sans-Serif" font-size="10.00" fill="#000000">opentracing&#45;c/tracer</text>
<text text-anchor="middle" x="70.2656" y="-71.5" font-family="Helvetica,sans-Serif" font-size="10.00" fill="#000000">_factory.h</text>
</a>
</g>
</g>
<!-- Node10&#45;&gt;Node11 -->
<g id="edge2" class="edge">
<title>Node10&#45;&gt;Node11</title>
<path fill="none" stroke="#191970" d="M70.2656,-120.1865C70.2656,-111.6283 70.2656,-101.7354 70.2656,-93.8477"/>
<polygon fill="#191970" stroke="#191970" points="66.7657,-120.3873 70.2656,-130.3873 73.7657,-120.3873 66.7657,-120.3873"/>
</g>
<!-- Node12 -->
<g id="node4" class="node">
<title>Node12</title>
<g id="a_node4"><a xlink:href="dynamic__load_8h.html" target="_top" xlink:title="opentracing&#45;c/dynamic\l_load.h">
<polygon fill="#ffffff" stroke="#000000" points="11.9629,-.5 11.9629,-28.5 128.5684,-28.5 128.5684,-.5 11.9629,-.5"/>
<text text-anchor="start" x="19.9629" y="-16.5" font-family="Helvetica,sans-Serif" font-size="10.00" fill="#000000">opentracing&#45;c/dynamic</text>
<text text-anchor="middle" x="70.2656" y="-6.5" font-family="Helvetica,sans-Serif" font-size="10.00" fill="#000000">_load.h</text>
</a>
</g>
</g>
<!-- Node11&#45;&gt;Node12 -->
<g id="edge3" class="edge">
<title>Node11&#45;&gt;Node12</title>
<path fill="none" stroke="#191970" d="M70.2656,-55.1081C70.2656,-46.1539 70.2656,-36.3227 70.2656,-28.5765"/>
<polygon fill="#191970" stroke="#191970" points="66.7657,-55.3959 70.2656,-65.396 73.7657,-55.396 66.7657,-55.3959"/>
</g>
</g>
</svg>
