<?xml version="1.0" encoding="UTF-8" standalone="no"?>
<!DOCTYPE svg PUBLIC "-//W3C//DTD SVG 1.1//EN"
 "http://www.w3.org/Graphics/SVG/1.1/DTD/svg11.dtd">
<!-- Generated by graphviz version 2.40.1 (20161225.0304)
 -->
<!-- Title: opentracing&#45;c/propagation.h Pages: 1 -->
<svg width="443pt" height="302pt"
 viewBox="0.00 0.00 442.85 302.00" xmlns="http://www.w3.org/2000/svg" xmlns:xlink="http://www.w3.org/1999/xlink">
<g id="graph0" class="graph" transform="scale(1 1) rotate(0) translate(4 298)">
<title>opentracing&#45;c/propagation.h</title>
<polygon fill="#ffffff" stroke="transparent" points="-4,4 -4,-298 438.8478,-298 438.8478,4 -4,4"/>
<!-- Node0 -->
<g id="node1" class="node">
<title>Node0</title>
<polygon fill="#bfbfbf" stroke="#000000" points="182.7612,-275.5 182.7612,-293.5 323.2925,-293.5 323.2925,-275.5 182.7612,-275.5"/>
<text text-anchor="middle" x="253.0269" y="-281.5" font-family="Helvetica,sans-Serif" font-size="10.00" fill="#000000">opentracing&#45;c/propagation.h</text>
</g>
<!-- Node1 -->
<g id="node2" class="node">
<title>Node1</title>
<g id="a_node2"><a xlink:href="config_8h.html" target="_top" xlink:title="opentracing&#45;c/config.h">
<polygon fill="#ffffff" stroke="#000000" points="200.8301,-55.5 200.8301,-73.5 315.2236,-73.5 315.2236,-55.5 200.8301,-55.5"/>
<text text-anchor="middle" x="258.0269" y="-61.5" font-family="Helvetica,sans-Serif" font-size="10.00" fill="#000000">opentracing&#45;c/config.h</text>
</a>
</g>
</g>
<!-- Node0&#45;&gt;Node1 -->
<g id="edge1" class="edge">
<title>Node0&#45;&gt;Node1</title>
<path fill="none" stroke="#191970" d="M289.2739,-275.435C331.2031,-262.7898 398.275,-235.395 428.0269,-184 459.7861,-129.1373 367.8523,-93.2884 307.0676,-76.1994"/>
<polygon fill="#191970" stroke="#191970" points="307.8007,-72.7716 297.2323,-73.5197 305.9605,-79.5254 307.8007,-72.7716"/>
</g>
<!-- Node3 -->
<g id="node4" class="node">
<title>Node3</title>
<g id="a_node4"><a xlink:href="common_8h.html" target="_top" xlink:title="opentracing&#45;c/common.h">
<polygon fill="#ffffff" stroke="#000000" points="0,-110.5 0,-128.5 126.0537,-128.5 126.0537,-110.5 0,-110.5"/>
<text text-anchor="middle" x="63.0269" y="-116.5" font-family="Helvetica,sans-Serif" font-size="10.00" fill="#000000">opentracing&#45;c/common.h</text>
</a>
</g>
</g>
<!-- Node0&#45;&gt;Node3 -->
<g id="edge3" class="edge">
<title>Node0&#45;&gt;Node3</title>
<path fill="none" stroke="#191970" d="M231.0347,-275.4102C197.5924,-260.632 133.6627,-228.5067 94.0269,-184 82.2911,-170.8221 74.0354,-152.4126 69.0105,-138.633"/>
<polygon fill="#191970" stroke="#191970" points="72.1909,-137.1123 65.6687,-128.763 65.5607,-139.3573 72.1909,-137.1123"/>
</g>
<!-- Node5 -->
<g id="node6" class="node">
<title>Node5</title>
<g id="a_node6"><a xlink:href="span_8h.html" target="_top" xlink:title="opentracing&#45;c/span.h">
<polygon fill="#ffffff" stroke="#000000" points="198.3301,-220.5 198.3301,-238.5 307.7236,-238.5 307.7236,-220.5 198.3301,-220.5"/>
<text text-anchor="middle" x="253.0269" y="-226.5" font-family="Helvetica,sans-Serif" font-size="10.00" fill="#000000">opentracing&#45;c/span.h</text>
</a>
</g>
</g>
<!-- Node0&#45;&gt;Node5 -->
<g id="edge6" class="edge">
<title>Node0&#45;&gt;Node5</title>
<path fill="none" stroke="#191970" d="M253.0269,-275.4179C253.0269,-268.2164 253.0269,-257.8962 253.0269,-248.8632"/>
<polygon fill="#191970" stroke="#191970" points="256.527,-248.7794 253.0269,-238.7795 249.527,-248.7795 256.527,-248.7794"/>
</g>
<!-- Node2 -->
<g id="node3" class="node">
<title>Node2</title>
<g id="a_node3"><a xlink:href="visibility_8h_source.html" target="_top" xlink:title="opentracing&#45;c/visibility.h">
<polygon fill="#ffffff" stroke="#000000" points="197.3169,-.5 197.3169,-18.5 318.7368,-18.5 318.7368,-.5 197.3169,-.5"/>
<text text-anchor="middle" x="258.0269" y="-6.5" font-family="Helvetica,sans-Serif" font-size="10.00" fill="#000000">opentracing&#45;c/visibility.h</text>
</a>
</g>
</g>
<!-- Node1&#45;&gt;Node2 -->
<g id="edge2" class="edge">
<title>Node1&#45;&gt;Node2</title>
<path fill="none" stroke="#191970" d="M258.0269,-55.4179C258.0269,-48.2164 258.0269,-37.8962 258.0269,-28.8632"/>
<polygon fill="#191970" stroke="#191970" points="261.527,-28.7794 258.0269,-18.7795 254.527,-28.7795 261.527,-28.7794"/>
</g>
<!-- Node3&#45;&gt;Node1 -->
<g id="edge4" class="edge">
<title>Node3&#45;&gt;Node1</title>
<path fill="none" stroke="#191970" d="M95.2271,-110.4179C128.3514,-101.0751 180.0857,-86.4834 216.3217,-76.263"/>
<polygon fill="#191970" stroke="#191970" points="217.4285,-79.5875 226.1028,-73.5042 215.5282,-72.8503 217.4285,-79.5875"/>
</g>
<!-- Node4 -->
<g id="node5" class="node">
<title>Node4</title>
<polygon fill="#ffffff" stroke="#bfbfbf" points="41.4111,-55.5 41.4111,-73.5 84.6426,-73.5 84.6426,-55.5 41.4111,-55.5"/>
<text text-anchor="middle" x="63.0269" y="-61.5" font-family="Helvetica,sans-Serif" font-size="10.00" fill="#000000">time.h</text>
</g>
<!-- Node3&#45;&gt;Node4 -->
<g id="edge5" class="edge">
<title>Node3&#45;&gt;Node4</title>
<path fill="none" stroke="#191970" d="M63.0269,-110.4179C63.0269,-103.2164 63.0269,-92.8962 63.0269,-83.8632"/>
<polygon fill="#191970" stroke="#191970" points="66.527,-83.7794 63.0269,-73.7795 59.527,-83.7795 66.527,-83.7794"/>
</g>
<!-- Node5&#45;&gt;Node1 -->
<g id="edge7" class="edge">
<title>Node5&#45;&gt;Node1</title>
<path fill="none" stroke="#191970" d="M253.31,-220.1561C254.1041,-193.9504 256.3646,-119.3557 257.4419,-83.8021"/>
<polygon fill="#191970" stroke="#191970" points="260.9422,-83.8429 257.7468,-73.7414 253.9454,-83.6308 260.9422,-83.8429"/>
</g>
<!-- Node6 -->
<g id="node7" class="node">
<title>Node6</title>
<g id="a_node7"><a xlink:href="destructible_8h.html" target="_top" xlink:title="opentracing&#45;c/destructible.h">
<polygon fill="#ffffff" stroke="#000000" points="280.6035,-165.5 280.6035,-183.5 419.4502,-183.5 419.4502,-165.5 280.6035,-165.5"/>
<text text-anchor="middle" x="350.0269" y="-171.5" font-family="Helvetica,sans-Serif" font-size="10.00" fill="#000000">opentracing&#45;c/destructible.h</text>
</a>
</g>
</g>
<!-- Node5&#45;&gt;Node6 -->
<g id="edge8" class="edge">
<title>Node5&#45;&gt;Node6</title>
<path fill="none" stroke="#191970" d="M269.0444,-220.4179C284.2088,-211.8195 307.2139,-198.7754 324.8343,-188.7844"/>
<polygon fill="#191970" stroke="#191970" points="327.0129,-191.5727 333.9855,-183.5956 323.5602,-185.4834 327.0129,-191.5727"/>
</g>
<!-- Node7 -->
<g id="node8" class="node">
<title>Node7</title>
<g id="a_node8"><a xlink:href="value_8h.html" target="_top" xlink:title="opentracing&#45;c/value.h">
<polygon fill="#ffffff" stroke="#000000" points="103.2192,-165.5 103.2192,-183.5 214.8345,-183.5 214.8345,-165.5 103.2192,-165.5"/>
<text text-anchor="middle" x="159.0269" y="-171.5" font-family="Helvetica,sans-Serif" font-size="10.00" fill="#000000">opentracing&#45;c/value.h</text>
</a>
</g>
</g>
<!-- Node5&#45;&gt;Node7 -->
<g id="edge10" class="edge">
<title>Node5&#45;&gt;Node7</title>
<path fill="none" stroke="#191970" d="M237.5047,-220.4179C222.8093,-211.8195 200.5157,-198.7754 183.4402,-188.7844"/>
<polygon fill="#191970" stroke="#191970" points="184.9708,-185.6249 174.5721,-183.5956 181.4357,-191.6667 184.9708,-185.6249"/>
</g>
<!-- Node6&#45;&gt;Node1 -->
<g id="edge9" class="edge">
<title>Node6&#45;&gt;Node1</title>
<path fill="none" stroke="#191970" d="M342.4981,-165.4982C327.1333,-147.1273 291.9513,-105.0619 272.1809,-81.4233"/>
<polygon fill="#191970" stroke="#191970" points="274.76,-79.0515 265.6596,-73.6261 269.3904,-83.5424 274.76,-79.0515"/>
</g>
<!-- Node7&#45;&gt;Node1 -->
<g id="edge13" class="edge">
<title>Node7&#45;&gt;Node1</title>
<path fill="none" stroke="#191970" d="M158.7106,-165.1741C158.728,-151.6627 160.6016,-126.463 173.0269,-110 184.2375,-95.1463 201.7428,-84.6125 217.9607,-77.448"/>
<polygon fill="#191970" stroke="#191970" points="219.3824,-80.6479 227.3035,-73.6118 216.7235,-74.1725 219.3824,-80.6479"/>
</g>
<!-- Node7&#45;&gt;Node3 -->
<g id="edge12" class="edge">
<title>Node7&#45;&gt;Node3</title>
<path fill="none" stroke="#191970" d="M143.1744,-165.4179C128.1664,-156.8195 105.3984,-143.7754 87.9597,-133.7844"/>
<polygon fill="#191970" stroke="#191970" points="89.3196,-130.5299 78.9029,-128.5956 85.8398,-136.6037 89.3196,-130.5299"/>
</g>
<!-- Node8 -->
<g id="node9" class="node">
<title>Node8</title>
<polygon fill="#ffffff" stroke="#bfbfbf" points="181.9063,-110.5 181.9063,-128.5 230.1475,-128.5 230.1475,-110.5 181.9063,-110.5"/>
<text text-anchor="middle" x="206.0269" y="-116.5" font-family="Helvetica,sans-Serif" font-size="10.00" fill="#000000">stdint.h</text>
</g>
<!-- Node7&#45;&gt;Node8 -->
<g id="edge11" class="edge">
<title>Node7&#45;&gt;Node8</title>
<path fill="none" stroke="#191970" d="M166.7879,-165.4179C173.483,-157.5833 183.3322,-146.0575 191.4879,-136.5137"/>
<polygon fill="#191970" stroke="#191970" points="194.2614,-138.6556 198.0971,-128.7795 188.9398,-134.108 194.2614,-138.6556"/>
</g>
</g>
</svg>
