<?xml version="1.0" encoding="UTF-8" standalone="no"?>
<!DOCTYPE svg PUBLIC "-//W3C//DTD SVG 1.1//EN"
 "http://www.w3.org/Graphics/SVG/1.1/DTD/svg11.dtd">
<!-- Generated by graphviz version 2.40.1 (20161225.0304)
 -->
<!-- Title: opentracing&#45;c/span.h Pages: 1 -->
<svg width="346pt" height="247pt"
 viewBox="0.00 0.00 346.07 247.00" xmlns="http://www.w3.org/2000/svg" xmlns:xlink="http://www.w3.org/1999/xlink">
<g id="graph0" class="graph" transform="scale(1 1) rotate(0) translate(4 243)">
<title>opentracing&#45;c/span.h</title>
<polygon fill="#ffffff" stroke="transparent" points="-4,4 -4,-243 342.0671,-243 342.0671,4 -4,4"/>
<!-- Node0 -->
<g id="node1" class="node">
<title>Node0</title>
<polygon fill="#bfbfbf" stroke="#000000" points="25.3435,-220.5 25.3435,-238.5 134.737,-238.5 134.737,-220.5 25.3435,-220.5"/>
<text text-anchor="middle" x="80.0402" y="-226.5" font-family="Helvetica,sans-Serif" font-size="10.00" fill="#000000">opentracing&#45;c/span.h</text>
</g>
<!-- Node1 -->
<g id="node2" class="node">
<title>Node1</title>
<g id="a_node2"><a xlink:href="config_8h.html" target="_top" xlink:title="opentracing&#45;c/config.h">
<polygon fill="#ffffff" stroke="#000000" points="41.8435,-55.5 41.8435,-73.5 156.237,-73.5 156.237,-55.5 41.8435,-55.5"/>
<text text-anchor="middle" x="99.0402" y="-61.5" font-family="Helvetica,sans-Serif" font-size="10.00" fill="#000000">opentracing&#45;c/config.h</text>
</a>
</g>
</g>
<!-- Node0&#45;&gt;Node1 -->
<g id="edge1" class="edge">
<title>Node0&#45;&gt;Node1</title>
<path fill="none" stroke="#191970" d="M51.902,-220.4737C25.4469,-210.213 -8.6199,-191.395 2.0402,-165 17.0174,-127.9161 52.9577,-96.9011 76.6334,-79.5274"/>
<polygon fill="#191970" stroke="#191970" points="78.9154,-82.1995 85.0376,-73.5525 74.8593,-76.4943 78.9154,-82.1995"/>
</g>
<!-- Node3 -->
<g id="node4" class="node">
<title>Node3</title>
<g id="a_node4"><a xlink:href="destructible_8h.html" target="_top" xlink:title="opentracing&#45;c/destructible.h">
<polygon fill="#ffffff" stroke="#000000" points="10.6169,-165.5 10.6169,-183.5 149.4636,-183.5 149.4636,-165.5 10.6169,-165.5"/>
<text text-anchor="middle" x="80.0402" y="-171.5" font-family="Helvetica,sans-Serif" font-size="10.00" fill="#000000">opentracing&#45;c/destructible.h</text>
</a>
</g>
</g>
<!-- Node0&#45;&gt;Node3 -->
<g id="edge3" class="edge">
<title>Node0&#45;&gt;Node3</title>
<path fill="none" stroke="#191970" d="M80.0402,-220.4179C80.0402,-213.2164 80.0402,-202.8962 80.0402,-193.8632"/>
<polygon fill="#191970" stroke="#191970" points="83.5403,-193.7794 80.0402,-183.7795 76.5403,-193.7795 83.5403,-193.7794"/>
</g>
<!-- Node4 -->
<g id="node5" class="node">
<title>Node4</title>
<g id="a_node5"><a xlink:href="value_8h.html" target="_top" xlink:title="opentracing&#45;c/value.h">
<polygon fill="#ffffff" stroke="#000000" points="167.2326,-165.5 167.2326,-183.5 278.8479,-183.5 278.8479,-165.5 167.2326,-165.5"/>
<text text-anchor="middle" x="223.0402" y="-171.5" font-family="Helvetica,sans-Serif" font-size="10.00" fill="#000000">opentracing&#45;c/value.h</text>
</a>
</g>
</g>
<!-- Node0&#45;&gt;Node4 -->
<g id="edge5" class="edge">
<title>Node0&#45;&gt;Node4</title>
<path fill="none" stroke="#191970" d="M103.6538,-220.4179C127.1479,-211.3817 163.4085,-197.4353 189.805,-187.2828"/>
<polygon fill="#191970" stroke="#191970" points="191.3146,-190.4522 199.3916,-183.5956 188.8017,-183.9188 191.3146,-190.4522"/>
</g>
<!-- Node2 -->
<g id="node3" class="node">
<title>Node2</title>
<g id="a_node3"><a xlink:href="visibility_8h_source.html" target="_top" xlink:title="opentracing&#45;c/visibility.h">
<polygon fill="#ffffff" stroke="#000000" points="38.3303,-.5 38.3303,-18.5 159.7502,-18.5 159.7502,-.5 38.3303,-.5"/>
<text text-anchor="middle" x="99.0402" y="-6.5" font-family="Helvetica,sans-Serif" font-size="10.00" fill="#000000">opentracing&#45;c/visibility.h</text>
</a>
</g>
</g>
<!-- Node1&#45;&gt;Node2 -->
<g id="edge2" class="edge">
<title>Node1&#45;&gt;Node2</title>
<path fill="none" stroke="#191970" d="M99.0402,-55.4179C99.0402,-48.2164 99.0402,-37.8962 99.0402,-28.8632"/>
<polygon fill="#191970" stroke="#191970" points="102.5403,-28.7794 99.0402,-18.7795 95.5403,-28.7795 102.5403,-28.7794"/>
</g>
<!-- Node3&#45;&gt;Node1 -->
<g id="edge4" class="edge">
<title>Node3&#45;&gt;Node1</title>
<path fill="none" stroke="#191970" d="M81.5951,-165.4982C84.6708,-147.6913 91.5918,-107.6225 95.7323,-83.6515"/>
<polygon fill="#191970" stroke="#191970" points="99.2107,-84.076 97.4639,-73.6261 92.3128,-82.8845 99.2107,-84.076"/>
</g>
<!-- Node4&#45;&gt;Node1 -->
<g id="edge10" class="edge">
<title>Node4&#45;&gt;Node1</title>
<path fill="none" stroke="#191970" d="M197.7736,-165.4832C179.2941,-157.9267 154.5066,-145.6847 137.0402,-129 123.56,-116.123 113.2561,-97.427 106.8011,-83.4753"/>
<polygon fill="#191970" stroke="#191970" points="109.8331,-81.6723 102.6263,-73.9062 103.4171,-84.4715 109.8331,-81.6723"/>
</g>
<!-- Node5 -->
<g id="node6" class="node">
<title>Node5</title>
<polygon fill="#ffffff" stroke="#bfbfbf" points="145.9196,-110.5 145.9196,-128.5 194.1608,-128.5 194.1608,-110.5 145.9196,-110.5"/>
<text text-anchor="middle" x="170.0402" y="-116.5" font-family="Helvetica,sans-Serif" font-size="10.00" fill="#000000">stdint.h</text>
</g>
<!-- Node4&#45;&gt;Node5 -->
<g id="edge6" class="edge">
<title>Node4&#45;&gt;Node5</title>
<path fill="none" stroke="#191970" d="M214.2884,-165.4179C206.6624,-157.5041 195.4073,-145.8243 186.1572,-136.2251"/>
<polygon fill="#191970" stroke="#191970" points="188.4415,-133.5516 178.9823,-128.7795 183.4009,-138.4089 188.4415,-133.5516"/>
</g>
<!-- Node6 -->
<g id="node7" class="node">
<title>Node6</title>
<g id="a_node7"><a xlink:href="common_8h.html" target="_top" xlink:title="opentracing&#45;c/common.h">
<polygon fill="#ffffff" stroke="#000000" points="212.0134,-110.5 212.0134,-128.5 338.0671,-128.5 338.0671,-110.5 212.0134,-110.5"/>
<text text-anchor="middle" x="275.0402" y="-116.5" font-family="Helvetica,sans-Serif" font-size="10.00" fill="#000000">opentracing&#45;c/common.h</text>
</a>
</g>
</g>
<!-- Node4&#45;&gt;Node6 -->
<g id="edge7" class="edge">
<title>Node4&#45;&gt;Node6</title>
<path fill="none" stroke="#191970" d="M231.627,-165.4179C239.1091,-157.5041 250.1518,-145.8243 259.2274,-136.2251"/>
<polygon fill="#191970" stroke="#191970" points="261.9401,-138.4505 266.2669,-128.7795 256.8535,-133.6414 261.9401,-138.4505"/>
</g>
<!-- Node6&#45;&gt;Node1 -->
<g id="edge8" class="edge">
<title>Node6&#45;&gt;Node1</title>
<path fill="none" stroke="#191970" d="M245.9774,-110.4179C216.3362,-101.155 170.1841,-86.7325 137.5234,-76.526"/>
<polygon fill="#191970" stroke="#191970" points="138.4425,-73.1463 127.8537,-73.5042 136.3545,-79.8277 138.4425,-73.1463"/>
</g>
<!-- Node7 -->
<g id="node8" class="node">
<title>Node7</title>
<polygon fill="#ffffff" stroke="#bfbfbf" points="253.4245,-55.5 253.4245,-73.5 296.656,-73.5 296.656,-55.5 253.4245,-55.5"/>
<text text-anchor="middle" x="275.0402" y="-61.5" font-family="Helvetica,sans-Serif" font-size="10.00" fill="#000000">time.h</text>
</g>
<!-- Node6&#45;&gt;Node7 -->
<g id="edge9" class="edge">
<title>Node6&#45;&gt;Node7</title>
<path fill="none" stroke="#191970" d="M275.0402,-110.4179C275.0402,-103.2164 275.0402,-92.8962 275.0402,-83.8632"/>
<polygon fill="#191970" stroke="#191970" points="278.5403,-83.7794 275.0402,-73.7795 271.5403,-83.7795 278.5403,-83.7794"/>
</g>
</g>
</svg>
