<?xml version="1.0" encoding="UTF-8" standalone="no"?>
<!DOCTYPE svg PUBLIC "-//W3C//DTD SVG 1.1//EN"
 "http://www.w3.org/Graphics/SVG/1.1/DTD/svg11.dtd">
<!-- Generated by graphviz version 2.40.1 (20161225.0304)
 -->
<!-- Title: opentracing_custom_carrier_reader Pages: 1 -->
<svg width="133pt" height="102pt"
 viewBox="0.00 0.00 132.96 102.00" xmlns="http://www.w3.org/2000/svg" xmlns:xlink="http://www.w3.org/1999/xlink">
<g id="graph0" class="graph" transform="scale(1 1) rotate(0) translate(4 98)">
<title>opentracing_custom_carrier_reader</title>
<polygon fill="#ffffff" stroke="transparent" points="-4,4 -4,-98 128.96,-98 128.96,4 -4,4"/>
<!-- Node2 -->
<g id="node1" class="node">
<title>Node2</title>
<polygon fill="#bfbfbf" stroke="#000000" points="9.4531,-.5 9.4531,-28.5 115.5068,-28.5 115.5068,-.5 9.4531,-.5"/>
<text text-anchor="start" x="17.4531" y="-16.5" font-family="Helvetica,sans-Serif" font-size="10.00" fill="#000000">opentracing_custom</text>
<text text-anchor="middle" x="62.48" y="-6.5" font-family="Helvetica,sans-Serif" font-size="10.00" fill="#000000">_carrier_reader</text>
</g>
<!-- Node3 -->
<g id="node2" class="node">
<title>Node3</title>
<g id="a_node2"><a xlink:href="structopentracing__destructible.html" target="_top" xlink:title="Destructible interface. ">
<polygon fill="#ffffff" stroke="#000000" points="0,-75.5 0,-93.5 124.96,-93.5 124.96,-75.5 0,-75.5"/>
<text text-anchor="middle" x="62.48" y="-81.5" font-family="Helvetica,sans-Serif" font-size="10.00" fill="#000000">opentracing_destructible</text>
</a>
</g>
</g>
<!-- Node3&#45;&gt;Node2 -->
<g id="edge1" class="edge">
<title>Node3&#45;&gt;Node2</title>
<path fill="none" stroke="#191970" d="M60.9034,-65.2773C60.7277,-62.5017 60.5773,-59.6789 60.48,-57 60.1368,-47.5513 60.6368,-36.9263 61.2226,-28.6635"/>
<polygon fill="#191970" stroke="#191970" points="57.4196,-65.6274 61.6468,-75.3424 64.4006,-65.1117 57.4196,-65.6274"/>
</g>
<!-- Node3&#45;&gt;Node2 -->
<g id="edge2" class="edge">
<title>Node3&#45;&gt;Node2</title>
<path fill="none" stroke="#9a32cd" stroke-dasharray="5,2" d="M62.48,-65.0243C62.48,-53.5169 62.48,-39.2016 62.48,-28.7499"/>
<polygon fill="#9a32cd" stroke="#9a32cd" points="58.9801,-65.3487 62.48,-75.3487 65.9801,-65.3488 58.9801,-65.3487"/>
<text text-anchor="middle" x="74.7114" y="-49" font-family="Helvetica,sans-Serif" font-size="10.00" fill="#000000"> base</text>
</g>
</g>
</svg>
