<?xml version="1.0" encoding="UTF-8" standalone="no"?>
<!DOCTYPE svg PUBLIC "-//W3C//DTD SVG 1.1//EN"
 "http://www.w3.org/Graphics/SVG/1.1/DTD/svg11.dtd">
<!-- Generated by graphviz version 2.40.1 (20161225.0304)
 -->
<!-- Title: opentracing_log_record Pages: 1 -->
<svg width="259pt" height="157pt"
 viewBox="0.00 0.00 258.63 157.00" xmlns="http://www.w3.org/2000/svg" xmlns:xlink="http://www.w3.org/1999/xlink">
<g id="graph0" class="graph" transform="scale(1 1) rotate(0) translate(4 153)">
<title>opentracing_log_record</title>
<polygon fill="#ffffff" stroke="transparent" points="-4,4 -4,-153 254.6274,-153 254.6274,4 -4,4"/>
<!-- Node1 -->
<g id="node1" class="node">
<title>Node1</title>
<polygon fill="#bfbfbf" stroke="#000000" points="61,-.5 61,-18.5 182.0732,-18.5 182.0732,-.5 61,-.5"/>
<text text-anchor="middle" x="121.5366" y="-6.5" font-family="Helvetica,sans-Serif" font-size="10.00" fill="#000000">opentracing_log_record</text>
</g>
<!-- Node2 -->
<g id="node2" class="node">
<title>Node2</title>
<g id="a_node2"><a xlink:href="structopentracing__log__field.html" target="_top" xlink:title="Log field to represent key&#45;value pair for a log. ">
<polygon fill="#ffffff" stroke="#000000" points="0,-65.5 0,-83.5 111.0732,-83.5 111.0732,-65.5 0,-65.5"/>
<text text-anchor="middle" x="55.5366" y="-71.5" font-family="Helvetica,sans-Serif" font-size="10.00" fill="#000000">opentracing_log_field</text>
</a>
</g>
</g>
<!-- Node2&#45;&gt;Node1 -->
<g id="edge1" class="edge">
<title>Node2&#45;&gt;Node1</title>
<path fill="none" stroke="#9a32cd" stroke-dasharray="5,2" d="M71.9055,-58.3791C84.5249,-45.9509 101.5374,-29.1962 112.0101,-18.8821"/>
<polygon fill="#9a32cd" stroke="#9a32cd" points="69.3826,-55.9514 64.7136,-65.462 74.2944,-60.9388 69.3826,-55.9514"/>
<text text-anchor="middle" x="105.5981" y="-39" font-family="Helvetica,sans-Serif" font-size="10.00" fill="#000000"> fields</text>
</g>
<!-- Node3 -->
<g id="node3" class="node">
<title>Node3</title>
<g id="a_node3"><a xlink:href="structopentracing__value.html" target="_top" xlink:title="Tagged union that can represent a number of value types. ">
<polygon fill="#ffffff" stroke="#000000" points="6.6724,-130.5 6.6724,-148.5 104.4009,-148.5 104.4009,-130.5 6.6724,-130.5"/>
<text text-anchor="middle" x="55.5366" y="-136.5" font-family="Helvetica,sans-Serif" font-size="10.00" fill="#000000">opentracing_value</text>
</a>
</g>
</g>
<!-- Node3&#45;&gt;Node2 -->
<g id="edge2" class="edge">
<title>Node3&#45;&gt;Node2</title>
<path fill="none" stroke="#9a32cd" stroke-dasharray="5,2" d="M55.5366,-120.1265C55.5366,-108.1522 55.5366,-93.3205 55.5366,-83.8821"/>
<polygon fill="#9a32cd" stroke="#9a32cd" points="52.0367,-120.462 55.5366,-130.462 59.0367,-120.4621 52.0367,-120.462"/>
<text text-anchor="middle" x="68.8789" y="-104" font-family="Helvetica,sans-Serif" font-size="10.00" fill="#000000"> value</text>
</g>
<!-- Node4 -->
<g id="node4" class="node">
<title>Node4</title>
<g id="a_node4"><a xlink:href="structopentracing__timestamp.html" target="_top" xlink:title="Timestamp type to represent absolute time (should use system clock). ">
<polygon fill="#ffffff" stroke="#000000" points="129.564,-65.5 129.564,-83.5 249.5093,-83.5 249.5093,-65.5 129.564,-65.5"/>
<text text-anchor="middle" x="189.5366" y="-71.5" font-family="Helvetica,sans-Serif" font-size="10.00" fill="#000000">opentracing_timestamp</text>
</a>
</g>
</g>
<!-- Node4&#45;&gt;Node1 -->
<g id="edge3" class="edge">
<title>Node4&#45;&gt;Node1</title>
<path fill="none" stroke="#9a32cd" stroke-dasharray="5,2" d="M172.6717,-58.3791C159.6699,-45.9509 142.1419,-29.1962 131.3518,-18.8821"/>
<polygon fill="#9a32cd" stroke="#9a32cd" points="170.4343,-61.0822 180.0815,-65.462 175.2712,-56.0221 170.4343,-61.0822"/>
<text text-anchor="middle" x="184.9873" y="-39" font-family="Helvetica,sans-Serif" font-size="10.00" fill="#000000"> timestamp</text>
</g>
<!-- Node5 -->
<g id="node5" class="node">
<title>Node5</title>
<g id="a_node5"><a xlink:href="structopentracing__time__value.html" target="_top" xlink:title="opentracing_time_value">
<polygon fill="#ffffff" stroke="#000000" points="128.4458,-130.5 128.4458,-148.5 250.6274,-148.5 250.6274,-130.5 128.4458,-130.5"/>
<text text-anchor="middle" x="189.5366" y="-136.5" font-family="Helvetica,sans-Serif" font-size="10.00" fill="#000000">opentracing_time_value</text>
</a>
</g>
</g>
<!-- Node5&#45;&gt;Node4 -->
<g id="edge4" class="edge">
<title>Node5&#45;&gt;Node4</title>
<path fill="none" stroke="#9a32cd" stroke-dasharray="5,2" d="M189.5366,-120.1265C189.5366,-108.1522 189.5366,-93.3205 189.5366,-83.8821"/>
<polygon fill="#9a32cd" stroke="#9a32cd" points="186.0367,-120.462 189.5366,-130.462 193.0367,-120.4621 186.0367,-120.462"/>
<text text-anchor="middle" x="202.8789" y="-104" font-family="Helvetica,sans-Serif" font-size="10.00" fill="#000000"> value</text>
</g>
</g>
</svg>
