<?xml version="1.0" encoding="UTF-8" standalone="no"?>
<!DOCTYPE svg PUBLIC "-//W3C//DTD SVG 1.1//EN"
 "http://www.w3.org/Graphics/SVG/1.1/DTD/svg11.dtd">
<!-- Generated by graphviz version 2.40.1 (20161225.0304)
 -->
<!-- Title: opentracing_http_headers_writer Pages: 1 -->
<svg width="140pt" height="177pt"
 viewBox="0.00 0.00 140.20 177.00" xmlns="http://www.w3.org/2000/svg" xmlns:xlink="http://www.w3.org/1999/xlink">
<g id="graph0" class="graph" transform="scale(1 1) rotate(0) translate(4 173)">
<title>opentracing_http_headers_writer</title>
<polygon fill="#ffffff" stroke="transparent" points="-4,4 -4,-173 136.2012,-173 136.2012,4 -4,4"/>
<!-- Node3 -->
<g id="node1" class="node">
<title>Node3</title>
<polygon fill="#bfbfbf" stroke="#000000" points="0,-.5 0,-28.5 132.2012,-28.5 132.2012,-.5 0,-.5"/>
<text text-anchor="start" x="8" y="-16.5" font-family="Helvetica,sans-Serif" font-size="10.00" fill="#000000">opentracing_http_headers</text>
<text text-anchor="middle" x="66.1006" y="-6.5" font-family="Helvetica,sans-Serif" font-size="10.00" fill="#000000">_writer</text>
</g>
<!-- Node4 -->
<g id="node2" class="node">
<title>Node4</title>
<g id="a_node2"><a xlink:href="structopentracing__text__map__writer.html" target="_top" xlink:title="The inject carrier for the opentracing_propagation_format_text_map. ">
<polygon fill="#ffffff" stroke="#000000" points="8.623,-75.5 8.623,-103.5 123.5781,-103.5 123.5781,-75.5 8.623,-75.5"/>
<text text-anchor="start" x="16.623" y="-91.5" font-family="Helvetica,sans-Serif" font-size="10.00" fill="#000000">opentracing_text_map</text>
<text text-anchor="middle" x="66.1006" y="-81.5" font-family="Helvetica,sans-Serif" font-size="10.00" fill="#000000">_writer</text>
</a>
</g>
</g>
<!-- Node4&#45;&gt;Node3 -->
<g id="edge1" class="edge">
<title>Node4&#45;&gt;Node3</title>
<path fill="none" stroke="#191970" d="M64.4357,-65.0841C64.2981,-62.3579 64.1811,-59.6204 64.1006,-57 63.8101,-47.5496 64.3101,-36.9246 64.8827,-28.6622"/>
<polygon fill="#191970" stroke="#191970" points="60.9537,-65.4935 65.0349,-75.2707 67.9416,-65.0824 60.9537,-65.4935"/>
</g>
<!-- Node4&#45;&gt;Node3 -->
<g id="edge4" class="edge">
<title>Node4&#45;&gt;Node3</title>
<path fill="none" stroke="#9a32cd" stroke-dasharray="5,2" d="M66.1006,-65.0415C66.1006,-52.9507 66.1006,-38.7938 66.1006,-28.5437"/>
<polygon fill="#9a32cd" stroke="#9a32cd" points="62.6007,-65.393 66.1006,-75.3931 69.6007,-65.3931 62.6007,-65.393"/>
<text text-anchor="middle" x="78.332" y="-49" font-family="Helvetica,sans-Serif" font-size="10.00" fill="#000000"> base</text>
</g>
<!-- Node5 -->
<g id="node3" class="node">
<title>Node5</title>
<g id="a_node3"><a xlink:href="structopentracing__destructible.html" target="_top" xlink:title="Destructible interface. ">
<polygon fill="#ffffff" stroke="#000000" points="3.6206,-150.5 3.6206,-168.5 128.5806,-168.5 128.5806,-150.5 3.6206,-150.5"/>
<text text-anchor="middle" x="66.1006" y="-156.5" font-family="Helvetica,sans-Serif" font-size="10.00" fill="#000000">opentracing_destructible</text>
</a>
</g>
</g>
<!-- Node5&#45;&gt;Node4 -->
<g id="edge2" class="edge">
<title>Node5&#45;&gt;Node4</title>
<path fill="none" stroke="#191970" d="M64.524,-140.2773C64.3483,-137.5017 64.1979,-134.6789 64.1006,-132 63.7575,-122.5513 64.2575,-111.9263 64.8432,-103.6635"/>
<polygon fill="#191970" stroke="#191970" points="61.0402,-140.6274 65.2674,-150.3424 68.0212,-140.1117 61.0402,-140.6274"/>
</g>
<!-- Node5&#45;&gt;Node4 -->
<g id="edge3" class="edge">
<title>Node5&#45;&gt;Node4</title>
<path fill="none" stroke="#9a32cd" stroke-dasharray="5,2" d="M66.1006,-140.0243C66.1006,-128.5169 66.1006,-114.2016 66.1006,-103.7499"/>
<polygon fill="#9a32cd" stroke="#9a32cd" points="62.6007,-140.3487 66.1006,-150.3487 69.6007,-140.3488 62.6007,-140.3487"/>
<text text-anchor="middle" x="78.332" y="-124" font-family="Helvetica,sans-Serif" font-size="10.00" fill="#000000"> base</text>
</g>
</g>
</svg>
