<?xml version="1.0" encoding="UTF-8" standalone="no"?>
<!DOCTYPE svg PUBLIC "-//W3C//DTD SVG 1.1//EN"
 "http://www.w3.org/Graphics/SVG/1.1/DTD/svg11.dtd">
<!-- Generated by graphviz version 2.40.1 (20161225.0304)
 -->
<!-- Title: opentracing_span Pages: 1 -->
<svg width="285pt" height="242pt"
 viewBox="0.00 0.00 285.19 242.00" xmlns="http://www.w3.org/2000/svg" xmlns:xlink="http://www.w3.org/1999/xlink">
<g id="graph0" class="graph" transform="scale(1 1) rotate(0) translate(4 238)">
<title>opentracing_span</title>
<polygon fill="#ffffff" stroke="transparent" points="-4,4 -4,-238 281.1922,-238 281.1922,4 -4,4"/>
<!-- Node2 -->
<g id="node1" class="node">
<title>Node2</title>
<polygon fill="#bfbfbf" stroke="#000000" points="9.9759,-85.5 9.9759,-103.5 105.4827,-103.5 105.4827,-85.5 9.9759,-85.5"/>
<text text-anchor="middle" x="57.7293" y="-91.5" font-family="Helvetica,sans-Serif" font-size="10.00" fill="#000000">opentracing_span</text>
</g>
<!-- Node5 -->
<g id="node4" class="node">
<title>Node5</title>
<g id="a_node4"><a xlink:href="structopentracing__tracer.html" target="_top" xlink:title="Tracer interface. ">
<polygon fill="#ffffff" stroke="#000000" points="163.0374,-.5 163.0374,-18.5 262.4212,-18.5 262.4212,-.5 163.0374,-.5"/>
<text text-anchor="middle" x="212.7293" y="-6.5" font-family="Helvetica,sans-Serif" font-size="10.00" fill="#000000">opentracing_tracer</text>
</a>
</g>
</g>
<!-- Node2&#45;&gt;Node5 -->
<g id="edge7" class="edge">
<title>Node2&#45;&gt;Node5</title>
<path fill="none" stroke="#9a32cd" stroke-dasharray="5,2" d="M50.7837,-75.3332C47.6489,-63.0095 46.3511,-47.4126 55.1043,-37 68.7341,-20.7865 122.0604,-14.1311 162.9519,-11.3999"/>
<polygon fill="#9a32cd" stroke="#9a32cd" points="47.5079,-76.5875 53.8049,-85.108 54.1957,-74.5204 47.5079,-76.5875"/>
<text text-anchor="middle" x="111.0418" y="-59" font-family="Helvetica,sans-Serif" font-size="10.00" fill="#000000"> start_span_with_options</text>
<text text-anchor="middle" x="111.0418" y="-49" font-family="Helvetica,sans-Serif" font-size="10.00" fill="#000000">start_span</text>
<text text-anchor="middle" x="111.0418" y="-39" font-family="Helvetica,sans-Serif" font-size="10.00" fill="#000000">inject_text_map</text>
</g>
<!-- Node3 -->
<g id="node2" class="node">
<title>Node3</title>
<g id="a_node2"><a xlink:href="structopentracing__destructible.html" target="_top" xlink:title="Destructible interface. ">
<polygon fill="#ffffff" stroke="#000000" points="76.2493,-215.5 76.2493,-233.5 201.2093,-233.5 201.2093,-215.5 76.2493,-215.5"/>
<text text-anchor="middle" x="138.7293" y="-221.5" font-family="Helvetica,sans-Serif" font-size="10.00" fill="#000000">opentracing_destructible</text>
</a>
</g>
</g>
<!-- Node3&#45;&gt;Node2 -->
<g id="edge1" class="edge">
<title>Node3&#45;&gt;Node2</title>
<path fill="none" stroke="#191970" d="M66.0756,-214.4676C44.4991,-210.1501 24.5298,-204.371 16.7293,-197 -7.4984,-174.1061 -2.8857,-148.9511 16.7293,-122 22.2772,-114.3771 30.6273,-108.2278 38.3471,-103.6931"/>
<polygon fill="#191970" stroke="#191970" points="65.5892,-217.9374 76.0642,-216.3489 66.8848,-211.0584 65.5892,-217.9374"/>
</g>
<!-- Node3&#45;&gt;Node2 -->
<g id="edge9" class="edge">
<title>Node3&#45;&gt;Node2</title>
<path fill="none" stroke="#9a32cd" stroke-dasharray="5,2" d="M95.2385,-211.7753C74.4179,-203.2512 51.4218,-189.7024 39.2664,-169 26.8521,-147.8566 41.8213,-118.62 51.2235,-103.8469"/>
<polygon fill="#9a32cd" stroke="#9a32cd" points="94.0141,-215.0542 104.6049,-215.3459 96.5076,-208.5134 94.0141,-215.0542"/>
<text text-anchor="middle" x="51.9608" y="-156.5" font-family="Helvetica,sans-Serif" font-size="10.00" fill="#000000"> base</text>
</g>
<!-- Node4 -->
<g id="node3" class="node">
<title>Node4</title>
<g id="a_node3"><a xlink:href="structopentracing__span__context.html" target="_top" xlink:title="Span context interface. ">
<polygon fill="#ffffff" stroke="#000000" points="73.0745,-150.5 73.0745,-168.5 206.3841,-168.5 206.3841,-150.5 73.0745,-150.5"/>
<text text-anchor="middle" x="139.7293" y="-156.5" font-family="Helvetica,sans-Serif" font-size="10.00" fill="#000000">opentracing_span_context</text>
</a>
</g>
</g>
<!-- Node3&#45;&gt;Node4 -->
<g id="edge3" class="edge">
<title>Node3&#45;&gt;Node4</title>
<path fill="none" stroke="#191970" d="M136.8972,-205.0726C136.5639,-199.2599 136.41,-192.8713 136.7293,-187 137.0631,-180.8617 137.8131,-173.9867 138.4797,-168.6463"/>
<polygon fill="#191970" stroke="#191970" points="133.4237,-205.5518 137.682,-215.2532 140.403,-205.0137 133.4237,-205.5518"/>
</g>
<!-- Node3&#45;&gt;Node4 -->
<g id="edge4" class="edge">
<title>Node3&#45;&gt;Node4</title>
<path fill="none" stroke="#9a32cd" stroke-dasharray="5,2" d="M139.0274,-205.1265C139.2116,-193.1522 139.4398,-178.3205 139.585,-168.8821"/>
<polygon fill="#9a32cd" stroke="#9a32cd" points="135.5227,-205.4093 138.8684,-215.462 142.5219,-205.5171 135.5227,-205.4093"/>
<text text-anchor="middle" x="151.9608" y="-189" font-family="Helvetica,sans-Serif" font-size="10.00" fill="#000000"> base</text>
</g>
<!-- Node3&#45;&gt;Node5 -->
<g id="edge6" class="edge">
<title>Node3&#45;&gt;Node5</title>
<path fill="none" stroke="#191970" d="M169.5801,-210.705C186.3358,-201.4638 205.6414,-187.5708 215.7293,-169 243.3596,-118.1358 223.8752,-44.0135 215.7895,-18.5112"/>
<polygon fill="#191970" stroke="#191970" points="167.8724,-207.648 160.6084,-215.3607 171.0966,-213.8612 167.8724,-207.648"/>
</g>
<!-- Node3&#45;&gt;Node5 -->
<g id="edge8" class="edge">
<title>Node3&#45;&gt;Node5</title>
<path fill="none" stroke="#9a32cd" stroke-dasharray="5,2" d="M182.748,-211.8344C192.4584,-207.938 202.3406,-203.0394 210.7293,-197 223.7991,-187.5905 226.5344,-183.408 233.7293,-169 259.958,-116.476 263.2342,-90.35 238.7293,-37 235.4932,-29.9547 229.7164,-23.5615 224.4285,-18.7162"/>
<polygon fill="#9a32cd" stroke="#9a32cd" points="181.309,-208.6353 173.1565,-215.4018 183.7493,-215.1962 181.309,-208.6353"/>
<text text-anchor="middle" x="264.9608" y="-124" font-family="Helvetica,sans-Serif" font-size="10.00" fill="#000000"> base</text>
</g>
<!-- Node4&#45;&gt;Node2 -->
<g id="edge2" class="edge">
<title>Node4&#45;&gt;Node2</title>
<path fill="none" stroke="#9a32cd" stroke-dasharray="5,2" d="M120.224,-144.0384C104.3622,-131.4651 82.5161,-114.1481 69.2986,-103.6708"/>
<polygon fill="#9a32cd" stroke="#9a32cd" points="118.3168,-146.9929 128.3276,-150.462 122.6651,-141.5073 118.3168,-146.9929"/>
<text text-anchor="middle" x="134.8621" y="-124" font-family="Helvetica,sans-Serif" font-size="10.00" fill="#000000"> span_context</text>
</g>
<!-- Node5&#45;&gt;Node2 -->
<g id="edge5" class="edge">
<title>Node5&#45;&gt;Node2</title>
<path fill="none" stroke="#9a32cd" stroke-dasharray="5,2" d="M199.9566,-26.7221C187.4722,-43.5343 170.2576,-66.6503 169.7293,-67 159.0442,-74.073 131.0442,-80.948 105.7154,-86.0548"/>
<polygon fill="#9a32cd" stroke="#9a32cd" points="202.7916,-28.775 205.9406,-18.6589 197.1705,-24.6033 202.7916,-28.775"/>
<text text-anchor="middle" x="205.8992" y="-49" font-family="Helvetica,sans-Serif" font-size="10.00" fill="#000000"> tracer</text>
</g>
</g>
</svg>
