<?xml version="1.0" encoding="UTF-8" standalone="no"?>
<!DOCTYPE svg PUBLIC "-//W3C//DTD SVG 1.1//EN"
 "http://www.w3.org/Graphics/SVG/1.1/DTD/svg11.dtd">
<!-- Generated by graphviz version 2.40.1 (20161225.0304)
 -->
<!-- Title: opentracing_start_span_options Pages: 1 -->
<svg width="835pt" height="138pt"
 viewBox="0.00 0.00 834.86 138.00" xmlns="http://www.w3.org/2000/svg" xmlns:xlink="http://www.w3.org/1999/xlink">
<g id="graph0" class="graph" transform="scale(1 1) rotate(0) translate(4 134)">
<title>opentracing_start_span_options</title>
<polygon fill="#ffffff" stroke="transparent" points="-4,4 -4,-134 830.8633,-134 830.8633,4 -4,4"/>
<!-- Node1 -->
<g id="node1" class="node">
<title>Node1</title>
<polygon fill="#bfbfbf" stroke="#000000" points="706.3467,-50.5 706.3467,-78.5 826.8633,-78.5 826.8633,-50.5 706.3467,-50.5"/>
<text text-anchor="start" x="714.3467" y="-66.5" font-family="Helvetica,sans-Serif" font-size="10.00" fill="#000000">opentracing_start_span</text>
<text text-anchor="middle" x="766.605" y="-56.5" font-family="Helvetica,sans-Serif" font-size="10.00" fill="#000000">_options</text>
</g>
<!-- Node2 -->
<g id="node2" class="node">
<title>Node2</title>
<g id="a_node2"><a xlink:href="structopentracing__timestamp.html" target="_top" xlink:title="Timestamp type to represent absolute time (should use system clock). ">
<polygon fill="#ffffff" stroke="#000000" points="454.8057,-111.5 454.8057,-129.5 574.751,-129.5 574.751,-111.5 454.8057,-111.5"/>
<text text-anchor="middle" x="514.7783" y="-117.5" font-family="Helvetica,sans-Serif" font-size="10.00" fill="#000000">opentracing_timestamp</text>
</a>
</g>
</g>
<!-- Node2&#45;&gt;Node1 -->
<g id="edge1" class="edge">
<title>Node2&#45;&gt;Node1</title>
<path fill="none" stroke="#9a32cd" stroke-dasharray="5,2" d="M585.1147,-110.1118C616.8576,-104.8675 654.7006,-97.8399 688.3467,-89.5 700.8063,-86.4116 714.1776,-82.4049 726.2797,-78.5072"/>
<polygon fill="#9a32cd" stroke="#9a32cd" points="584.3443,-106.691 575.036,-111.7513 585.4683,-113.6002 584.3443,-106.691"/>
<text text-anchor="middle" x="646.3911" y="-107.5" font-family="Helvetica,sans-Serif" font-size="10.00" fill="#000000"> start_time_system</text>
</g>
<!-- Node3 -->
<g id="node3" class="node">
<title>Node3</title>
<g id="a_node3"><a xlink:href="structopentracing__time__value.html" target="_top" xlink:title="opentracing_time_value">
<polygon fill="#ffffff" stroke="#000000" points="190.9868,-92.5 190.9868,-110.5 313.1685,-110.5 313.1685,-92.5 190.9868,-92.5"/>
<text text-anchor="middle" x="252.0776" y="-98.5" font-family="Helvetica,sans-Serif" font-size="10.00" fill="#000000">opentracing_time_value</text>
</a>
</g>
</g>
<!-- Node3&#45;&gt;Node2 -->
<g id="edge2" class="edge">
<title>Node3&#45;&gt;Node2</title>
<path fill="none" stroke="#9a32cd" stroke-dasharray="5,2" d="M323.5642,-106.6703C364.685,-109.6444 415.7636,-113.3387 454.7816,-116.1607"/>
<polygon fill="#9a32cd" stroke="#9a32cd" points="323.5642,-103.1613 313.3377,-105.9307 323.0592,-110.143 323.5642,-103.1613"/>
<text text-anchor="middle" x="380.9268" y="-115.5" font-family="Helvetica,sans-Serif" font-size="10.00" fill="#000000"> value</text>
</g>
<!-- Node7 -->
<g id="node7" class="node">
<title>Node7</title>
<g id="a_node7"><a xlink:href="structopentracing__duration.html" target="_top" xlink:title="Duration type to calculate precise intervals (should use monotonic clock). ">
<polygon fill="#ffffff" stroke="#000000" points="459.7983,-74.5 459.7983,-92.5 569.7583,-92.5 569.7583,-74.5 459.7983,-74.5"/>
<text text-anchor="middle" x="514.7783" y="-80.5" font-family="Helvetica,sans-Serif" font-size="10.00" fill="#000000">opentracing_duration</text>
</a>
</g>
</g>
<!-- Node3&#45;&gt;Node7 -->
<g id="edge8" class="edge">
<title>Node3&#45;&gt;Node7</title>
<path fill="none" stroke="#9a32cd" stroke-dasharray="5,2" d="M309.5048,-90.8803C318.5871,-89.5255 327.8958,-88.3258 336.7324,-87.5 377.8296,-83.6595 424.4826,-82.7368 459.7206,-82.733"/>
<polygon fill="#9a32cd" stroke="#9a32cd" points="308.7224,-87.46 299.3839,-92.4642 309.8048,-94.3758 308.7224,-87.46"/>
<text text-anchor="middle" x="380.9268" y="-89.5" font-family="Helvetica,sans-Serif" font-size="10.00" fill="#000000"> value</text>
</g>
<!-- Node4 -->
<g id="node4" class="node">
<title>Node4</title>
<g id="a_node4"><a xlink:href="structopentracing__span__reference.html" target="_top" xlink:title="opentracing_span_reference">
<polygon fill="#ffffff" stroke="#000000" points="443.1211,-37.5 443.1211,-55.5 586.4355,-55.5 586.4355,-37.5 443.1211,-37.5"/>
<text text-anchor="middle" x="514.7783" y="-43.5" font-family="Helvetica,sans-Serif" font-size="10.00" fill="#000000">opentracing_span_reference</text>
</a>
</g>
</g>
<!-- Node4&#45;&gt;Node1 -->
<g id="edge3" class="edge">
<title>Node4&#45;&gt;Node1</title>
<path fill="none" stroke="#9a32cd" stroke-dasharray="5,2" d="M596.7929,-45.8017C625.7782,-46.2391 658.568,-47.5112 688.3467,-50.5 694.1146,-51.0789 700.0964,-51.8447 706.0666,-52.7205"/>
<polygon fill="#9a32cd" stroke="#9a32cd" points="596.7517,-42.3011 586.7103,-45.6804 596.6674,-49.3006 596.7517,-42.3011"/>
<text text-anchor="middle" x="646.3911" y="-52.5" font-family="Helvetica,sans-Serif" font-size="10.00" fill="#000000"> references</text>
</g>
<!-- Node5 -->
<g id="node5" class="node">
<title>Node5</title>
<g id="a_node5"><a xlink:href="structopentracing__span__context.html" target="_top" xlink:title="Span context interface. ">
<polygon fill="#ffffff" stroke="#000000" points="185.4229,-37.5 185.4229,-55.5 318.7324,-55.5 318.7324,-37.5 185.4229,-37.5"/>
<text text-anchor="middle" x="252.0776" y="-43.5" font-family="Helvetica,sans-Serif" font-size="10.00" fill="#000000">opentracing_span_context</text>
</a>
</g>
</g>
<!-- Node5&#45;&gt;Node4 -->
<g id="edge4" class="edge">
<title>Node5&#45;&gt;Node4</title>
<path fill="none" stroke="#9a32cd" stroke-dasharray="5,2" d="M329.4664,-46.5C365.3337,-46.5 407.6989,-46.5 442.8626,-46.5"/>
<polygon fill="#9a32cd" stroke="#9a32cd" points="329.0479,-43.0001 319.0478,-46.5 329.0478,-50.0001 329.0479,-43.0001"/>
<text text-anchor="middle" x="380.9268" y="-48.5" font-family="Helvetica,sans-Serif" font-size="10.00" fill="#000000"> referenced_context</text>
</g>
<!-- Node6 -->
<g id="node6" class="node">
<title>Node6</title>
<g id="a_node6"><a xlink:href="structopentracing__destructible.html" target="_top" xlink:title="Destructible interface. ">
<polygon fill="#ffffff" stroke="#000000" points="0,-36.5 0,-54.5 124.96,-54.5 124.96,-36.5 0,-36.5"/>
<text text-anchor="middle" x="62.48" y="-42.5" font-family="Helvetica,sans-Serif" font-size="10.00" fill="#000000">opentracing_destructible</text>
</a>
</g>
</g>
<!-- Node6&#45;&gt;Node5 -->
<g id="edge5" class="edge">
<title>Node6&#45;&gt;Node5</title>
<path fill="none" stroke="#191970" d="M135.2022,-45.8836C151.6743,-45.9704 169.088,-46.0623 185.3003,-46.1478"/>
<polygon fill="#191970" stroke="#191970" points="135.1052,-42.3831 125.0868,-45.8302 135.0682,-49.383 135.1052,-42.3831"/>
</g>
<!-- Node6&#45;&gt;Node5 -->
<g id="edge6" class="edge">
<title>Node6&#45;&gt;Node5</title>
<path fill="none" stroke="#9a32cd" stroke-dasharray="5,2" d="M125.9179,-35.1478C131.6681,-34.4799 137.4128,-33.9113 142.96,-33.5 164.7445,-31.8848 188.8707,-34.3151 208.8859,-37.4951"/>
<polygon fill="#9a32cd" stroke="#9a32cd" points="125.0883,-31.7245 115.603,-36.4446 125.9616,-38.6698 125.0883,-31.7245"/>
<text text-anchor="middle" x="155.1914" y="-35.5" font-family="Helvetica,sans-Serif" font-size="10.00" fill="#000000"> base</text>
</g>
<!-- Node7&#45;&gt;Node1 -->
<g id="edge7" class="edge">
<title>Node7&#45;&gt;Node1</title>
<path fill="none" stroke="#9a32cd" stroke-dasharray="5,2" d="M580.2204,-78.5625C619.1444,-75.6257 668.1793,-71.9261 706.1836,-69.0587"/>
<polygon fill="#9a32cd" stroke="#9a32cd" points="579.7511,-75.0878 570.0427,-79.3304 580.2778,-82.068 579.7511,-75.0878"/>
<text text-anchor="middle" x="646.3911" y="-77.5" font-family="Helvetica,sans-Serif" font-size="10.00" fill="#000000"> start_time_steady</text>
</g>
<!-- Node8 -->
<g id="node8" class="node">
<title>Node8</title>
<g id="a_node8"><a xlink:href="structopentracing__tag.html" target="_top" xlink:title="Simple tag representation. ">
<polygon fill="#ffffff" stroke="#000000" points="470.9165,-.5 470.9165,-18.5 558.6401,-18.5 558.6401,-.5 470.9165,-.5"/>
<text text-anchor="middle" x="514.7783" y="-6.5" font-family="Helvetica,sans-Serif" font-size="10.00" fill="#000000">opentracing_tag</text>
</a>
</g>
</g>
<!-- Node8&#45;&gt;Node1 -->
<g id="edge9" class="edge">
<title>Node8&#45;&gt;Node1</title>
<path fill="none" stroke="#9a32cd" stroke-dasharray="5,2" d="M569.2909,-12.5796C603.8597,-15.4676 649.269,-20.997 688.3467,-31.5 705.4343,-36.0927 723.6977,-43.6307 738.28,-50.3437"/>
<polygon fill="#9a32cd" stroke="#9a32cd" points="569.1731,-9.0597 558.9296,-11.7656 568.6248,-16.0382 569.1731,-9.0597"/>
<text text-anchor="middle" x="646.3911" y="-33.5" font-family="Helvetica,sans-Serif" font-size="10.00" fill="#000000"> tags</text>
</g>
<!-- Node9 -->
<g id="node9" class="node">
<title>Node9</title>
<g id="a_node9"><a xlink:href="structopentracing__value.html" target="_top" xlink:title="Tagged union that can represent a number of value types. ">
<polygon fill="#ffffff" stroke="#000000" points="203.2134,-.5 203.2134,-18.5 300.9419,-18.5 300.9419,-.5 203.2134,-.5"/>
<text text-anchor="middle" x="252.0776" y="-6.5" font-family="Helvetica,sans-Serif" font-size="10.00" fill="#000000">opentracing_value</text>
</a>
</g>
</g>
<!-- Node9&#45;&gt;Node8 -->
<g id="edge10" class="edge">
<title>Node9&#45;&gt;Node8</title>
<path fill="none" stroke="#9a32cd" stroke-dasharray="5,2" d="M311.2041,-9.5C359.5949,-9.5 426.9643,-9.5 470.7202,-9.5"/>
<polygon fill="#9a32cd" stroke="#9a32cd" points="311.1815,-6.0001 301.1815,-9.5 311.1814,-13.0001 311.1815,-6.0001"/>
<text text-anchor="middle" x="380.9268" y="-11.5" font-family="Helvetica,sans-Serif" font-size="10.00" fill="#000000"> value</text>
</g>
</g>
</svg>
