<?xml version="1.0" encoding="UTF-8" standalone="no"?>
<!DOCTYPE svg PUBLIC "-//W3C//DTD SVG 1.1//EN"
 "http://www.w3.org/Graphics/SVG/1.1/DTD/svg11.dtd">
<!-- Generated by graphviz version 2.40.1 (20161225.0304)
 -->
<!-- Title: opentracing_text_map_writer Pages: 1 -->
<svg width="140pt" height="157pt"
 viewBox="0.00 0.00 140.20 157.00" xmlns="http://www.w3.org/2000/svg" xmlns:xlink="http://www.w3.org/1999/xlink">
<g id="graph0" class="graph" transform="scale(1 1) rotate(0) translate(4 153)">
<title>opentracing_text_map_writer</title>
<polygon fill="#ffffff" stroke="transparent" points="-4,4 -4,-153 136.2012,-153 136.2012,4 -4,4"/>
<!-- Node0 -->
<g id="node1" class="node">
<title>Node0</title>
<polygon fill="#bfbfbf" stroke="#000000" points="8.623,-65.5 8.623,-93.5 123.5781,-93.5 123.5781,-65.5 8.623,-65.5"/>
<text text-anchor="start" x="16.623" y="-81.5" font-family="Helvetica,sans-Serif" font-size="10.00" fill="#000000">opentracing_text_map</text>
<text text-anchor="middle" x="66.1006" y="-71.5" font-family="Helvetica,sans-Serif" font-size="10.00" fill="#000000">_writer</text>
</g>
<!-- Node2 -->
<g id="node3" class="node">
<title>Node2</title>
<g id="a_node3"><a xlink:href="structopentracing__http__headers__writer.html" target="_top" xlink:title="HTTP headers writer. ">
<polygon fill="#ffffff" stroke="#000000" points="0,-.5 0,-28.5 132.2012,-28.5 132.2012,-.5 0,-.5"/>
<text text-anchor="start" x="8" y="-16.5" font-family="Helvetica,sans-Serif" font-size="10.00" fill="#000000">opentracing_http_headers</text>
<text text-anchor="middle" x="66.1006" y="-6.5" font-family="Helvetica,sans-Serif" font-size="10.00" fill="#000000">_writer</text>
</a>
</g>
</g>
<!-- Node0&#45;&gt;Node2 -->
<g id="edge2" class="edge">
<title>Node0&#45;&gt;Node2</title>
<path fill="none" stroke="#191970" d="M66.1006,-55.1081C66.1006,-46.1539 66.1006,-36.3227 66.1006,-28.5765"/>
<polygon fill="#191970" stroke="#191970" points="62.6007,-55.3959 66.1006,-65.396 69.6007,-55.396 62.6007,-55.3959"/>
</g>
<!-- Node1 -->
<g id="node2" class="node">
<title>Node1</title>
<g id="a_node2"><a xlink:href="structopentracing__destructible.html" target="_top" xlink:title="Destructible interface. ">
<polygon fill="#ffffff" stroke="#000000" points="3.6206,-130.5 3.6206,-148.5 128.5806,-148.5 128.5806,-130.5 3.6206,-130.5"/>
<text text-anchor="middle" x="66.1006" y="-136.5" font-family="Helvetica,sans-Serif" font-size="10.00" fill="#000000">opentracing_destructible</text>
</a>
</g>
</g>
<!-- Node1&#45;&gt;Node0 -->
<g id="edge1" class="edge">
<title>Node1&#45;&gt;Node0</title>
<path fill="none" stroke="#191970" d="M66.1006,-120.1865C66.1006,-111.6283 66.1006,-101.7354 66.1006,-93.8477"/>
<polygon fill="#191970" stroke="#191970" points="62.6007,-120.3873 66.1006,-130.3873 69.6007,-120.3873 62.6007,-120.3873"/>
</g>
</g>
</svg>
