<?xml version="1.0" encoding="UTF-8" standalone="no"?>
<!DOCTYPE svg PUBLIC "-//W3C//DTD SVG 1.1//EN"
 "http://www.w3.org/Graphics/SVG/1.1/DTD/svg11.dtd">
<!-- Generated by graphviz version 2.40.1 (20161225.0304)
 -->
<!-- Title: opentracing_finish_span_options Pages: 1 -->
<svg width="341pt" height="241pt"
 viewBox="0.00 0.00 340.52 241.00" xmlns="http://www.w3.org/2000/svg" xmlns:xlink="http://www.w3.org/1999/xlink">
<g id="graph0" class="graph" transform="scale(1 1) rotate(0) translate(4 237)">
<title>opentracing_finish_span_options</title>
<polygon fill="#ffffff" stroke="transparent" points="-4,4 -4,-237 336.5166,-237 336.5166,4 -4,4"/>
<!-- Node1 -->
<g id="node1" class="node">
<title>Node1</title>
<polygon fill="#bfbfbf" stroke="#000000" points="22.3965,-.5 22.3965,-28.5 119.5635,-28.5 119.5635,-.5 22.3965,-.5"/>
<text text-anchor="start" x="30.3965" y="-16.5" font-family="Helvetica,sans-Serif" font-size="10.00" fill="#000000">opentracing_finish</text>
<text text-anchor="middle" x="70.98" y="-6.5" font-family="Helvetica,sans-Serif" font-size="10.00" fill="#000000">_span_options</text>
</g>
<!-- Node2 -->
<g id="node2" class="node">
<title>Node2</title>
<g id="a_node2"><a xlink:href="structopentracing__duration.html" target="_top" xlink:title="Duration type to calculate precise intervals (should use monotonic clock). ">
<polygon fill="#ffffff" stroke="#000000" points="0,-112.5 0,-130.5 109.96,-130.5 109.96,-112.5 0,-112.5"/>
<text text-anchor="middle" x="54.98" y="-118.5" font-family="Helvetica,sans-Serif" font-size="10.00" fill="#000000">opentracing_duration</text>
</a>
</g>
</g>
<!-- Node2&#45;&gt;Node1 -->
<g id="edge1" class="edge">
<title>Node2&#45;&gt;Node1</title>
<path fill="none" stroke="#9a32cd" stroke-dasharray="5,2" d="M57.8493,-102.3116C61.0186,-81.1168 66.0463,-47.4938 68.8723,-28.595"/>
<polygon fill="#9a32cd" stroke="#9a32cd" points="54.3616,-101.9696 56.3441,-112.3772 61.2846,-103.0048 54.3616,-101.9696"/>
<text text-anchor="middle" x="87.2681" y="-81.5" font-family="Helvetica,sans-Serif" font-size="10.00" fill="#000000"> finish_time</text>
</g>
<!-- Node3 -->
<g id="node3" class="node">
<title>Node3</title>
<g id="a_node3"><a xlink:href="structopentracing__time__value.html" target="_top" xlink:title="opentracing_time_value">
<polygon fill="#ffffff" stroke="#000000" points="28.8892,-214.5 28.8892,-232.5 151.0708,-232.5 151.0708,-214.5 28.8892,-214.5"/>
<text text-anchor="middle" x="89.98" y="-220.5" font-family="Helvetica,sans-Serif" font-size="10.00" fill="#000000">opentracing_time_value</text>
</a>
</g>
</g>
<!-- Node3&#45;&gt;Node2 -->
<g id="edge2" class="edge">
<title>Node3&#45;&gt;Node2</title>
<path fill="none" stroke="#9a32cd" stroke-dasharray="5,2" d="M83.6041,-204.9189C76.0757,-182.979 63.8558,-147.3665 58.1293,-130.6782"/>
<polygon fill="#9a32cd" stroke="#9a32cd" points="80.3178,-206.1255 86.874,-214.4482 86.9388,-203.8535 80.3178,-206.1255"/>
<text text-anchor="middle" x="94.3223" y="-188" font-family="Helvetica,sans-Serif" font-size="10.00" fill="#000000"> value</text>
</g>
<!-- Node7 -->
<g id="node7" class="node">
<title>Node7</title>
<g id="a_node7"><a xlink:href="structopentracing__timestamp.html" target="_top" xlink:title="Timestamp type to represent absolute time (should use system clock). ">
<polygon fill="#ffffff" stroke="#000000" points="83.0073,-149.5 83.0073,-167.5 202.9526,-167.5 202.9526,-149.5 83.0073,-149.5"/>
<text text-anchor="middle" x="142.98" y="-155.5" font-family="Helvetica,sans-Serif" font-size="10.00" fill="#000000">opentracing_timestamp</text>
</a>
</g>
</g>
<!-- Node3&#45;&gt;Node7 -->
<g id="edge7" class="edge">
<title>Node3&#45;&gt;Node7</title>
<path fill="none" stroke="#9a32cd" stroke-dasharray="5,2" d="M103.702,-206.6711C113.7721,-194.321 127.0786,-178.0016 135.3299,-167.8821"/>
<polygon fill="#9a32cd" stroke="#9a32cd" points="100.9562,-204.5 97.3494,-214.462 106.3814,-208.9236 100.9562,-204.5"/>
<text text-anchor="middle" x="133.3223" y="-188" font-family="Helvetica,sans-Serif" font-size="10.00" fill="#000000"> value</text>
</g>
<!-- Node4 -->
<g id="node4" class="node">
<title>Node4</title>
<g id="a_node4"><a xlink:href="structopentracing__log__record.html" target="_top" xlink:title="Log record can be used to describe events that occur in the lifetime of a span. ">
<polygon fill="#ffffff" stroke="#000000" points="123.4434,-75.5 123.4434,-93.5 244.5166,-93.5 244.5166,-75.5 123.4434,-75.5"/>
<text text-anchor="middle" x="183.98" y="-81.5" font-family="Helvetica,sans-Serif" font-size="10.00" fill="#000000">opentracing_log_record</text>
</a>
</g>
</g>
<!-- Node4&#45;&gt;Node1 -->
<g id="edge3" class="edge">
<title>Node4&#45;&gt;Node1</title>
<path fill="none" stroke="#9a32cd" stroke-dasharray="5,2" d="M160.6108,-70.0235C141.0876,-57.9295 113.4038,-40.7802 93.9834,-28.7499"/>
<polygon fill="#9a32cd" stroke="#9a32cd" points="158.863,-73.0579 169.2072,-75.3487 162.5493,-67.1072 158.863,-73.0579"/>
<text text-anchor="middle" x="165.4946" y="-49" font-family="Helvetica,sans-Serif" font-size="10.00" fill="#000000"> log_records</text>
</g>
<!-- Node5 -->
<g id="node5" class="node">
<title>Node5</title>
<g id="a_node5"><a xlink:href="structopentracing__log__field.html" target="_top" xlink:title="Log field to represent key&#45;value pair for a log. ">
<polygon fill="#ffffff" stroke="#000000" points="221.4434,-149.5 221.4434,-167.5 332.5166,-167.5 332.5166,-149.5 221.4434,-149.5"/>
<text text-anchor="middle" x="276.98" y="-155.5" font-family="Helvetica,sans-Serif" font-size="10.00" fill="#000000">opentracing_log_field</text>
</a>
</g>
</g>
<!-- Node5&#45;&gt;Node4 -->
<g id="edge4" class="edge">
<title>Node5&#45;&gt;Node4</title>
<path fill="none" stroke="#9a32cd" stroke-dasharray="5,2" d="M258.8895,-142.6121C248.2961,-133.4591 234.5661,-121.852 221.98,-112 213.9001,-105.6753 204.5684,-98.9147 197.1745,-93.6793"/>
<polygon fill="#9a32cd" stroke="#9a32cd" points="256.789,-145.4237 266.6311,-149.346 261.3831,-140.1422 256.789,-145.4237"/>
<text text-anchor="middle" x="258.0415" y="-118.5" font-family="Helvetica,sans-Serif" font-size="10.00" fill="#000000"> fields</text>
</g>
<!-- Node6 -->
<g id="node6" class="node">
<title>Node6</title>
<g id="a_node6"><a xlink:href="structopentracing__value.html" target="_top" xlink:title="Tagged union that can represent a number of value types. ">
<polygon fill="#ffffff" stroke="#000000" points="228.1157,-214.5 228.1157,-232.5 325.8442,-232.5 325.8442,-214.5 228.1157,-214.5"/>
<text text-anchor="middle" x="276.98" y="-220.5" font-family="Helvetica,sans-Serif" font-size="10.00" fill="#000000">opentracing_value</text>
</a>
</g>
</g>
<!-- Node6&#45;&gt;Node5 -->
<g id="edge5" class="edge">
<title>Node6&#45;&gt;Node5</title>
<path fill="none" stroke="#9a32cd" stroke-dasharray="5,2" d="M276.98,-204.1265C276.98,-192.1522 276.98,-177.3205 276.98,-167.8821"/>
<polygon fill="#9a32cd" stroke="#9a32cd" points="273.4801,-204.462 276.98,-214.462 280.4801,-204.4621 273.4801,-204.462"/>
<text text-anchor="middle" x="290.3223" y="-188" font-family="Helvetica,sans-Serif" font-size="10.00" fill="#000000"> value</text>
</g>
<!-- Node7&#45;&gt;Node4 -->
<g id="edge6" class="edge">
<title>Node7&#45;&gt;Node4</title>
<path fill="none" stroke="#9a32cd" stroke-dasharray="5,2" d="M152.8694,-140.6508C161.0836,-125.8251 172.4357,-105.336 178.9115,-93.6481"/>
<polygon fill="#9a32cd" stroke="#9a32cd" points="149.7923,-138.9827 148.0074,-149.4261 155.9153,-142.3752 149.7923,-138.9827"/>
<text text-anchor="middle" x="193.4307" y="-118.5" font-family="Helvetica,sans-Serif" font-size="10.00" fill="#000000"> timestamp</text>
</g>
</g>
</svg>
