<?xml version="1.0" encoding="UTF-8" standalone="no"?>
<!DOCTYPE svg PUBLIC "-//W3C//DTD SVG 1.1//EN"
 "http://www.w3.org/Graphics/SVG/1.1/DTD/svg11.dtd">
<!-- Generated by graphviz version 2.40.1 (20161225.0304)
 -->
<!-- Title: opentracing_tracer Pages: 1 -->
<svg width="386pt" height="177pt"
 viewBox="0.00 0.00 386.00 177.00" xmlns="http://www.w3.org/2000/svg" xmlns:xlink="http://www.w3.org/1999/xlink">
<g id="graph0" class="graph" transform="scale(1 1) rotate(0) translate(4 173)">
<title>opentracing_tracer</title>
<polygon fill="#ffffff" stroke="transparent" points="-4,4 -4,-173 381.9999,-173 381.9999,4 -4,4"/>
<!-- Node2 -->
<g id="node1" class="node">
<title>Node2</title>
<polygon fill="#bfbfbf" stroke="#000000" points="15.6532,-85.5 15.6532,-103.5 115.037,-103.5 115.037,-85.5 15.6532,-85.5"/>
<text text-anchor="middle" x="65.3451" y="-91.5" font-family="Helvetica,sans-Serif" font-size="10.00" fill="#000000">opentracing_tracer</text>
</g>
<!-- Node4 -->
<g id="node3" class="node">
<title>Node4</title>
<g id="a_node3"><a xlink:href="structopentracing__span.html" target="_top" xlink:title="Span interface. ">
<polygon fill="#ffffff" stroke="#000000" points="119.5917,-.5 119.5917,-18.5 215.0985,-18.5 215.0985,-.5 119.5917,-.5"/>
<text text-anchor="middle" x="167.3451" y="-6.5" font-family="Helvetica,sans-Serif" font-size="10.00" fill="#000000">opentracing_span</text>
</a>
</g>
</g>
<!-- Node2&#45;&gt;Node4 -->
<g id="edge7" class="edge">
<title>Node2&#45;&gt;Node4</title>
<path fill="none" stroke="#9a32cd" stroke-dasharray="5,2" d="M20.0526,-80.5094C14.492,-76.9585 9.535,-72.5262 6.0052,-67 -1.1721,-55.7633 -2.5944,-47.1894 6.0052,-37 13.3358,-28.3142 74.5265,-19.7435 119.3887,-14.5369"/>
<polygon fill="#9a32cd" stroke="#9a32cd" points="18.7018,-83.7563 29.1693,-85.3942 22.0078,-77.5862 18.7018,-83.7563"/>
<text text-anchor="middle" x="20.515" y="-49" font-family="Helvetica,sans-Serif" font-size="10.00" fill="#000000"> tracer</text>
</g>
<!-- Node3 -->
<g id="node2" class="node">
<title>Node3</title>
<g id="a_node2"><a xlink:href="structopentracing__destructible.html" target="_top" xlink:title="Destructible interface. ">
<polygon fill="#ffffff" stroke="#000000" points="116.8651,-150.5 116.8651,-168.5 241.8251,-168.5 241.8251,-150.5 116.8651,-150.5"/>
<text text-anchor="middle" x="179.3451" y="-156.5" font-family="Helvetica,sans-Serif" font-size="10.00" fill="#000000">opentracing_destructible</text>
</a>
</g>
</g>
<!-- Node3&#45;&gt;Node2 -->
<g id="edge1" class="edge">
<title>Node3&#45;&gt;Node2</title>
<path fill="none" stroke="#191970" d="M124.8787,-147.2504C114.1921,-143.4028 103.4769,-138.4194 94.3451,-132 83.8417,-124.6165 75.3705,-112.3064 70.3551,-103.8159"/>
<polygon fill="#191970" stroke="#191970" points="124.0455,-150.6611 134.6387,-150.4731 126.2404,-144.014 124.0455,-150.6611"/>
</g>
<!-- Node3&#45;&gt;Node2 -->
<g id="edge9" class="edge">
<title>Node3&#45;&gt;Node2</title>
<path fill="none" stroke="#9a32cd" stroke-dasharray="5,2" d="M147.0837,-146.5101C137.4894,-142.2648 127.087,-137.2741 117.8822,-132 102.9085,-123.4204 86.938,-111.5927 76.5887,-103.5296"/>
<polygon fill="#9a32cd" stroke="#9a32cd" points="145.7651,-149.753 156.3343,-150.49 148.5316,-143.3228 145.7651,-149.753"/>
<text text-anchor="middle" x="130.5765" y="-124" font-family="Helvetica,sans-Serif" font-size="10.00" fill="#000000"> base</text>
</g>
<!-- Node3&#45;&gt;Node4 -->
<g id="edge3" class="edge">
<title>Node3&#45;&gt;Node4</title>
<path fill="none" stroke="#191970" d="M177.7874,-140.029C175.1787,-107.4205 170.0229,-42.9725 168.0954,-18.8796"/>
<polygon fill="#191970" stroke="#191970" points="174.308,-140.4278 178.5944,-150.1168 181.2857,-139.8695 174.308,-140.4278"/>
</g>
<!-- Node3&#45;&gt;Node4 -->
<g id="edge8" class="edge">
<title>Node3&#45;&gt;Node4</title>
<path fill="none" stroke="#9a32cd" stroke-dasharray="5,2" d="M186.3838,-140.6229C187.1955,-137.7691 187.8934,-134.8323 188.3451,-132 192.4667,-106.1552 216.2437,-134.3224 185.3451,-37 183.204,-30.2562 178.9139,-23.5934 175.0591,-18.5154"/>
<polygon fill="#9a32cd" stroke="#9a32cd" points="183.0123,-139.6698 183.1794,-150.2634 189.655,-141.8778 183.0123,-139.6698"/>
<text text-anchor="middle" x="212.5765" y="-91.5" font-family="Helvetica,sans-Serif" font-size="10.00" fill="#000000"> base</text>
</g>
<!-- Node5 -->
<g id="node4" class="node">
<title>Node5</title>
<g id="a_node4"><a xlink:href="structopentracing__span__context.html" target="_top" xlink:title="Span context interface. ">
<polygon fill="#ffffff" stroke="#000000" points="244.6903,-85.5 244.6903,-103.5 377.9999,-103.5 377.9999,-85.5 244.6903,-85.5"/>
<text text-anchor="middle" x="311.3451" y="-91.5" font-family="Helvetica,sans-Serif" font-size="10.00" fill="#000000">opentracing_span_context</text>
</a>
</g>
</g>
<!-- Node3&#45;&gt;Node5 -->
<g id="edge5" class="edge">
<title>Node3&#45;&gt;Node5</title>
<path fill="none" stroke="#191970" d="M206.921,-145.9209C232.6597,-133.2466 270.3608,-114.6817 292.7214,-103.6708"/>
<polygon fill="#191970" stroke="#191970" points="205.1242,-142.9043 197.6991,-150.462 208.2166,-149.1842 205.1242,-142.9043"/>
</g>
<!-- Node3&#45;&gt;Node5 -->
<g id="edge6" class="edge">
<title>Node3&#45;&gt;Node5</title>
<path fill="none" stroke="#9a32cd" stroke-dasharray="5,2" d="M222.1753,-147.3586C234.4845,-143.1866 247.7173,-138.0231 259.3451,-132 274.7629,-124.0137 290.6998,-111.8355 300.798,-103.5399"/>
<polygon fill="#9a32cd" stroke="#9a32cd" points="220.9769,-144.0679 212.5499,-150.4894 223.1421,-150.7246 220.9769,-144.0679"/>
<text text-anchor="middle" x="287.5765" y="-124" font-family="Helvetica,sans-Serif" font-size="10.00" fill="#000000"> base</text>
</g>
<!-- Node4&#45;&gt;Node2 -->
<g id="edge2" class="edge">
<title>Node4&#45;&gt;Node2</title>
<path fill="none" stroke="#9a32cd" stroke-dasharray="5,2" d="M109.5108,-15.2738C81.2075,-19.4181 51.3784,-26.2228 42.7201,-37 34.3693,-47.3944 38.2205,-54.4488 42.7201,-67 45.2237,-73.9837 50.3515,-80.4627 55.0932,-85.3756"/>
<polygon fill="#9a32cd" stroke="#9a32cd" points="109.9885,-18.7412 119.4211,-13.9168 109.0387,-11.8059 109.9885,-18.7412"/>
<text text-anchor="middle" x="98.6576" y="-59" font-family="Helvetica,sans-Serif" font-size="10.00" fill="#000000"> start_span_with_options</text>
<text text-anchor="middle" x="98.6576" y="-49" font-family="Helvetica,sans-Serif" font-size="10.00" fill="#000000">start_span</text>
<text text-anchor="middle" x="98.6576" y="-39" font-family="Helvetica,sans-Serif" font-size="10.00" fill="#000000">inject_text_map</text>
</g>
<!-- Node5&#45;&gt;Node4 -->
<g id="edge4" class="edge">
<title>Node5&#45;&gt;Node4</title>
<path fill="none" stroke="#9a32cd" stroke-dasharray="5,2" d="M287.9755,-80.062C268.8238,-68.3009 240.963,-51.3531 216.3451,-37 205.5581,-30.7108 193.3081,-23.8358 183.7548,-18.5331"/>
<polygon fill="#9a32cd" stroke="#9a32cd" points="286.2743,-83.1248 296.6253,-85.385 289.943,-77.1631 286.2743,-83.1248"/>
<text text-anchor="middle" x="296.4779" y="-49" font-family="Helvetica,sans-Serif" font-size="10.00" fill="#000000"> span_context</text>
</g>
</g>
</svg>
