<?xml version="1.0" encoding="UTF-8" standalone="no"?>
<!DOCTYPE svg PUBLIC "-//W3C//DTD SVG 1.1//EN"
 "http://www.w3.org/Graphics/SVG/1.1/DTD/svg11.dtd">
<!-- Generated by graphviz version 2.40.1 (20161225.0304)
 -->
<!-- Title: opentracing_library_handle Pages: 1 -->
<svg width="502pt" height="187pt"
 viewBox="0.00 0.00 502.18 187.00" xmlns="http://www.w3.org/2000/svg" xmlns:xlink="http://www.w3.org/1999/xlink">
<g id="graph0" class="graph" transform="scale(1 1) rotate(0) translate(4 183)">
<title>opentracing_library_handle</title>
<polygon fill="#ffffff" stroke="transparent" points="-4,4 -4,-183 498.1792,-183 498.1792,4 -4,4"/>
<!-- Node1 -->
<g id="node1" class="node">
<title>Node1</title>
<polygon fill="#bfbfbf" stroke="#000000" points="0,-.5 0,-28.5 101.0488,-28.5 101.0488,-.5 0,-.5"/>
<text text-anchor="start" x="8" y="-16.5" font-family="Helvetica,sans-Serif" font-size="10.00" fill="#000000">opentracing_library</text>
<text text-anchor="middle" x="50.5244" y="-6.5" font-family="Helvetica,sans-Serif" font-size="10.00" fill="#000000">_handle</text>
</g>
<!-- Node2 -->
<g id="node2" class="node">
<title>Node2</title>
<g id="a_node2"><a xlink:href="structopentracing__tracer.html" target="_top" xlink:title="Tracer interface. ">
<polygon fill="#ffffff" stroke="#000000" points="107.8325,-95.5 107.8325,-113.5 207.2163,-113.5 207.2163,-95.5 107.8325,-95.5"/>
<text text-anchor="middle" x="157.5244" y="-101.5" font-family="Helvetica,sans-Serif" font-size="10.00" fill="#000000">opentracing_tracer</text>
</a>
</g>
</g>
<!-- Node2&#45;&gt;Node1 -->
<g id="edge1" class="edge">
<title>Node2&#45;&gt;Node1</title>
<path fill="none" stroke="#9a32cd" stroke-dasharray="5,2" d="M97.6204,-95.3894C77.2215,-90.9834 57.9734,-84.9061 51.7363,-77 40.9815,-63.3671 43.1968,-42.3613 46.3707,-28.524"/>
<polygon fill="#9a32cd" stroke="#9a32cd" points="97.18,-98.871 107.6749,-97.4187 98.565,-92.0094 97.18,-98.871"/>
<text text-anchor="middle" x="68.9185" y="-59" font-family="Helvetica,sans-Serif" font-size="10.00" fill="#000000"> factory</text>
</g>
<!-- Node4 -->
<g id="node4" class="node">
<title>Node4</title>
<g id="a_node4"><a xlink:href="structopentracing__span.html" target="_top" xlink:title="Span interface. ">
<polygon fill="#ffffff" stroke="#000000" points="235.771,-5.5 235.771,-23.5 331.2778,-23.5 331.2778,-5.5 235.771,-5.5"/>
<text text-anchor="middle" x="283.5244" y="-11.5" font-family="Helvetica,sans-Serif" font-size="10.00" fill="#000000">opentracing_span</text>
</a>
</g>
</g>
<!-- Node2&#45;&gt;Node4 -->
<g id="edge8" class="edge">
<title>Node2&#45;&gt;Node4</title>
<path fill="none" stroke="#9a32cd" stroke-dasharray="5,2" d="M129.5601,-89.459C125.3767,-85.9434 121.6467,-81.7959 119.1846,-77 113.0952,-65.1384 110.7203,-57.3021 119.1846,-47 133.7242,-29.3034 192.5781,-21.0802 235.7155,-17.3721"/>
<polygon fill="#9a32cd" stroke="#9a32cd" points="127.7761,-92.4857 137.9493,-95.4449 131.8419,-86.7875 127.7761,-92.4857"/>
<text text-anchor="middle" x="133.6943" y="-59" font-family="Helvetica,sans-Serif" font-size="10.00" fill="#000000"> tracer</text>
</g>
<!-- Node3 -->
<g id="node3" class="node">
<title>Node3</title>
<g id="a_node3"><a xlink:href="structopentracing__destructible.html" target="_top" xlink:title="Destructible interface. ">
<polygon fill="#ffffff" stroke="#000000" points="233.0444,-160.5 233.0444,-178.5 358.0044,-178.5 358.0044,-160.5 233.0444,-160.5"/>
<text text-anchor="middle" x="295.5244" y="-166.5" font-family="Helvetica,sans-Serif" font-size="10.00" fill="#000000">opentracing_destructible</text>
</a>
</g>
</g>
<!-- Node3&#45;&gt;Node2 -->
<g id="edge2" class="edge">
<title>Node3&#45;&gt;Node2</title>
<path fill="none" stroke="#191970" d="M239.5004,-157.6606C226.2738,-153.6916 212.5354,-148.5534 200.5244,-142 186.9598,-134.5989 173.9596,-122.2927 165.8729,-113.8078"/>
<polygon fill="#191970" stroke="#191970" points="238.9037,-161.1286 249.4781,-160.4718 240.8021,-154.3909 238.9037,-161.1286"/>
</g>
<!-- Node3&#45;&gt;Node2 -->
<g id="edge10" class="edge">
<title>Node3&#45;&gt;Node2</title>
<path fill="none" stroke="#9a32cd" stroke-dasharray="5,2" d="M265.4935,-156.3145C255.4641,-151.8443 244.2495,-146.7733 234.0615,-142 213.9627,-132.5834 191.1403,-121.3272 175.6863,-113.6202"/>
<polygon fill="#9a32cd" stroke="#9a32cd" points="264.1137,-159.5313 274.674,-160.387 266.9523,-153.1326 264.1137,-159.5313"/>
<text text-anchor="middle" x="245.7559" y="-134" font-family="Helvetica,sans-Serif" font-size="10.00" fill="#000000"> base</text>
</g>
<!-- Node3&#45;&gt;Node4 -->
<g id="edge4" class="edge">
<title>Node3&#45;&gt;Node4</title>
<path fill="none" stroke="#191970" d="M294.007,-149.9002C291.4006,-116.2339 286.1685,-48.6526 284.2506,-23.8794"/>
<polygon fill="#191970" stroke="#191970" points="290.5482,-150.5683 294.8097,-160.2682 297.5273,-150.0279 290.5482,-150.5683"/>
</g>
<!-- Node3&#45;&gt;Node4 -->
<g id="edge9" class="edge">
<title>Node3&#45;&gt;Node4</title>
<path fill="none" stroke="#9a32cd" stroke-dasharray="5,2" d="M302.5631,-150.6229C303.3749,-147.7691 304.0727,-144.8323 304.5244,-142 308.5109,-117.0023 328.9049,-151.7925 300.5244,-47 298.2606,-38.6411 293.6043,-29.9912 289.7363,-23.7185"/>
<polygon fill="#9a32cd" stroke="#9a32cd" points="299.1917,-149.6698 299.3587,-160.2634 305.8343,-151.8778 299.1917,-149.6698"/>
<text text-anchor="middle" x="326.7559" y="-101.5" font-family="Helvetica,sans-Serif" font-size="10.00" fill="#000000"> base</text>
</g>
<!-- Node5 -->
<g id="node5" class="node">
<title>Node5</title>
<g id="a_node5"><a xlink:href="structopentracing__span__context.html" target="_top" xlink:title="Span context interface. ">
<polygon fill="#ffffff" stroke="#000000" points="360.8696,-95.5 360.8696,-113.5 494.1792,-113.5 494.1792,-95.5 360.8696,-95.5"/>
<text text-anchor="middle" x="427.5244" y="-101.5" font-family="Helvetica,sans-Serif" font-size="10.00" fill="#000000">opentracing_span_context</text>
</a>
</g>
</g>
<!-- Node3&#45;&gt;Node5 -->
<g id="edge6" class="edge">
<title>Node3&#45;&gt;Node5</title>
<path fill="none" stroke="#191970" d="M323.1004,-155.9209C348.839,-143.2466 386.5401,-124.6817 408.9007,-113.6708"/>
<polygon fill="#191970" stroke="#191970" points="321.3035,-152.9043 313.8784,-160.462 324.396,-159.1842 321.3035,-152.9043"/>
</g>
<!-- Node3&#45;&gt;Node5 -->
<g id="edge7" class="edge">
<title>Node3&#45;&gt;Node5</title>
<path fill="none" stroke="#9a32cd" stroke-dasharray="5,2" d="M338.3547,-157.3586C350.6639,-153.1866 363.8967,-148.0231 375.5244,-142 390.9422,-134.0137 406.8791,-121.8355 416.9773,-113.5399"/>
<polygon fill="#9a32cd" stroke="#9a32cd" points="337.1562,-154.0679 328.7292,-160.4894 339.3215,-160.7246 337.1562,-154.0679"/>
<text text-anchor="middle" x="403.7559" y="-134" font-family="Helvetica,sans-Serif" font-size="10.00" fill="#000000"> base</text>
</g>
<!-- Node4&#45;&gt;Node2 -->
<g id="edge3" class="edge">
<title>Node4&#45;&gt;Node2</title>
<path fill="none" stroke="#9a32cd" stroke-dasharray="5,2" d="M225.6924,-22.7421C197.3899,-28.0663 167.5607,-36.0631 158.8994,-47 147.9886,-60.7774 151.4303,-82.7886 154.6468,-95.2002"/>
<polygon fill="#9a32cd" stroke="#9a32cd" points="226.3749,-26.1756 235.6025,-20.9698 225.1425,-19.285 226.3749,-26.1756"/>
<text text-anchor="middle" x="214.8369" y="-69" font-family="Helvetica,sans-Serif" font-size="10.00" fill="#000000"> start_span_with_options</text>
<text text-anchor="middle" x="214.8369" y="-59" font-family="Helvetica,sans-Serif" font-size="10.00" fill="#000000">start_span</text>
<text text-anchor="middle" x="214.8369" y="-49" font-family="Helvetica,sans-Serif" font-size="10.00" fill="#000000">inject_text_map</text>
</g>
<!-- Node5&#45;&gt;Node4 -->
<g id="edge5" class="edge">
<title>Node5&#45;&gt;Node4</title>
<path fill="none" stroke="#9a32cd" stroke-dasharray="5,2" d="M404.3727,-90.0302C374.4428,-71.324 323.2022,-39.2986 298.163,-23.6491"/>
<polygon fill="#9a32cd" stroke="#9a32cd" points="402.5895,-93.043 412.9245,-95.375 406.2995,-87.107 402.5895,-93.043"/>
<text text-anchor="middle" x="411.6572" y="-59" font-family="Helvetica,sans-Serif" font-size="10.00" fill="#000000"> span_context</text>
</g>
</g>
</svg>
