<?xml version="1.0" encoding="UTF-8" standalone="no"?>
<!DOCTYPE svg PUBLIC "-//W3C//DTD SVG 1.1//EN"
 "http://www.w3.org/Graphics/SVG/1.1/DTD/svg11.dtd">
<!-- Generated by graphviz version 2.40.1 (20161225.0304)
 -->
<!-- Title: noop_span Pages: 1 -->
<svg width="445pt" height="242pt"
 viewBox="0.00 0.00 445.40 242.00" xmlns="http://www.w3.org/2000/svg" xmlns:xlink="http://www.w3.org/1999/xlink">
<g id="graph0" class="graph" transform="scale(1 1) rotate(0) translate(4 238)">
<title>noop_span</title>
<polygon fill="#ffffff" stroke="transparent" points="-4,4 -4,-238 441.4009,-238 441.4009,4 -4,4"/>
<!-- Node1 -->
<g id="node1" class="node">
<title>Node1</title>
<polygon fill="#bfbfbf" stroke="#000000" points="0,-.5 0,-18.5 65.4922,-18.5 65.4922,-.5 0,-.5"/>
<text text-anchor="middle" x="32.7461" y="-6.5" font-family="Helvetica,sans-Serif" font-size="10.00" fill="#000000">noop_span</text>
</g>
<!-- Node2 -->
<g id="node2" class="node">
<title>Node2</title>
<g id="a_node2"><a xlink:href="structopentracing__tracer.html" target="_top" xlink:title="Tracer interface. ">
<polygon fill="#ffffff" stroke="#000000" points="51.0542,-150.5 51.0542,-168.5 150.438,-168.5 150.438,-150.5 51.0542,-150.5"/>
<text text-anchor="middle" x="100.7461" y="-156.5" font-family="Helvetica,sans-Serif" font-size="10.00" fill="#000000">opentracing_tracer</text>
</a>
</g>
</g>
<!-- Node2&#45;&gt;Node1 -->
<g id="edge1" class="edge">
<title>Node2&#45;&gt;Node1</title>
<path fill="none" stroke="#9a32cd" stroke-dasharray="5,2" d="M68.2582,-144.9898C63.0769,-141.407 58.2711,-137.0993 54.7461,-132 29.927,-96.0959 30.5779,-40.5821 31.9568,-18.7597"/>
<polygon fill="#9a32cd" stroke="#9a32cd" points="66.7983,-148.1958 77.1726,-150.3467 70.4039,-142.1958 66.7983,-148.1958"/>
<text text-anchor="middle" x="59.5317" y="-71.5" font-family="Helvetica,sans-Serif" font-size="10.00" fill="#000000"> tracer_ptr</text>
</g>
<!-- Node4 -->
<g id="node4" class="node">
<title>Node4</title>
<g id="a_node4"><a xlink:href="structopentracing__span.html" target="_top" xlink:title="Span interface. ">
<polygon fill="#ffffff" stroke="#000000" points="128.9927,-65.5 128.9927,-83.5 224.4995,-83.5 224.4995,-65.5 128.9927,-65.5"/>
<text text-anchor="middle" x="176.7461" y="-71.5" font-family="Helvetica,sans-Serif" font-size="10.00" fill="#000000">opentracing_span</text>
</a>
</g>
</g>
<!-- Node2&#45;&gt;Node4 -->
<g id="edge8" class="edge">
<title>Node2&#45;&gt;Node4</title>
<path fill="none" stroke="#9a32cd" stroke-dasharray="5,2" d="M73.4985,-144.3479C69.4255,-140.8437 65.7964,-136.7288 63.4063,-132 57.3915,-120.1004 55.1643,-112.4808 63.4063,-102 71.6982,-91.4555 101.769,-84.4593 128.8528,-80.1631"/>
<polygon fill="#9a32cd" stroke="#9a32cd" points="71.5338,-147.2473 81.6689,-150.3345 75.6711,-141.6008 71.5338,-147.2473"/>
<text text-anchor="middle" x="77.916" y="-114" font-family="Helvetica,sans-Serif" font-size="10.00" fill="#000000"> tracer</text>
</g>
<!-- Node3 -->
<g id="node3" class="node">
<title>Node3</title>
<g id="a_node3"><a xlink:href="structopentracing__destructible.html" target="_top" xlink:title="Destructible interface. ">
<polygon fill="#ffffff" stroke="#000000" points="176.2661,-215.5 176.2661,-233.5 301.2261,-233.5 301.2261,-215.5 176.2661,-215.5"/>
<text text-anchor="middle" x="238.7461" y="-221.5" font-family="Helvetica,sans-Serif" font-size="10.00" fill="#000000">opentracing_destructible</text>
</a>
</g>
</g>
<!-- Node3&#45;&gt;Node2 -->
<g id="edge2" class="edge">
<title>Node3&#45;&gt;Node2</title>
<path fill="none" stroke="#191970" d="M182.7221,-212.6606C169.4955,-208.6916 155.757,-203.5534 143.7461,-197 130.1815,-189.5989 117.1812,-177.2927 109.0946,-168.8078"/>
<polygon fill="#191970" stroke="#191970" points="182.1253,-216.1286 192.6998,-215.4718 184.0238,-209.3909 182.1253,-216.1286"/>
</g>
<!-- Node3&#45;&gt;Node2 -->
<g id="edge10" class="edge">
<title>Node3&#45;&gt;Node2</title>
<path fill="none" stroke="#9a32cd" stroke-dasharray="5,2" d="M208.7152,-211.3145C198.6858,-206.8443 187.4712,-201.7733 177.2832,-197 157.1844,-187.5834 134.362,-176.3272 118.908,-168.6202"/>
<polygon fill="#9a32cd" stroke="#9a32cd" points="207.3354,-214.5313 217.8956,-215.387 210.1739,-208.1326 207.3354,-214.5313"/>
<text text-anchor="middle" x="188.9775" y="-189" font-family="Helvetica,sans-Serif" font-size="10.00" fill="#000000"> base</text>
</g>
<!-- Node3&#45;&gt;Node4 -->
<g id="edge4" class="edge">
<title>Node3&#45;&gt;Node4</title>
<path fill="none" stroke="#191970" d="M238.6938,-205.2028C237.7717,-179.6838 233.0985,-134.19 212.7461,-102 207.9546,-94.4217 200.2917,-88.1395 193.2648,-83.5018"/>
<polygon fill="#191970" stroke="#191970" points="235.1984,-205.4741 238.8964,-215.4026 242.197,-205.3351 235.1984,-205.4741"/>
</g>
<!-- Node3&#45;&gt;Node4 -->
<g id="edge9" class="edge">
<title>Node3&#45;&gt;Node4</title>
<path fill="none" stroke="#9a32cd" stroke-dasharray="5,2" d="M245.7848,-205.6229C246.5966,-202.7691 247.2944,-199.8323 247.7461,-197 253.1741,-162.9629 258.8251,-136.7001 232.7461,-102 226.499,-93.6878 217.0623,-87.7426 207.7066,-83.558"/>
<polygon fill="#9a32cd" stroke="#9a32cd" points="242.4133,-204.6698 242.5804,-215.2634 249.056,-206.8778 242.4133,-204.6698"/>
<text text-anchor="middle" x="263.9775" y="-156.5" font-family="Helvetica,sans-Serif" font-size="10.00" fill="#000000"> base</text>
</g>
<!-- Node5 -->
<g id="node5" class="node">
<title>Node5</title>
<g id="a_node5"><a xlink:href="structopentracing__span__context.html" target="_top" xlink:title="Span context interface. ">
<polygon fill="#ffffff" stroke="#000000" points="304.0913,-150.5 304.0913,-168.5 437.4009,-168.5 437.4009,-150.5 304.0913,-150.5"/>
<text text-anchor="middle" x="370.7461" y="-156.5" font-family="Helvetica,sans-Serif" font-size="10.00" fill="#000000">opentracing_span_context</text>
</a>
</g>
</g>
<!-- Node3&#45;&gt;Node5 -->
<g id="edge6" class="edge">
<title>Node3&#45;&gt;Node5</title>
<path fill="none" stroke="#191970" d="M266.3221,-210.9209C292.0607,-198.2466 329.7618,-179.6817 352.1224,-168.6708"/>
<polygon fill="#191970" stroke="#191970" points="264.5252,-207.9043 257.1001,-215.462 267.6176,-214.1842 264.5252,-207.9043"/>
</g>
<!-- Node3&#45;&gt;Node5 -->
<g id="edge7" class="edge">
<title>Node3&#45;&gt;Node5</title>
<path fill="none" stroke="#9a32cd" stroke-dasharray="5,2" d="M281.5763,-212.3586C293.8855,-208.1866 307.1183,-203.0231 318.7461,-197 334.1639,-189.0137 350.1008,-176.8355 360.199,-168.5399"/>
<polygon fill="#9a32cd" stroke="#9a32cd" points="280.3779,-209.0679 271.9509,-215.4894 282.5431,-215.7246 280.3779,-209.0679"/>
<text text-anchor="middle" x="346.9775" y="-189" font-family="Helvetica,sans-Serif" font-size="10.00" fill="#000000"> base</text>
</g>
<!-- Node4&#45;&gt;Node1 -->
<g id="edge11" class="edge">
<title>Node4&#45;&gt;Node1</title>
<path fill="none" stroke="#9a32cd" stroke-dasharray="5,2" d="M147.4023,-61.2545C119.3108,-48.5743 77.6712,-29.7787 53.0628,-18.6708"/>
<polygon fill="#9a32cd" stroke="#9a32cd" points="146.1691,-64.5379 156.7235,-65.462 149.049,-58.1577 146.1691,-64.5379"/>
<text text-anchor="middle" x="125.9775" y="-39" font-family="Helvetica,sans-Serif" font-size="10.00" fill="#000000"> base</text>
</g>
<!-- Node4&#45;&gt;Node2 -->
<g id="edge3" class="edge">
<title>Node4&#45;&gt;Node2</title>
<path fill="none" stroke="#9a32cd" stroke-dasharray="5,2" d="M131.1227,-86.6831C117.9566,-91.1583 106.0636,-96.4872 102.1211,-102 91.898,-116.2951 95.0818,-138.1122 98.07,-150.3518"/>
<polygon fill="#9a32cd" stroke="#9a32cd" points="132.375,-89.9575 140.8391,-83.5849 130.2484,-83.2883 132.375,-89.9575"/>
<text text-anchor="middle" x="158.0586" y="-124" font-family="Helvetica,sans-Serif" font-size="10.00" fill="#000000"> start_span_with_options</text>
<text text-anchor="middle" x="158.0586" y="-114" font-family="Helvetica,sans-Serif" font-size="10.00" fill="#000000">start_span</text>
<text text-anchor="middle" x="158.0586" y="-104" font-family="Helvetica,sans-Serif" font-size="10.00" fill="#000000">inject_text_map</text>
</g>
<!-- Node5&#45;&gt;Node4 -->
<g id="edge5" class="edge">
<title>Node5&#45;&gt;Node4</title>
<path fill="none" stroke="#9a32cd" stroke-dasharray="5,2" d="M349.8093,-144.5204C331.1369,-131.7355 302.6684,-113.625 275.7461,-102 257.7316,-94.2214 236.9199,-88.0502 219.0407,-83.5412"/>
<polygon fill="#9a32cd" stroke="#9a32cd" points="347.9318,-147.4779 358.1392,-150.317 351.9302,-141.7321 347.9318,-147.4779"/>
<text text-anchor="middle" x="359.8789" y="-114" font-family="Helvetica,sans-Serif" font-size="10.00" fill="#000000"> span_context</text>
</g>
</g>
</svg>
