<?xml version="1.0" encoding="UTF-8" standalone="no"?>
<!DOCTYPE svg PUBLIC "-//W3C//DTD SVG 1.1//EN"
 "http://www.w3.org/Graphics/SVG/1.1/DTD/svg11.dtd">
<!-- Generated by graphviz version 2.40.1 (20161225.0304)
 -->
<!-- Title: opentracing_span_reference Pages: 1 -->
<svg width="168pt" height="157pt"
 viewBox="0.00 0.00 168.05 157.00" xmlns="http://www.w3.org/2000/svg" xmlns:xlink="http://www.w3.org/1999/xlink">
<g id="graph0" class="graph" transform="scale(1 1) rotate(0) translate(4 153)">
<title>opentracing_span_reference</title>
<polygon fill="#ffffff" stroke="transparent" points="-4,4 -4,-153 164.0459,-153 164.0459,4 -4,4"/>
<!-- Node1 -->
<g id="node1" class="node">
<title>Node1</title>
<polygon fill="#bfbfbf" stroke="#000000" points="0,-.5 0,-18.5 143.3145,-18.5 143.3145,-.5 0,-.5"/>
<text text-anchor="middle" x="71.6572" y="-6.5" font-family="Helvetica,sans-Serif" font-size="10.00" fill="#000000">opentracing_span_reference</text>
</g>
<!-- Node2 -->
<g id="node2" class="node">
<title>Node2</title>
<g id="a_node2"><a xlink:href="structopentracing__span__context.html" target="_top" xlink:title="Span context interface. ">
<polygon fill="#ffffff" stroke="#000000" points="5.0024,-65.5 5.0024,-83.5 138.312,-83.5 138.312,-65.5 5.0024,-65.5"/>
<text text-anchor="middle" x="71.6572" y="-71.5" font-family="Helvetica,sans-Serif" font-size="10.00" fill="#000000">opentracing_span_context</text>
</a>
</g>
</g>
<!-- Node2&#45;&gt;Node1 -->
<g id="edge1" class="edge">
<title>Node2&#45;&gt;Node1</title>
<path fill="none" stroke="#9a32cd" stroke-dasharray="5,2" d="M71.6572,-55.1265C71.6572,-43.1522 71.6572,-28.3205 71.6572,-18.8821"/>
<polygon fill="#9a32cd" stroke="#9a32cd" points="68.1573,-55.462 71.6572,-65.462 75.1573,-55.4621 68.1573,-55.462"/>
<text text-anchor="middle" x="115.8516" y="-39" font-family="Helvetica,sans-Serif" font-size="10.00" fill="#000000"> referenced_context</text>
</g>
<!-- Node3 -->
<g id="node3" class="node">
<title>Node3</title>
<g id="a_node3"><a xlink:href="structopentracing__destructible.html" target="_top" xlink:title="Destructible interface. ">
<polygon fill="#ffffff" stroke="#000000" points="9.1772,-130.5 9.1772,-148.5 134.1372,-148.5 134.1372,-130.5 9.1772,-130.5"/>
<text text-anchor="middle" x="71.6572" y="-136.5" font-family="Helvetica,sans-Serif" font-size="10.00" fill="#000000">opentracing_destructible</text>
</a>
</g>
</g>
<!-- Node3&#45;&gt;Node2 -->
<g id="edge2" class="edge">
<title>Node3&#45;&gt;Node2</title>
<path fill="none" stroke="#191970" d="M70.0806,-120.2773C69.9049,-117.5017 69.7545,-114.6789 69.6572,-112 69.307,-102.3572 70.0302,-91.3304 70.7027,-83.7426"/>
<polygon fill="#191970" stroke="#191970" points="66.5968,-120.6274 70.824,-130.3424 73.5778,-120.1117 66.5968,-120.6274"/>
</g>
<!-- Node3&#45;&gt;Node2 -->
<g id="edge3" class="edge">
<title>Node3&#45;&gt;Node2</title>
<path fill="none" stroke="#9a32cd" stroke-dasharray="5,2" d="M71.6572,-120.1265C71.6572,-108.1522 71.6572,-93.3205 71.6572,-83.8821"/>
<polygon fill="#9a32cd" stroke="#9a32cd" points="68.1573,-120.462 71.6572,-130.462 75.1573,-120.4621 68.1573,-120.462"/>
<text text-anchor="middle" x="83.8887" y="-104" font-family="Helvetica,sans-Serif" font-size="10.00" fill="#000000"> base</text>
</g>
</g>
</svg>
