<?xml version="1.0" encoding="UTF-8" standalone="no"?>
<!DOCTYPE svg PUBLIC "-//W3C//DTD SVG 1.1//EN"
 "http://www.w3.org/Graphics/SVG/1.1/DTD/svg11.dtd">
<!-- Generated by graphviz version 2.40.1 (20161225.0304)
 -->
<!-- Title: opentracing_span_context Pages: 1 -->
<svg width="141pt" height="92pt"
 viewBox="0.00 0.00 141.31 92.00" xmlns="http://www.w3.org/2000/svg" xmlns:xlink="http://www.w3.org/1999/xlink">
<g id="graph0" class="graph" transform="scale(1 1) rotate(0) translate(4 88)">
<title>opentracing_span_context</title>
<polygon fill="#ffffff" stroke="transparent" points="-4,4 -4,-88 137.3096,-88 137.3096,4 -4,4"/>
<!-- Node2 -->
<g id="node1" class="node">
<title>Node2</title>
<polygon fill="#bfbfbf" stroke="#000000" points="0,-.5 0,-18.5 133.3096,-18.5 133.3096,-.5 0,-.5"/>
<text text-anchor="middle" x="66.6548" y="-6.5" font-family="Helvetica,sans-Serif" font-size="10.00" fill="#000000">opentracing_span_context</text>
</g>
<!-- Node3 -->
<g id="node2" class="node">
<title>Node3</title>
<g id="a_node2"><a xlink:href="structopentracing__destructible.html" target="_top" xlink:title="Destructible interface. ">
<polygon fill="#ffffff" stroke="#000000" points="4.1748,-65.5 4.1748,-83.5 129.1348,-83.5 129.1348,-65.5 4.1748,-65.5"/>
<text text-anchor="middle" x="66.6548" y="-71.5" font-family="Helvetica,sans-Serif" font-size="10.00" fill="#000000">opentracing_destructible</text>
</a>
</g>
</g>
<!-- Node3&#45;&gt;Node2 -->
<g id="edge1" class="edge">
<title>Node3&#45;&gt;Node2</title>
<path fill="none" stroke="#191970" d="M65.0782,-55.2773C64.9025,-52.5017 64.7521,-49.6789 64.6548,-47 64.3046,-37.3572 65.0278,-26.3304 65.7003,-18.7426"/>
<polygon fill="#191970" stroke="#191970" points="61.5944,-55.6274 65.8216,-65.3424 68.5754,-55.1117 61.5944,-55.6274"/>
</g>
<!-- Node3&#45;&gt;Node2 -->
<g id="edge2" class="edge">
<title>Node3&#45;&gt;Node2</title>
<path fill="none" stroke="#9a32cd" stroke-dasharray="5,2" d="M66.6548,-55.1265C66.6548,-43.1522 66.6548,-28.3205 66.6548,-18.8821"/>
<polygon fill="#9a32cd" stroke="#9a32cd" points="63.1549,-55.462 66.6548,-65.462 70.1549,-55.4621 63.1549,-55.462"/>
<text text-anchor="middle" x="78.8862" y="-39" font-family="Helvetica,sans-Serif" font-size="10.00" fill="#000000"> base</text>
</g>
</g>
</svg>
