<?xml version="1.0" encoding="UTF-8" standalone="no"?>
<!DOCTYPE svg PUBLIC "-//W3C//DTD SVG 1.1//EN"
 "http://www.w3.org/Graphics/SVG/1.1/DTD/svg11.dtd">
<!-- Generated by graphviz version 2.40.1 (20161225.0304)
 -->
<!-- Title: opentracing&#45;c/tracer.h Pages: 1 -->
<svg width="526pt" height="357pt"
 viewBox="0.00 0.00 526.00 357.00" xmlns="http://www.w3.org/2000/svg" xmlns:xlink="http://www.w3.org/1999/xlink">
<g id="graph0" class="graph" transform="scale(1 1) rotate(0) translate(4 353)">
<title>opentracing&#45;c/tracer.h</title>
<polygon fill="#ffffff" stroke="transparent" points="-4,4 -4,-353 522,-353 522,4 -4,4"/>
<!-- Node0 -->
<g id="node1" class="node">
<title>Node0</title>
<polygon fill="#bfbfbf" stroke="#000000" points="148.6382,-330.5 148.6382,-348.5 261.3618,-348.5 261.3618,-330.5 148.6382,-330.5"/>
<text text-anchor="middle" x="205" y="-336.5" font-family="Helvetica,sans-Serif" font-size="10.00" fill="#000000">opentracing&#45;c/tracer.h</text>
</g>
<!-- Node1 -->
<g id="node2" class="node">
<title>Node1</title>
<g id="a_node2"><a xlink:href="config_8h.html" target="_top" xlink:title="opentracing&#45;c/config.h">
<polygon fill="#ffffff" stroke="#000000" points="228.8032,-55.5 228.8032,-73.5 343.1968,-73.5 343.1968,-55.5 228.8032,-55.5"/>
<text text-anchor="middle" x="286" y="-61.5" font-family="Helvetica,sans-Serif" font-size="10.00" fill="#000000">opentracing&#45;c/config.h</text>
</a>
</g>
</g>
<!-- Node0&#45;&gt;Node1 -->
<g id="edge1" class="edge">
<title>Node0&#45;&gt;Node1</title>
<path fill="none" stroke="#191970" d="M261.6819,-331.4558C351.8799,-317.044 518,-283.2105 518,-229.5 518,-229.5 518,-229.5 518,-174.5 518,-133.6907 399.3173,-94.986 331.7243,-76.2519"/>
<polygon fill="#191970" stroke="#191970" points="332.3103,-72.7839 321.7416,-73.5271 330.467,-79.5369 332.3103,-72.7839"/>
</g>
<!-- Node2 -->
<g id="node3" class="node">
<title>Node2</title>
<g id="a_node3"><a xlink:href="visibility_8h_source.html" target="_top" xlink:title="opentracing&#45;c/visibility.h">
<polygon fill="#ffffff" stroke="#000000" points="82.29,-.5 82.29,-18.5 203.71,-18.5 203.71,-.5 82.29,-.5"/>
<text text-anchor="middle" x="143" y="-6.5" font-family="Helvetica,sans-Serif" font-size="10.00" fill="#000000">opentracing&#45;c/visibility.h</text>
</a>
</g>
</g>
<!-- Node0&#45;&gt;Node2 -->
<g id="edge17" class="edge">
<title>Node0&#45;&gt;Node2</title>
<path fill="none" stroke="#191970" d="M148.4402,-333.4068C87.7614,-323.3676 0,-297.1537 0,-229.5 0,-229.5 0,-229.5 0,-119.5 0,-67.9215 59.1698,-37.1839 101.3871,-21.8171"/>
<polygon fill="#191970" stroke="#191970" points="102.6142,-25.096 110.908,-18.5033 100.3132,-18.4849 102.6142,-25.096"/>
</g>
<!-- Node3 -->
<g id="node4" class="node">
<title>Node3</title>
<g id="a_node4"><a xlink:href="propagation_8h.html" target="_top" xlink:title="opentracing&#45;c/propagation.h">
<polygon fill="#ffffff" stroke="#000000" points="85.7344,-275.5 85.7344,-293.5 226.2656,-293.5 226.2656,-275.5 85.7344,-275.5"/>
<text text-anchor="middle" x="156" y="-281.5" font-family="Helvetica,sans-Serif" font-size="10.00" fill="#000000">opentracing&#45;c/propagation.h</text>
</a>
</g>
</g>
<!-- Node0&#45;&gt;Node3 -->
<g id="edge3" class="edge">
<title>Node0&#45;&gt;Node3</title>
<path fill="none" stroke="#191970" d="M196.9086,-330.4179C189.9287,-322.5833 179.6603,-311.0575 171.1577,-301.5137"/>
<polygon fill="#191970" stroke="#191970" points="173.5326,-298.9178 164.2672,-293.7795 168.3059,-303.5743 173.5326,-298.9178"/>
</g>
<!-- Node6 -->
<g id="node7" class="node">
<title>Node6</title>
<g id="a_node7"><a xlink:href="span_8h.html" target="_top" xlink:title="opentracing&#45;c/span.h">
<polygon fill="#ffffff" stroke="#000000" points="199.3032,-220.5 199.3032,-238.5 308.6968,-238.5 308.6968,-220.5 199.3032,-220.5"/>
<text text-anchor="middle" x="254" y="-226.5" font-family="Helvetica,sans-Serif" font-size="10.00" fill="#000000">opentracing&#45;c/span.h</text>
</a>
</g>
</g>
<!-- Node0&#45;&gt;Node6 -->
<g id="edge16" class="edge">
<title>Node0&#45;&gt;Node6</title>
<path fill="none" stroke="#191970" d="M212.3111,-330.2242C219.0036,-321.355 228.7839,-307.3877 235,-294 241.8365,-279.2761 246.8522,-261.5159 250.0079,-248.3629"/>
<polygon fill="#191970" stroke="#191970" points="253.4315,-249.0912 252.2204,-238.5658 246.6035,-247.5491 253.4315,-249.0912"/>
</g>
<!-- Node1&#45;&gt;Node2 -->
<g id="edge2" class="edge">
<title>Node1&#45;&gt;Node2</title>
<path fill="none" stroke="#191970" d="M262.3865,-55.4179C238.8923,-46.3817 202.6317,-32.4353 176.2352,-22.2828"/>
<polygon fill="#191970" stroke="#191970" points="177.2385,-18.9188 166.6486,-18.5956 174.7256,-25.4522 177.2385,-18.9188"/>
</g>
<!-- Node3&#45;&gt;Node1 -->
<g id="edge4" class="edge">
<title>Node3&#45;&gt;Node1</title>
<path fill="none" stroke="#191970" d="M155.4947,-275.4708C154.4175,-247.0219 155.0686,-158.2821 201,-110 214.5016,-95.8074 233.4227,-85.0822 249.9865,-77.6202"/>
<polygon fill="#191970" stroke="#191970" points="251.5824,-80.7446 259.4078,-73.6022 248.8364,-74.3057 251.5824,-80.7446"/>
</g>
<!-- Node4 -->
<g id="node5" class="node">
<title>Node4</title>
<g id="a_node5"><a xlink:href="common_8h.html" target="_top" xlink:title="opentracing&#45;c/common.h">
<polygon fill="#ffffff" stroke="#000000" points="27.9731,-110.5 27.9731,-128.5 154.0269,-128.5 154.0269,-110.5 27.9731,-110.5"/>
<text text-anchor="middle" x="91" y="-116.5" font-family="Helvetica,sans-Serif" font-size="10.00" fill="#000000">opentracing&#45;c/common.h</text>
</a>
</g>
</g>
<!-- Node3&#45;&gt;Node4 -->
<g id="edge5" class="edge">
<title>Node3&#45;&gt;Node4</title>
<path fill="none" stroke="#191970" d="M152.3191,-275.1561C141.9509,-248.837 112.355,-173.709 98.4228,-138.3426"/>
<polygon fill="#191970" stroke="#191970" points="101.5623,-136.7626 94.6405,-128.7414 95.0494,-139.3283 101.5623,-136.7626"/>
</g>
<!-- Node3&#45;&gt;Node6 -->
<g id="edge8" class="edge">
<title>Node3&#45;&gt;Node6</title>
<path fill="none" stroke="#191970" d="M172.1827,-275.4179C187.6452,-266.7399 211.1768,-253.5334 229.0409,-243.5077"/>
<polygon fill="#191970" stroke="#191970" points="230.7857,-246.542 237.7933,-238.5956 227.3598,-240.4377 230.7857,-246.542"/>
</g>
<!-- Node4&#45;&gt;Node1 -->
<g id="edge6" class="edge">
<title>Node4&#45;&gt;Node1</title>
<path fill="none" stroke="#191970" d="M123.2003,-110.4179C156.3246,-101.0751 208.0588,-86.4834 244.2949,-76.263"/>
<polygon fill="#191970" stroke="#191970" points="245.4016,-79.5875 254.076,-73.5042 243.5013,-72.8503 245.4016,-79.5875"/>
</g>
<!-- Node5 -->
<g id="node6" class="node">
<title>Node5</title>
<polygon fill="#ffffff" stroke="#bfbfbf" points="69.3843,-55.5 69.3843,-73.5 112.6157,-73.5 112.6157,-55.5 69.3843,-55.5"/>
<text text-anchor="middle" x="91" y="-61.5" font-family="Helvetica,sans-Serif" font-size="10.00" fill="#000000">time.h</text>
</g>
<!-- Node4&#45;&gt;Node5 -->
<g id="edge7" class="edge">
<title>Node4&#45;&gt;Node5</title>
<path fill="none" stroke="#191970" d="M91,-110.4179C91,-103.2164 91,-92.8962 91,-83.8632"/>
<polygon fill="#191970" stroke="#191970" points="94.5001,-83.7794 91,-73.7795 87.5001,-83.7795 94.5001,-83.7794"/>
</g>
<!-- Node6&#45;&gt;Node1 -->
<g id="edge9" class="edge">
<title>Node6&#45;&gt;Node1</title>
<path fill="none" stroke="#191970" d="M270.2336,-220.2743C282.3254,-212.3859 297.9175,-199.8101 305,-184 320.0294,-150.4501 305.6321,-106.9268 295.0166,-82.7435"/>
<polygon fill="#191970" stroke="#191970" points="298.1802,-81.2459 290.7955,-73.6488 291.8308,-84.1929 298.1802,-81.2459"/>
</g>
<!-- Node7 -->
<g id="node8" class="node">
<title>Node7</title>
<g id="a_node8"><a xlink:href="destructible_8h.html" target="_top" xlink:title="opentracing&#45;c/destructible.h">
<polygon fill="#ffffff" stroke="#000000" points="351.5767,-165.5 351.5767,-183.5 490.4233,-183.5 490.4233,-165.5 351.5767,-165.5"/>
<text text-anchor="middle" x="421" y="-171.5" font-family="Helvetica,sans-Serif" font-size="10.00" fill="#000000">opentracing&#45;c/destructible.h</text>
</a>
</g>
</g>
<!-- Node6&#45;&gt;Node7 -->
<g id="edge10" class="edge">
<title>Node6&#45;&gt;Node7</title>
<path fill="none" stroke="#191970" d="M281.5767,-220.4179C309.5809,-211.1949 353.1169,-196.8567 384.0832,-186.6582"/>
<polygon fill="#191970" stroke="#191970" points="385.2567,-189.9568 393.6599,-183.5042 383.0669,-183.3081 385.2567,-189.9568"/>
</g>
<!-- Node8 -->
<g id="node9" class="node">
<title>Node8</title>
<g id="a_node9"><a xlink:href="value_8h.html" target="_top" xlink:title="opentracing&#45;c/value.h">
<polygon fill="#ffffff" stroke="#000000" points="184.1924,-165.5 184.1924,-183.5 295.8076,-183.5 295.8076,-165.5 184.1924,-165.5"/>
<text text-anchor="middle" x="240" y="-171.5" font-family="Helvetica,sans-Serif" font-size="10.00" fill="#000000">opentracing&#45;c/value.h</text>
</a>
</g>
</g>
<!-- Node6&#45;&gt;Node8 -->
<g id="edge12" class="edge">
<title>Node6&#45;&gt;Node8</title>
<path fill="none" stroke="#191970" d="M251.6882,-220.4179C249.8349,-213.1372 247.1703,-202.669 244.8531,-193.5659"/>
<polygon fill="#191970" stroke="#191970" points="248.2208,-192.607 242.362,-183.7795 241.4371,-194.3338 248.2208,-192.607"/>
</g>
<!-- Node7&#45;&gt;Node1 -->
<g id="edge11" class="edge">
<title>Node7&#45;&gt;Node1</title>
<path fill="none" stroke="#191970" d="M409.9524,-165.4982C387.0107,-146.805 333.9601,-103.5786 305.2638,-80.1964"/>
<polygon fill="#191970" stroke="#191970" points="307.1635,-77.2296 297.2003,-73.6261 302.7418,-82.6562 307.1635,-77.2296"/>
</g>
<!-- Node8&#45;&gt;Node1 -->
<g id="edge15" class="edge">
<title>Node8&#45;&gt;Node1</title>
<path fill="none" stroke="#191970" d="M246.2916,-165.4506C252.2757,-156.5179 261.2015,-142.3042 267,-129 273.486,-114.1183 278.532,-96.3718 281.7885,-83.2642"/>
<polygon fill="#191970" stroke="#191970" points="285.1999,-84.0467 284.0954,-73.5096 278.3878,-82.4356 285.1999,-84.0467"/>
</g>
<!-- Node8&#45;&gt;Node4 -->
<g id="edge14" class="edge">
<title>Node8&#45;&gt;Node4</title>
<path fill="none" stroke="#191970" d="M215.3957,-165.4179C190.8079,-156.3419 152.8006,-142.3123 125.2668,-132.1488"/>
<polygon fill="#191970" stroke="#191970" points="126.2342,-128.7751 115.6409,-128.5956 123.8101,-135.342 126.2342,-128.7751"/>
</g>
<!-- Node9 -->
<g id="node10" class="node">
<title>Node9</title>
<polygon fill="#ffffff" stroke="#bfbfbf" points="209.8794,-110.5 209.8794,-128.5 258.1206,-128.5 258.1206,-110.5 209.8794,-110.5"/>
<text text-anchor="middle" x="234" y="-116.5" font-family="Helvetica,sans-Serif" font-size="10.00" fill="#000000">stdint.h</text>
</g>
<!-- Node8&#45;&gt;Node9 -->
<g id="edge13" class="edge">
<title>Node8&#45;&gt;Node9</title>
<path fill="none" stroke="#191970" d="M239.0092,-165.4179C238.2236,-158.2164 237.0978,-147.8962 236.1123,-138.8632"/>
<polygon fill="#191970" stroke="#191970" points="239.5762,-138.3409 235.0123,-128.7795 232.6175,-139.1001 239.5762,-138.3409"/>
</g>
</g>
</svg>
