<?xml version="1.0" encoding="UTF-8" standalone="no"?>
<!DOCTYPE svg PUBLIC "-//W3C//DTD SVG 1.1//EN"
 "http://www.w3.org/Graphics/SVG/1.1/DTD/svg11.dtd">
<!-- Generated by graphviz version 2.40.1 (20161225.0304)
 -->
<!-- Title: opentracing&#45;c/tracer.h Pages: 1 -->
<svg width="125pt" height="157pt"
 viewBox="0.00 0.00 124.61 157.00" xmlns="http://www.w3.org/2000/svg" xmlns:xlink="http://www.w3.org/1999/xlink">
<g id="graph0" class="graph" transform="scale(1 1) rotate(0) translate(4 153)">
<title>opentracing&#45;c/tracer.h</title>
<polygon fill="#ffffff" stroke="transparent" points="-4,4 -4,-153 120.6055,-153 120.6055,4 -4,4"/>
<!-- Node10 -->
<g id="node1" class="node">
<title>Node10</title>
<polygon fill="#bfbfbf" stroke="#000000" points="1.9409,-130.5 1.9409,-148.5 114.6646,-148.5 114.6646,-130.5 1.9409,-130.5"/>
<text text-anchor="middle" x="58.3027" y="-136.5" font-family="Helvetica,sans-Serif" font-size="10.00" fill="#000000">opentracing&#45;c/tracer.h</text>
</g>
<!-- Node11 -->
<g id="node2" class="node">
<title>Node11</title>
<g id="a_node2"><a xlink:href="tracer__factory_8h.html" target="_top" xlink:title="opentracing&#45;c/tracer\l_factory.h">
<polygon fill="#ffffff" stroke="#000000" points="5.8374,-65.5 5.8374,-93.5 110.7681,-93.5 110.7681,-65.5 5.8374,-65.5"/>
<text text-anchor="start" x="13.8374" y="-81.5" font-family="Helvetica,sans-Serif" font-size="10.00" fill="#000000">opentracing&#45;c/tracer</text>
<text text-anchor="middle" x="58.3027" y="-71.5" font-family="Helvetica,sans-Serif" font-size="10.00" fill="#000000">_factory.h</text>
</a>
</g>
</g>
<!-- Node10&#45;&gt;Node11 -->
<g id="edge1" class="edge">
<title>Node10&#45;&gt;Node11</title>
<path fill="none" stroke="#191970" d="M58.3027,-120.1865C58.3027,-111.6283 58.3027,-101.7354 58.3027,-93.8477"/>
<polygon fill="#191970" stroke="#191970" points="54.8028,-120.3873 58.3027,-130.3873 61.8028,-120.3873 54.8028,-120.3873"/>
</g>
<!-- Node12 -->
<g id="node3" class="node">
<title>Node12</title>
<g id="a_node3"><a xlink:href="dynamic__load_8h.html" target="_top" xlink:title="opentracing&#45;c/dynamic\l_load.h">
<polygon fill="#ffffff" stroke="#000000" points="0,-.5 0,-28.5 116.6055,-28.5 116.6055,-.5 0,-.5"/>
<text text-anchor="start" x="8" y="-16.5" font-family="Helvetica,sans-Serif" font-size="10.00" fill="#000000">opentracing&#45;c/dynamic</text>
<text text-anchor="middle" x="58.3027" y="-6.5" font-family="Helvetica,sans-Serif" font-size="10.00" fill="#000000">_load.h</text>
</a>
</g>
</g>
<!-- Node11&#45;&gt;Node12 -->
<g id="edge2" class="edge">
<title>Node11&#45;&gt;Node12</title>
<path fill="none" stroke="#191970" d="M58.3027,-55.1081C58.3027,-46.1539 58.3027,-36.3227 58.3027,-28.5765"/>
<polygon fill="#191970" stroke="#191970" points="54.8028,-55.3959 58.3027,-65.396 61.8028,-55.396 54.8028,-55.3959"/>
</g>
</g>
</svg>
