<?xml version="1.0" encoding="UTF-8" standalone="no"?>
<!DOCTYPE svg PUBLIC "-//W3C//DTD SVG 1.1//EN"
 "http://www.w3.org/Graphics/SVG/1.1/DTD/svg11.dtd">
<!-- Generated by graphviz version 2.40.1 (20161225.0304)
 -->
<!-- Title: opentracing&#45;c/tracer_factory.h Pages: 1 -->
<svg width="534pt" height="422pt"
 viewBox="0.00 0.00 533.57 422.00" xmlns="http://www.w3.org/2000/svg" xmlns:xlink="http://www.w3.org/1999/xlink">
<g id="graph0" class="graph" transform="scale(1 1) rotate(0) translate(4 418)">
<title>opentracing&#45;c/tracer_factory.h</title>
<polygon fill="#ffffff" stroke="transparent" points="-4,4 -4,-418 529.5702,-418 529.5702,4 -4,4"/>
<!-- Node0 -->
<g id="node1" class="node">
<title>Node0</title>
<polygon fill="#bfbfbf" stroke="#000000" points="203.1049,-385.5 203.1049,-413.5 308.0355,-413.5 308.0355,-385.5 203.1049,-385.5"/>
<text text-anchor="start" x="211.1049" y="-401.5" font-family="Helvetica,sans-Serif" font-size="10.00" fill="#000000">opentracing&#45;c/tracer</text>
<text text-anchor="middle" x="255.5702" y="-391.5" font-family="Helvetica,sans-Serif" font-size="10.00" fill="#000000">_factory.h</text>
</g>
<!-- Node1 -->
<g id="node2" class="node">
<title>Node1</title>
<g id="a_node2"><a xlink:href="config_8h.html" target="_top" xlink:title="opentracing&#45;c/config.h">
<polygon fill="#ffffff" stroke="#000000" points="241.3734,-55.5 241.3734,-73.5 355.767,-73.5 355.767,-55.5 241.3734,-55.5"/>
<text text-anchor="middle" x="298.5702" y="-61.5" font-family="Helvetica,sans-Serif" font-size="10.00" fill="#000000">opentracing&#45;c/config.h</text>
</a>
</g>
</g>
<!-- Node0&#45;&gt;Node1 -->
<g id="edge1" class="edge">
<title>Node0&#45;&gt;Node1</title>
<path fill="none" stroke="#191970" d="M308.2699,-388.3016C386.8448,-370.0642 525.5702,-331.2464 525.5702,-284.5 525.5702,-284.5 525.5702,-284.5 525.5702,-174.5 525.5702,-137.6774 504.5049,-129.9737 473.5702,-110 441.4061,-89.2325 400.1694,-77.9257 365.8049,-71.7788"/>
<polygon fill="#191970" stroke="#191970" points="366.2863,-68.3107 355.8446,-70.1052 365.1263,-75.2139 366.2863,-68.3107"/>
</g>
<!-- Node3 -->
<g id="node4" class="node">
<title>Node3</title>
<g id="a_node4"><a xlink:href="common_8h.html" target="_top" xlink:title="opentracing&#45;c/common.h">
<polygon fill="#ffffff" stroke="#000000" points="13.5434,-110.5 13.5434,-128.5 139.5971,-128.5 139.5971,-110.5 13.5434,-110.5"/>
<text text-anchor="middle" x="76.5702" y="-116.5" font-family="Helvetica,sans-Serif" font-size="10.00" fill="#000000">opentracing&#45;c/common.h</text>
</a>
</g>
</g>
<!-- Node0&#45;&gt;Node3 -->
<g id="edge3" class="edge">
<title>Node0&#45;&gt;Node3</title>
<path fill="none" stroke="#191970" d="M233.4231,-385.3483C220.0048,-376.073 203.1153,-363.0868 190.5702,-349 133.5412,-284.9627 122.3211,-263.6553 90.5702,-184 84.729,-169.3459 81.1215,-151.7993 79.0345,-138.7093"/>
<polygon fill="#191970" stroke="#191970" points="82.4599,-137.9389 77.574,-128.5379 75.5309,-138.9339 82.4599,-137.9389"/>
</g>
<!-- Node5 -->
<g id="node6" class="node">
<title>Node5</title>
<g id="a_node6"><a xlink:href="tracer_8h.html" target="_top" xlink:title="opentracing&#45;c/tracer.h">
<polygon fill="#ffffff" stroke="#000000" points="199.2084,-330.5 199.2084,-348.5 311.932,-348.5 311.932,-330.5 199.2084,-330.5"/>
<text text-anchor="middle" x="255.5702" y="-336.5" font-family="Helvetica,sans-Serif" font-size="10.00" fill="#000000">opentracing&#45;c/tracer.h</text>
</a>
</g>
</g>
<!-- Node0&#45;&gt;Node5 -->
<g id="edge6" class="edge">
<title>Node0&#45;&gt;Node5</title>
<path fill="none" stroke="#191970" d="M255.5702,-385.2808C255.5702,-377.3776 255.5702,-367.4316 255.5702,-358.8308"/>
<polygon fill="#191970" stroke="#191970" points="259.0703,-358.5842 255.5702,-348.5842 252.0703,-358.5842 259.0703,-358.5842"/>
</g>
<!-- Node2 -->
<g id="node3" class="node">
<title>Node2</title>
<g id="a_node3"><a xlink:href="visibility_8h_source.html" target="_top" xlink:title="opentracing&#45;c/visibility.h">
<polygon fill="#ffffff" stroke="#000000" points="67.8603,-.5 67.8603,-18.5 189.2802,-18.5 189.2802,-.5 67.8603,-.5"/>
<text text-anchor="middle" x="128.5702" y="-6.5" font-family="Helvetica,sans-Serif" font-size="10.00" fill="#000000">opentracing&#45;c/visibility.h</text>
</a>
</g>
</g>
<!-- Node1&#45;&gt;Node2 -->
<g id="edge2" class="edge">
<title>Node1&#45;&gt;Node2</title>
<path fill="none" stroke="#191970" d="M270.4982,-55.4179C241.9908,-46.1949 197.6727,-31.8567 166.1501,-21.6582"/>
<polygon fill="#191970" stroke="#191970" points="166.9933,-18.2524 156.4014,-18.5042 164.8385,-24.9125 166.9933,-18.2524"/>
</g>
<!-- Node3&#45;&gt;Node1 -->
<g id="edge4" class="edge">
<title>Node3&#45;&gt;Node1</title>
<path fill="none" stroke="#191970" d="M113.229,-110.4179C151.3426,-100.9753 211.0981,-86.171 252.4067,-75.9369"/>
<polygon fill="#191970" stroke="#191970" points="253.3611,-79.3064 262.2259,-73.5042 251.6777,-72.5118 253.3611,-79.3064"/>
</g>
<!-- Node4 -->
<g id="node5" class="node">
<title>Node4</title>
<polygon fill="#ffffff" stroke="#bfbfbf" points="54.9545,-55.5 54.9545,-73.5 98.1859,-73.5 98.1859,-55.5 54.9545,-55.5"/>
<text text-anchor="middle" x="76.5702" y="-61.5" font-family="Helvetica,sans-Serif" font-size="10.00" fill="#000000">time.h</text>
</g>
<!-- Node3&#45;&gt;Node4 -->
<g id="edge5" class="edge">
<title>Node3&#45;&gt;Node4</title>
<path fill="none" stroke="#191970" d="M76.5702,-110.4179C76.5702,-103.2164 76.5702,-92.8962 76.5702,-83.8632"/>
<polygon fill="#191970" stroke="#191970" points="80.0703,-83.7794 76.5702,-73.7795 73.0703,-83.7795 80.0703,-83.7794"/>
</g>
<!-- Node5&#45;&gt;Node1 -->
<g id="edge7" class="edge">
<title>Node5&#45;&gt;Node1</title>
<path fill="none" stroke="#191970" d="M291.3118,-330.4729C356.3896,-312.9822 487.5702,-272.4042 487.5702,-229.5 487.5702,-229.5 487.5702,-229.5 487.5702,-174.5 487.5702,-116.4212 420.0797,-88.4748 365.7596,-75.3877"/>
<polygon fill="#191970" stroke="#191970" points="366.3174,-71.9251 355.7893,-73.1131 364.7603,-78.7497 366.3174,-71.9251"/>
</g>
<!-- Node5&#45;&gt;Node2 -->
<g id="edge20" class="edge">
<title>Node5&#45;&gt;Node2</title>
<path fill="none" stroke="#191970" d="M235.5224,-330.3458C185.1616,-306.0814 53.8565,-234.6581 4.5702,-129 -17.9787,-80.6606 51.1265,-41.6584 95.0879,-22.4567"/>
<polygon fill="#191970" stroke="#191970" points="96.4668,-25.6737 104.3127,-18.5538 93.7393,-19.2269 96.4668,-25.6737"/>
</g>
<!-- Node6 -->
<g id="node7" class="node">
<title>Node6</title>
<g id="a_node7"><a xlink:href="propagation_8h.html" target="_top" xlink:title="opentracing&#45;c/propagation.h">
<polygon fill="#ffffff" stroke="#000000" points="234.3046,-275.5 234.3046,-293.5 374.8358,-293.5 374.8358,-275.5 234.3046,-275.5"/>
<text text-anchor="middle" x="304.5702" y="-281.5" font-family="Helvetica,sans-Serif" font-size="10.00" fill="#000000">opentracing&#45;c/propagation.h</text>
</a>
</g>
</g>
<!-- Node5&#45;&gt;Node6 -->
<g id="edge8" class="edge">
<title>Node5&#45;&gt;Node6</title>
<path fill="none" stroke="#191970" d="M263.6616,-330.4179C270.6415,-322.5833 280.9099,-311.0575 289.4126,-301.5137"/>
<polygon fill="#191970" stroke="#191970" points="292.2643,-303.5743 296.3031,-293.7795 287.0377,-298.9178 292.2643,-303.5743"/>
</g>
<!-- Node7 -->
<g id="node8" class="node">
<title>Node7</title>
<g id="a_node8"><a xlink:href="span_8h.html" target="_top" xlink:title="opentracing&#45;c/span.h">
<polygon fill="#ffffff" stroke="#000000" points="200.8734,-220.5 200.8734,-238.5 310.267,-238.5 310.267,-220.5 200.8734,-220.5"/>
<text text-anchor="middle" x="255.5702" y="-226.5" font-family="Helvetica,sans-Serif" font-size="10.00" fill="#000000">opentracing&#45;c/span.h</text>
</a>
</g>
</g>
<!-- Node5&#45;&gt;Node7 -->
<g id="edge19" class="edge">
<title>Node5&#45;&gt;Node7</title>
<path fill="none" stroke="#191970" d="M247.0718,-330.2333C239.7631,-321.5871 229.7572,-307.9567 225.5702,-294 220.5532,-277.2767 230.2267,-259.3532 239.8953,-246.6553"/>
<polygon fill="#191970" stroke="#191970" points="242.7331,-248.7157 246.4075,-238.7783 237.3381,-244.2554 242.7331,-248.7157"/>
</g>
<!-- Node6&#45;&gt;Node1 -->
<g id="edge9" class="edge">
<title>Node6&#45;&gt;Node1</title>
<path fill="none" stroke="#191970" d="M329.4168,-275.4168C372.9804,-257.9373 456.2029,-216.7323 430.5702,-165 409.7102,-122.9 361.8381,-93.6465 329.8484,-77.9618"/>
<polygon fill="#191970" stroke="#191970" points="331.0144,-74.6416 320.478,-73.5305 328.0218,-80.9697 331.0144,-74.6416"/>
</g>
<!-- Node6&#45;&gt;Node3 -->
<g id="edge10" class="edge">
<title>Node6&#45;&gt;Node3</title>
<path fill="none" stroke="#191970" d="M269.0467,-275.412C224.9416,-262.3608 150.2138,-234.172 106.5702,-184 95.058,-170.7657 87.0856,-152.3625 82.2687,-138.5995"/>
<polygon fill="#191970" stroke="#191970" points="85.4873,-137.1781 79.0749,-128.7442 78.8283,-139.3361 85.4873,-137.1781"/>
</g>
<!-- Node6&#45;&gt;Node7 -->
<g id="edge11" class="edge">
<title>Node6&#45;&gt;Node7</title>
<path fill="none" stroke="#191970" d="M296.4789,-275.4179C289.4989,-267.5833 279.2306,-256.0575 270.7279,-246.5137"/>
<polygon fill="#191970" stroke="#191970" points="273.1028,-243.9178 263.8374,-238.7795 267.8761,-248.5743 273.1028,-243.9178"/>
</g>
<!-- Node7&#45;&gt;Node1 -->
<g id="edge12" class="edge">
<title>Node7&#45;&gt;Node1</title>
<path fill="none" stroke="#191970" d="M258.0053,-220.1561C264.8346,-193.9504 284.2745,-119.3557 293.54,-83.8021"/>
<polygon fill="#191970" stroke="#191970" points="297.0268,-84.3009 296.1619,-73.7414 290.2531,-82.5355 297.0268,-84.3009"/>
</g>
<!-- Node8 -->
<g id="node9" class="node">
<title>Node8</title>
<g id="a_node9"><a xlink:href="destructible_8h.html" target="_top" xlink:title="opentracing&#45;c/destructible.h">
<polygon fill="#ffffff" stroke="#000000" points="283.1469,-165.5 283.1469,-183.5 421.9936,-183.5 421.9936,-165.5 283.1469,-165.5"/>
<text text-anchor="middle" x="352.5702" y="-171.5" font-family="Helvetica,sans-Serif" font-size="10.00" fill="#000000">opentracing&#45;c/destructible.h</text>
</a>
</g>
</g>
<!-- Node7&#45;&gt;Node8 -->
<g id="edge13" class="edge">
<title>Node7&#45;&gt;Node8</title>
<path fill="none" stroke="#191970" d="M271.5878,-220.4179C286.7521,-211.8195 309.7573,-198.7754 327.3777,-188.7844"/>
<polygon fill="#191970" stroke="#191970" points="329.5562,-191.5727 336.5288,-183.5956 326.1035,-185.4834 329.5562,-191.5727"/>
</g>
<!-- Node9 -->
<g id="node10" class="node">
<title>Node9</title>
<g id="a_node10"><a xlink:href="value_8h.html" target="_top" xlink:title="opentracing&#45;c/value.h">
<polygon fill="#ffffff" stroke="#000000" points="115.7626,-165.5 115.7626,-183.5 227.3778,-183.5 227.3778,-165.5 115.7626,-165.5"/>
<text text-anchor="middle" x="171.5702" y="-171.5" font-family="Helvetica,sans-Serif" font-size="10.00" fill="#000000">opentracing&#45;c/value.h</text>
</a>
</g>
</g>
<!-- Node7&#45;&gt;Node9 -->
<g id="edge15" class="edge">
<title>Node7&#45;&gt;Node9</title>
<path fill="none" stroke="#191970" d="M241.6993,-220.4179C228.8105,-211.9788 209.3809,-199.257 194.2389,-189.3426"/>
<polygon fill="#191970" stroke="#191970" points="195.7452,-186.1454 185.4617,-183.5956 191.9106,-192.0017 195.7452,-186.1454"/>
</g>
<!-- Node8&#45;&gt;Node1 -->
<g id="edge14" class="edge">
<title>Node8&#45;&gt;Node1</title>
<path fill="none" stroke="#191970" d="M348.1512,-165.4982C339.2909,-147.4496 319.2034,-106.5306 307.497,-82.6843"/>
<polygon fill="#191970" stroke="#191970" points="310.5989,-81.0605 303.0503,-73.6261 304.3153,-84.1452 310.5989,-81.0605"/>
</g>
<!-- Node9&#45;&gt;Node1 -->
<g id="edge18" class="edge">
<title>Node9&#45;&gt;Node1</title>
<path fill="none" stroke="#191970" d="M181.9632,-165.4982C203.5453,-146.805 253.4522,-103.5786 280.448,-80.1964"/>
<polygon fill="#191970" stroke="#191970" points="282.7663,-82.8188 288.0337,-73.6261 278.1833,-77.5276 282.7663,-82.8188"/>
</g>
<!-- Node9&#45;&gt;Node3 -->
<g id="edge17" class="edge">
<title>Node9&#45;&gt;Node3</title>
<path fill="none" stroke="#191970" d="M155.8829,-165.4179C141.0312,-156.8195 118.5004,-143.7754 101.2433,-133.7844"/>
<polygon fill="#191970" stroke="#191970" points="102.6888,-130.577 92.2808,-128.5956 99.1815,-136.635 102.6888,-130.577"/>
</g>
<!-- Node10 -->
<g id="node11" class="node">
<title>Node10</title>
<polygon fill="#ffffff" stroke="#bfbfbf" points="157.4496,-110.5 157.4496,-128.5 205.6908,-128.5 205.6908,-110.5 157.4496,-110.5"/>
<text text-anchor="middle" x="181.5702" y="-116.5" font-family="Helvetica,sans-Serif" font-size="10.00" fill="#000000">stdint.h</text>
</g>
<!-- Node9&#45;&gt;Node10 -->
<g id="edge16" class="edge">
<title>Node9&#45;&gt;Node10</title>
<path fill="none" stroke="#191970" d="M173.2215,-165.4179C174.5309,-158.2164 176.4073,-147.8962 178.0496,-138.8632"/>
<polygon fill="#191970" stroke="#191970" points="181.5377,-139.2443 179.883,-128.7795 174.6506,-137.992 181.5377,-139.2443"/>
</g>
</g>
</svg>
