<?xml version="1.0" encoding="UTF-8" standalone="no"?>
<!DOCTYPE svg PUBLIC "-//W3C//DTD SVG 1.1//EN"
 "http://www.w3.org/Graphics/SVG/1.1/DTD/svg11.dtd">
<!-- Generated by graphviz version 2.40.1 (20161225.0304)
 -->
<!-- Title: opentracing&#45;c/value.h Pages: 1 -->
<svg width="238pt" height="192pt"
 viewBox="0.00 0.00 238.15 192.00" xmlns="http://www.w3.org/2000/svg" xmlns:xlink="http://www.w3.org/1999/xlink">
<g id="graph0" class="graph" transform="scale(1 1) rotate(0) translate(4 188)">
<title>opentracing&#45;c/value.h</title>
<polygon fill="#ffffff" stroke="transparent" points="-4,4 -4,-188 234.1475,-188 234.1475,4 -4,4"/>
<!-- Node0 -->
<g id="node1" class="node">
<title>Node0</title>
<polygon fill="#bfbfbf" stroke="#000000" points="20.313,-165.5 20.313,-183.5 131.9282,-183.5 131.9282,-165.5 20.313,-165.5"/>
<text text-anchor="middle" x="76.1206" y="-171.5" font-family="Helvetica,sans-Serif" font-size="10.00" fill="#000000">opentracing&#45;c/value.h</text>
</g>
<!-- Node1 -->
<g id="node2" class="node">
<title>Node1</title>
<polygon fill="#ffffff" stroke="#bfbfbf" points="0,-110.5 0,-128.5 48.2412,-128.5 48.2412,-110.5 0,-110.5"/>
<text text-anchor="middle" x="24.1206" y="-116.5" font-family="Helvetica,sans-Serif" font-size="10.00" fill="#000000">stdint.h</text>
</g>
<!-- Node0&#45;&gt;Node1 -->
<g id="edge1" class="edge">
<title>Node0&#45;&gt;Node1</title>
<path fill="none" stroke="#191970" d="M67.5339,-165.4179C60.0518,-157.5041 49.009,-145.8243 39.9334,-136.2251"/>
<polygon fill="#191970" stroke="#191970" points="42.3073,-133.6414 32.8939,-128.7795 37.2208,-138.4505 42.3073,-133.6414"/>
</g>
<!-- Node2 -->
<g id="node3" class="node">
<title>Node2</title>
<g id="a_node3"><a xlink:href="common_8h.html" target="_top" xlink:title="opentracing&#45;c/common.h">
<polygon fill="#ffffff" stroke="#000000" points="104.0938,-110.5 104.0938,-128.5 230.1475,-128.5 230.1475,-110.5 104.0938,-110.5"/>
<text text-anchor="middle" x="167.1206" y="-116.5" font-family="Helvetica,sans-Serif" font-size="10.00" fill="#000000">opentracing&#45;c/common.h</text>
</a>
</g>
</g>
<!-- Node0&#45;&gt;Node2 -->
<g id="edge2" class="edge">
<title>Node0&#45;&gt;Node2</title>
<path fill="none" stroke="#191970" d="M91.1474,-165.4179C105.3737,-156.8195 126.9559,-143.7754 143.4864,-133.7844"/>
<polygon fill="#191970" stroke="#191970" points="145.3236,-136.7637 152.0715,-128.5956 141.7028,-130.7729 145.3236,-136.7637"/>
</g>
<!-- Node3 -->
<g id="node4" class="node">
<title>Node3</title>
<g id="a_node4"><a xlink:href="config_8h.html" target="_top" xlink:title="opentracing&#45;c/config.h">
<polygon fill="#ffffff" stroke="#000000" points="18.9238,-55.5 18.9238,-73.5 133.3174,-73.5 133.3174,-55.5 18.9238,-55.5"/>
<text text-anchor="middle" x="76.1206" y="-61.5" font-family="Helvetica,sans-Serif" font-size="10.00" fill="#000000">opentracing&#45;c/config.h</text>
</a>
</g>
</g>
<!-- Node0&#45;&gt;Node3 -->
<g id="edge6" class="edge">
<title>Node0&#45;&gt;Node3</title>
<path fill="none" stroke="#191970" d="M76.1206,-165.4982C76.1206,-147.6913 76.1206,-107.6225 76.1206,-83.6515"/>
<polygon fill="#191970" stroke="#191970" points="79.6207,-83.6261 76.1206,-73.6261 72.6207,-83.6262 79.6207,-83.6261"/>
</g>
<!-- Node2&#45;&gt;Node3 -->
<g id="edge3" class="edge">
<title>Node2&#45;&gt;Node3</title>
<path fill="none" stroke="#191970" d="M152.0938,-110.4179C137.8675,-101.8195 116.2853,-88.7754 99.7548,-78.7844"/>
<polygon fill="#191970" stroke="#191970" points="101.5385,-75.7729 91.1697,-73.5956 97.9176,-81.7637 101.5385,-75.7729"/>
</g>
<!-- Node5 -->
<g id="node6" class="node">
<title>Node5</title>
<polygon fill="#ffffff" stroke="#bfbfbf" points="151.5049,-55.5 151.5049,-73.5 194.7363,-73.5 194.7363,-55.5 151.5049,-55.5"/>
<text text-anchor="middle" x="173.1206" y="-61.5" font-family="Helvetica,sans-Serif" font-size="10.00" fill="#000000">time.h</text>
</g>
<!-- Node2&#45;&gt;Node5 -->
<g id="edge5" class="edge">
<title>Node2&#45;&gt;Node5</title>
<path fill="none" stroke="#191970" d="M168.1114,-110.4179C168.897,-103.2164 170.0228,-92.8962 171.0083,-83.8632"/>
<polygon fill="#191970" stroke="#191970" points="174.5031,-84.1001 172.1083,-73.7795 167.5444,-83.3409 174.5031,-84.1001"/>
</g>
<!-- Node4 -->
<g id="node5" class="node">
<title>Node4</title>
<g id="a_node5"><a xlink:href="visibility_8h_source.html" target="_top" xlink:title="opentracing&#45;c/visibility.h">
<polygon fill="#ffffff" stroke="#000000" points="15.4106,-.5 15.4106,-18.5 136.8306,-18.5 136.8306,-.5 15.4106,-.5"/>
<text text-anchor="middle" x="76.1206" y="-6.5" font-family="Helvetica,sans-Serif" font-size="10.00" fill="#000000">opentracing&#45;c/visibility.h</text>
</a>
</g>
</g>
<!-- Node3&#45;&gt;Node4 -->
<g id="edge4" class="edge">
<title>Node3&#45;&gt;Node4</title>
<path fill="none" stroke="#191970" d="M76.1206,-55.4179C76.1206,-48.2164 76.1206,-37.8962 76.1206,-28.8632"/>
<polygon fill="#191970" stroke="#191970" points="79.6207,-28.7794 76.1206,-18.7795 72.6207,-28.7795 79.6207,-28.7794"/>
</g>
</g>
</svg>
