<?xml version="1.0" encoding="UTF-8" standalone="no"?>
<!DOCTYPE svg PUBLIC "-//W3C//DTD SVG 1.1//EN"
 "http://www.w3.org/Graphics/SVG/1.1/DTD/svg11.dtd">
<!-- Generated by graphviz version 2.40.1 (20161225.0304)
 -->
<!-- Title: opentracing&#45;c/value.h Pages: 1 -->
<svg width="186pt" height="322pt"
 viewBox="0.00 0.00 185.57 322.00" xmlns="http://www.w3.org/2000/svg" xmlns:xlink="http://www.w3.org/1999/xlink">
<g id="graph0" class="graph" transform="scale(1 1) rotate(0) translate(4 318)">
<title>opentracing&#45;c/value.h</title>
<polygon fill="#ffffff" stroke="transparent" points="-4,4 -4,-318 181.5684,-318 181.5684,4 -4,4"/>
<!-- Node6 -->
<g id="node1" class="node">
<title>Node6</title>
<polygon fill="#bfbfbf" stroke="#000000" points="63.458,-295.5 63.458,-313.5 175.0732,-313.5 175.0732,-295.5 63.458,-295.5"/>
<text text-anchor="middle" x="119.2656" y="-301.5" font-family="Helvetica,sans-Serif" font-size="10.00" fill="#000000">opentracing&#45;c/value.h</text>
</g>
<!-- Node7 -->
<g id="node2" class="node">
<title>Node7</title>
<g id="a_node2"><a xlink:href="span_8h.html" target="_top" xlink:title="opentracing&#45;c/span.h">
<polygon fill="#ffffff" stroke="#000000" points="64.5688,-240.5 64.5688,-258.5 173.9624,-258.5 173.9624,-240.5 64.5688,-240.5"/>
<text text-anchor="middle" x="119.2656" y="-246.5" font-family="Helvetica,sans-Serif" font-size="10.00" fill="#000000">opentracing&#45;c/span.h</text>
</a>
</g>
</g>
<!-- Node6&#45;&gt;Node7 -->
<g id="edge1" class="edge">
<title>Node6&#45;&gt;Node7</title>
<path fill="none" stroke="#191970" d="M119.2656,-285.383C119.2656,-276.3738 119.2656,-266.0373 119.2656,-258.7795"/>
<polygon fill="#191970" stroke="#191970" points="115.7657,-285.4178 119.2656,-295.4179 122.7657,-285.4179 115.7657,-285.4178"/>
</g>
<!-- Node8 -->
<g id="node3" class="node">
<title>Node8</title>
<g id="a_node3"><a xlink:href="propagation_8h.html" target="_top" xlink:title="opentracing&#45;c/propagation.h">
<polygon fill="#ffffff" stroke="#000000" points="0,-185.5 0,-203.5 140.5313,-203.5 140.5313,-185.5 0,-185.5"/>
<text text-anchor="middle" x="70.2656" y="-191.5" font-family="Helvetica,sans-Serif" font-size="10.00" fill="#000000">opentracing&#45;c/propagation.h</text>
</a>
</g>
</g>
<!-- Node7&#45;&gt;Node8 -->
<g id="edge2" class="edge">
<title>Node7&#45;&gt;Node8</title>
<path fill="none" stroke="#191970" d="M104.3209,-232.7253C95.8481,-223.215 85.5673,-211.6754 78.5328,-203.7795"/>
<polygon fill="#191970" stroke="#191970" points="101.9089,-235.2795 111.1743,-240.4179 107.1355,-230.623 101.9089,-235.2795"/>
</g>
<!-- Node9 -->
<g id="node4" class="node">
<title>Node9</title>
<g id="a_node4"><a xlink:href="tracer_8h.html" target="_top" xlink:title="opentracing&#45;c/tracer.h">
<polygon fill="#ffffff" stroke="#000000" points="62.9038,-130.5 62.9038,-148.5 175.6274,-148.5 175.6274,-130.5 62.9038,-130.5"/>
<text text-anchor="middle" x="119.2656" y="-136.5" font-family="Helvetica,sans-Serif" font-size="10.00" fill="#000000">opentracing&#45;c/tracer.h</text>
</a>
</g>
</g>
<!-- Node7&#45;&gt;Node9 -->
<g id="edge6" class="edge">
<title>Node7&#45;&gt;Node9</title>
<path fill="none" stroke="#191970" d="M133.9995,-232.3756C139.9778,-224.3229 146.1908,-214.2494 149.2656,-204 155.4404,-183.4174 139.3621,-161.0169 128.4284,-148.7783"/>
<polygon fill="#191970" stroke="#191970" points="131.2386,-230.2243 127.7641,-240.2333 136.7219,-234.5756 131.2386,-230.2243"/>
</g>
<!-- Node8&#45;&gt;Node9 -->
<g id="edge3" class="edge">
<title>Node8&#45;&gt;Node9</title>
<path fill="none" stroke="#191970" d="M85.2103,-177.7253C93.6831,-168.215 103.9639,-156.6754 110.9985,-148.7795"/>
<polygon fill="#191970" stroke="#191970" points="82.3958,-175.623 78.357,-185.4179 87.6224,-180.2795 82.3958,-175.623"/>
</g>
<!-- Node10 -->
<g id="node5" class="node">
<title>Node10</title>
<g id="a_node5"><a xlink:href="tracer__factory_8h.html" target="_top" xlink:title="opentracing&#45;c/tracer\l_factory.h">
<polygon fill="#ffffff" stroke="#000000" points="66.8003,-65.5 66.8003,-93.5 171.731,-93.5 171.731,-65.5 66.8003,-65.5"/>
<text text-anchor="start" x="74.8003" y="-81.5" font-family="Helvetica,sans-Serif" font-size="10.00" fill="#000000">opentracing&#45;c/tracer</text>
<text text-anchor="middle" x="119.2656" y="-71.5" font-family="Helvetica,sans-Serif" font-size="10.00" fill="#000000">_factory.h</text>
</a>
</g>
</g>
<!-- Node9&#45;&gt;Node10 -->
<g id="edge4" class="edge">
<title>Node9&#45;&gt;Node10</title>
<path fill="none" stroke="#191970" d="M119.2656,-120.1865C119.2656,-111.6283 119.2656,-101.7354 119.2656,-93.8477"/>
<polygon fill="#191970" stroke="#191970" points="115.7657,-120.3873 119.2656,-130.3873 122.7657,-120.3873 115.7657,-120.3873"/>
</g>
<!-- Node11 -->
<g id="node6" class="node">
<title>Node11</title>
<g id="a_node6"><a xlink:href="dynamic__load_8h.html" target="_top" xlink:title="opentracing&#45;c/dynamic\l_load.h">
<polygon fill="#ffffff" stroke="#000000" points="60.9629,-.5 60.9629,-28.5 177.5684,-28.5 177.5684,-.5 60.9629,-.5"/>
<text text-anchor="start" x="68.9629" y="-16.5" font-family="Helvetica,sans-Serif" font-size="10.00" fill="#000000">opentracing&#45;c/dynamic</text>
<text text-anchor="middle" x="119.2656" y="-6.5" font-family="Helvetica,sans-Serif" font-size="10.00" fill="#000000">_load.h</text>
</a>
</g>
</g>
<!-- Node10&#45;&gt;Node11 -->
<g id="edge5" class="edge">
<title>Node10&#45;&gt;Node11</title>
<path fill="none" stroke="#191970" d="M119.2656,-55.1081C119.2656,-46.1539 119.2656,-36.3227 119.2656,-28.5765"/>
<polygon fill="#191970" stroke="#191970" points="115.7657,-55.3959 119.2656,-65.396 122.7657,-55.396 115.7657,-55.3959"/>
</g>
</g>
</svg>
